<svg xmlns="http://www.w3.org/2000/svg" xmlns:xlink="http://www.w3.org/1999/xlink" viewBox="0 0 308.28 210.6"><defs><style>.cls-1,.cls-5{fill:none;}.cls-2{fill:#deeaf7;}.cls-3{fill:url(#新規パターンスウォッチ_4);}.cls-4{fill:#fff;}.cls-5{stroke:#004097;stroke-miterlimit:10;stroke-width:0.66px;}.cls-6{fill:#231815;}</style><pattern id="新規パターンスウォッチ_4" data-name="新規パターンスウォッチ 4" width="5.67" height="5.67" patternTransform="translate(32.67 16.65) scale(1.56 1.55)" patternUnits="userSpaceOnUse" viewBox="0 0 5.67 5.67"><rect class="cls-1" width="5.67" height="5.67"/><circle class="cls-2" cx="2.83" cy="2.83" r="0.71"/><rect class="cls-1" width="5.67" height="5.67"/></pattern></defs><g id="レイヤー_2" data-name="レイヤー 2"><g id="レイヤー_1-2" data-name="レイヤー 1"><rect class="cls-3" width="308.28" height="210.6"/><path class="cls-4" d="M257.74,132.56a14.37,14.37,0,0,1-14.33,14.32H64.87a14.33,14.33,0,1,1,0-28.65H243.41A14.37,14.37,0,0,1,257.74,132.56Z"/><path class="cls-5" d="M257.74,132.56a14.37,14.37,0,0,1-14.33,14.32H64.87a14.33,14.33,0,1,1,0-28.65H243.41A14.37,14.37,0,0,1,257.74,132.56Z"/><path class="cls-6" d="M95.94,128.57a1.39,1.39,0,0,0,.78-.18.28.28,0,0,1,.2-.06.45.45,0,0,1,.25.09,6.88,6.88,0,0,1,1.06.84.49.49,0,0,1,.2.36.44.44,0,0,1-.19.32,1.84,1.84,0,0,0-.51.67,21.55,21.55,0,0,1-3.08,4.81,20.11,20.11,0,0,1-4.73,3.87.43.43,0,0,1-.24.08.54.54,0,0,1-.36-.18,4.08,4.08,0,0,0-1.48-.71,18,18,0,0,0,5.18-4,15.58,15.58,0,0,0,2.87-4.41l-3.76.11a21,21,0,0,1-2.94,3.18.48.48,0,0,1-.32.18.42.42,0,0,1-.24-.1,4.22,4.22,0,0,0-1.49-.67,18.28,18.28,0,0,0,4.18-4.61,6.53,6.53,0,0,0,.92-2.1,7.49,7.49,0,0,1,1.82.82.33.33,0,0,1,.16.27.31.31,0,0,1-.18.26,1.56,1.56,0,0,0-.38.42l-.52.78Z"/><path class="cls-6" d="M104.57,131.75c-.77,0-1.55,0-2.33.06-.14,0-.2-.09-.23-.3a11.22,11.22,0,0,1-.17-1.57,25.59,25.59,0,0,0,2.86.13H110a1.72,1.72,0,0,0,.83-.17.29.29,0,0,1,.2-.1.41.41,0,0,1,.23.11,10,10,0,0,1,1,1,.43.43,0,0,1,.16.32.39.39,0,0,1-.17.3,1.73,1.73,0,0,0-.53.73,13.62,13.62,0,0,1-6.34,6.87.81.81,0,0,1-.32.11.52.52,0,0,1-.34-.19,4.86,4.86,0,0,0-1.44-.81,12.12,12.12,0,0,0,6.53-6.48Zm1.05-3.35c-.7,0-1.48,0-2.13.07-.16,0-.21-.1-.22-.35a12.62,12.62,0,0,1-.08-1.49,22.19,22.19,0,0,0,2.55.11h2.8c1,0,1.83,0,2.44-.08.14,0,.19.08.19.25a8.14,8.14,0,0,1,0,1.21c0,.27,0,.33-.28.31-.52,0-1.25,0-2.2,0Z"/><path class="cls-6" d="M124.65,128.65c.73,0,1,0,1.17-.17a.34.34,0,0,1,.21-.08.54.54,0,0,1,.35.16,7.73,7.73,0,0,1,1,1,.33.33,0,0,1,.11.24.56.56,0,0,1-.16.34,1.75,1.75,0,0,0-.34.76,17.15,17.15,0,0,1-2,4.57,12.86,12.86,0,0,1-4,3.81.45.45,0,0,1-.25.09.6.6,0,0,1-.33-.15,5.24,5.24,0,0,0-1.55-.7,11.41,11.41,0,0,0,4.45-3.87,12.93,12.93,0,0,0,1.8-4.34h-6.76v1.31c0,.62,0,1.25,0,1.88,0,.25,0,.29-.25.29a11.37,11.37,0,0,1-1.43,0c-.2,0-.25,0-.25-.23,0-.79,0-1.31,0-1.93v-1.26c0-.5,0-1.06,0-1.51,0-.14.08-.2.22-.2.73,0,1.59,0,2.37,0h1.58v-.61a8.7,8.7,0,0,0-.15-2.07,17.39,17.39,0,0,1,1.92.24c.31.06.41.23.28.48a3.43,3.43,0,0,0-.18,1.2v.74Z"/><path class="cls-6" d="M134.92,130.58a22.34,22.34,0,0,1,4.94,2.11c.17.1.25.21.17.41a8.93,8.93,0,0,1-.67,1.35c-.06.11-.12.17-.2.17a.22.22,0,0,1-.17-.07,16.78,16.78,0,0,0-4.09-2V136c0,1,0,1.93.06,3,0,.19-.06.23-.28.23a10.59,10.59,0,0,1-1.38,0c-.22,0-.3,0-.3-.23.05-1.15.07-2.07.07-3.06v-7.65a11.82,11.82,0,0,0-.16-2.31,12.33,12.33,0,0,1,1.94.25c.22,0,.3.14.3.27a.83.83,0,0,1-.13.36,4.38,4.38,0,0,0-.1,1.46Zm3.62-3.82c.08-.07.14-.05.23,0a7.2,7.2,0,0,1,1.48,1.66.16.16,0,0,1-.05.25l-.65.48a.16.16,0,0,1-.26-.05,7.89,7.89,0,0,0-1.58-1.8Zm1.38-1c.1-.06.14,0,.24,0a6.32,6.32,0,0,1,1.47,1.6.18.18,0,0,1,0,.28l-.63.48a.15.15,0,0,1-.26,0,7.34,7.34,0,0,0-1.56-1.79Z"/><path class="cls-6" d="M151.23,135.43h2.22c1,0,2.09,0,3.14-.06.17,0,.25.06.25.25,0,.4,0,.84,0,1.24,0,.2,0,.28-.23.28-.75,0-2.13-.06-3.14-.06h-6.25c-.64,0-1.65,0-2.86.06-.25,0-.28,0-.33-.31a9.26,9.26,0,0,1-.11-1.46c1.12.06,2.3.08,3.3.08h2.11v-5.32h-1.21c-1.12,0-1.77,0-2.41.06-.19,0-.22-.09-.26-.32a7.91,7.91,0,0,1-.13-1.45,25.9,25.9,0,0,0,2.69.06h4.4c1,0,1.8,0,2.72,0,.16,0,.2.08.2.25,0,.39,0,.83,0,1.22,0,.2,0,.29-.21.29-1.05,0-1.81-.06-2.68-.06h-1.21Z"/><path class="cls-6" d="M160.65,127.67a.29.29,0,0,1,.22-.12.37.37,0,0,1,.2.08,15.7,15.7,0,0,1,3,2.2c.1.1.14.16.14.22a.32.32,0,0,1-.09.2c-.23.31-.74.94-1,1.17s-.13.12-.19.12-.12,0-.2-.12a16.32,16.32,0,0,0-3.17-2.53C159.91,128.47,160.36,128,160.65,127.67Zm1.36,8.2a23.29,23.29,0,0,0,4.48-2.9,23.67,23.67,0,0,0,4.26-4.22,6.88,6.88,0,0,0,.43,1.81.75.75,0,0,1,.08.3c0,.14-.08.26-.25.47a25.29,25.29,0,0,1-3.58,3.29,33.63,33.63,0,0,1-4.69,3,5.23,5.23,0,0,0-1,.72.46.46,0,0,1-.28.15.42.42,0,0,1-.27-.17,10.45,10.45,0,0,1-1.24-1.73A9.12,9.12,0,0,0,162,135.87Z"/><path class="cls-6" d="M174.84,130.64c.08-.11.15-.18.29-.15a10.78,10.78,0,0,1,3,1.52c.11.08.17.14.17.23a.54.54,0,0,1-.06.18,6.62,6.62,0,0,1-.69,1.18c-.07.09-.14.15-.2.15a.32.32,0,0,1-.19-.09A13.82,13.82,0,0,0,174,132C174.4,131.34,174.65,130.89,174.84,130.64Zm2.52,5.77a26.73,26.73,0,0,0,4.26-2.69,28.83,28.83,0,0,0,4.48-4.34,7.08,7.08,0,0,0,.45,1.74.92.92,0,0,1,.07.3.48.48,0,0,1-.17.36,28.45,28.45,0,0,1-3.95,3.59,34.81,34.81,0,0,1-4.65,2.92,5.62,5.62,0,0,0-.9.53.36.36,0,0,1-.25.13.44.44,0,0,1-.31-.19,10.52,10.52,0,0,1-1.15-1.59A6.94,6.94,0,0,0,177.36,136.41Zm-.64-9.34c.11-.19.2-.22.39-.13a10.62,10.62,0,0,1,2.92,1.73.24.24,0,0,1,.13.2.37.37,0,0,1-.07.2,6.46,6.46,0,0,1-.79,1.17.17.17,0,0,1-.16.09.44.44,0,0,1-.23-.11,15.06,15.06,0,0,0-3-1.91Zm7.12-.49c.08-.06.14,0,.23,0a6.77,6.77,0,0,1,1.48,1.66.16.16,0,0,1,0,.25l-.66.48c-.11.08-.18.06-.26,0a8.1,8.1,0,0,0-1.57-1.8Zm1.38-1c.1-.06.14,0,.24,0a6.53,6.53,0,0,1,1.47,1.61.18.18,0,0,1,0,.28l-.62.48a.17.17,0,0,1-.27,0,7.29,7.29,0,0,0-1.55-1.79Z"/><path class="cls-6" d="M192.43,137c-1,0-2,0-2.8.08-.16,0-.2-.1-.23-.3a14,14,0,0,1-.14-1.71c1.12.08,2.24.09,3.21.09h5.66c1.73,0,2.79,0,3.5-.07.21,0,.25.07.25.27a10.29,10.29,0,0,1,0,1.36c0,.23,0,.32-.23.32-.75,0-2.35,0-3.41,0Zm1.43-6.61c-1,0-1.67,0-2.38.06-.16,0-.2-.09-.22-.32a10.38,10.38,0,0,1-.09-1.65c1,.07,1.71.09,2.64.09h3.08c1.2,0,2.13-.05,2.8-.08.12,0,.17.08.17.27a10.59,10.59,0,0,1,0,1.38c0,.22-.05.3-.2.3-.73,0-1.73-.05-2.72-.05Z"/><path class="cls-6" d="M207.68,129c-.88,0-1.83.06-2.75.13-.18,0-.25-.1-.28-.24a14.71,14.71,0,0,1-.28-1.68c1.06.08,1.91.11,3.16.11h6.67a3.35,3.35,0,0,0,1.07-.09,1.21,1.21,0,0,1,.3-.11.49.49,0,0,1,.35.22,7.29,7.29,0,0,1,.94,1,.46.46,0,0,1,.12.28.4.4,0,0,1-.22.32,2.24,2.24,0,0,0-.42.45,13.26,13.26,0,0,1-2.73,3,.47.47,0,0,1-.33.14.64.64,0,0,1-.37-.16,3.72,3.72,0,0,0-1.29-.64A11.09,11.09,0,0,0,214.4,129Zm.87,6.07a7.13,7.13,0,0,0,.77-3.67,5.44,5.44,0,0,0-.16-1.47,17.68,17.68,0,0,1,2,.3c.2,0,.26.15.26.29a.57.57,0,0,1-.08.28,1.5,1.5,0,0,0-.14.64,9.51,9.51,0,0,1-.91,4.28,8.13,8.13,0,0,1-2.83,3.09.74.74,0,0,1-.44.16.44.44,0,0,1-.31-.14,4.31,4.31,0,0,0-1.41-.8A6.81,6.81,0,0,0,208.55,135.11Z"/><path class="cls-4" d="M257.74,182.78a14.37,14.37,0,0,1-14.33,14.33H64.87a14.33,14.33,0,1,1,0-28.66H243.41A14.37,14.37,0,0,1,257.74,182.78Z"/><path class="cls-5" d="M257.74,182.78a14.37,14.37,0,0,1-14.33,14.33H64.87a14.33,14.33,0,1,1,0-28.66H243.41A14.37,14.37,0,0,1,257.74,182.78Z"/><path class="cls-6" d="M91,180c.76,0,1.63,0,2.35,0,.18,0,.2.08.22.25a8.42,8.42,0,0,1,0,1.23c0,.2,0,.26-.27.25l-2.24,0h-.63a9.32,9.32,0,0,1-1.2,4.79,7.3,7.3,0,0,1-3.67,2.89,1.15,1.15,0,0,1-.44.14c-.09,0-.17,0-.29-.17a3.58,3.58,0,0,0-1.29-.93c2.2-.68,3.4-1.48,4.2-2.75a7.6,7.6,0,0,0,.91-4H85.32v.56c0,.92,0,1.76.05,2.58,0,.18-.1.21-.27.22a9.84,9.84,0,0,1-1.33,0c-.21,0-.3,0-.28-.22,0-.8.07-1.57.07-2.55v-.59H83.1c-.84,0-2.09.05-2.57.08-.12,0-.17-.09-.18-.29a12,12,0,0,1-.11-1.51c.65,0,1.66.08,2.86.08h.46v-1.14a11.31,11.31,0,0,0-.18-2.29,15.76,15.76,0,0,1,1.89.25c.18,0,.24.11.24.22a1.09,1.09,0,0,1-.1.33,4.19,4.19,0,0,0-.1,1.49V180h3.34V178.5a10,10,0,0,0-.14-2.13,13.72,13.72,0,0,1,1.82.27c.22,0,.28.12.28.24a.7.7,0,0,1-.06.28,4.3,4.3,0,0,0-.12,1.37V180Z"/><path class="cls-6" d="M103.24,185.89c0,1.07,0,2,0,3.23,0,.2-.06.27-.23.27a13.53,13.53,0,0,1-1.56,0c-.17,0-.23-.07-.21-.25,0-1.12.06-2.13.06-3.19v-3.62a26.51,26.51,0,0,1-4.28,3,.38.38,0,0,1-.23.06.44.44,0,0,1-.33-.15,5.72,5.72,0,0,0-1.33-.92,24.49,24.49,0,0,0,4.89-3.19,25.57,25.57,0,0,0,3.32-3.25,4.62,4.62,0,0,0,1-1.6,13.62,13.62,0,0,1,1.72,1.09.27.27,0,0,1,.13.23.47.47,0,0,1-.22.35,4.88,4.88,0,0,0-.93.85,26.65,26.65,0,0,1-1.82,2Z"/><path class="cls-6" d="M111.87,181.67a7.79,7.79,0,0,0,.7-2.3,14.79,14.79,0,0,1,1.93.8.25.25,0,0,1,.18.24.5.5,0,0,1-.15.32,2.91,2.91,0,0,0-.55.94,17,17,0,0,1-3.32,5.23.6.6,0,0,1-.44.23.59.59,0,0,1-.36-.15,4.26,4.26,0,0,0-1.37-.67A13.68,13.68,0,0,0,111.87,181.67Zm5.81-2.11a.4.4,0,0,1,.22-.09.31.31,0,0,1,.23.12A19.39,19.39,0,0,1,122,185.3a.42.42,0,0,1,.06.21.29.29,0,0,1-.16.25,8.81,8.81,0,0,1-1.29.83c-.2.09-.31.06-.37-.14a20.24,20.24,0,0,0-3.84-6Zm1.82-1.87c.08-.06.14,0,.24,0a7.22,7.22,0,0,1,1.47,1.67.15.15,0,0,1,0,.25l-.66.48c-.11.08-.18.06-.26-.05a7.85,7.85,0,0,0-1.57-1.8Zm1.39-1c.09-.06.14,0,.23,0a6.39,6.39,0,0,1,1.48,1.61.17.17,0,0,1,0,.27l-.62.49c-.13.09-.2,0-.27-.05a7.29,7.29,0,0,0-1.55-1.79Z"/><path class="cls-6" d="M127.89,184a12.35,12.35,0,0,0-2.29.19c-.19,0-.31-.1-.36-.33A18.71,18.71,0,0,1,125,182a20.54,20.54,0,0,0,3.36.19h5c1.18,0,2.37,0,3.57,0,.23,0,.28,0,.28.22a11.85,11.85,0,0,1,0,1.46c0,.18-.06.25-.28.23-1.16,0-2.31,0-3.47,0Z"/><path class="cls-6" d="M144,179.65a12.68,12.68,0,0,0-.2-2.73,11,11,0,0,1,2,.31c.2,0,.3.14.3.28a.48.48,0,0,1-.1.25,2.78,2.78,0,0,0-.2,1.38v1.6l4.06-1a2.12,2.12,0,0,0,1.1-.45.4.4,0,0,1,.22-.09.35.35,0,0,1,.22.09,6.12,6.12,0,0,1,1.15,1,.44.44,0,0,1,.14.28.42.42,0,0,1-.2.31,2.23,2.23,0,0,0-.49.61,16.34,16.34,0,0,1-2.47,3.36.6.6,0,0,1-.4.23.51.51,0,0,1-.3-.11,5.69,5.69,0,0,0-1.29-.59,12.66,12.66,0,0,0,2.54-3.11l-4.28,1.09V186c0,.82.28,1.09,2,1.09a24,24,0,0,0,3.76-.34c.22,0,.24.07.27.31a7.18,7.18,0,0,1,.14,1.3c0,.16-.1.22-.33.24a32.82,32.82,0,0,1-3.72.18c-3,0-3.88-.63-3.88-2.73v-3.14l-1,.26a16.41,16.41,0,0,0-2.19.67.67.67,0,0,1-.19.06c-.11,0-.17-.08-.25-.25a12.4,12.4,0,0,1-.62-1.58,24.12,24.12,0,0,0,2.93-.55l1.32-.33Z"/><path class="cls-6" d="M159.85,178.52a7.57,7.57,0,0,0-.63-2,15.29,15.29,0,0,1,2,0c.2,0,.31.07.31.23a3.21,3.21,0,0,0,0,1.12l.23,1.31,1.28-.22c.88-.16,2-.34,2.78-.56.08,0,.14.06.17.17a10.74,10.74,0,0,1,.31,1.34c0,.11-.08.15-.23.17-.72.12-1.82.29-2.6.43l-1.37.25.39,2,2.26-.39a23.31,23.31,0,0,0,2.44-.51c.2-.05.25,0,.26.17a9.73,9.73,0,0,1,.27,1.25.25.25,0,0,1-.24.26c-.46.06-1.4.22-2.5.4l-2.15.38.36,1.72c.22,1,.48,2,.68,2.82,0,.07-.06.12-.2.17a9.82,9.82,0,0,1-1.41.32c-.2,0-.3-.06-.31-.18-.11-.58-.28-1.67-.5-2.66l-.39-1.84-2.11.38c-1.06.18-1.93.37-2.52.53a.25.25,0,0,1-.36-.17c-.16-.46-.31-1-.44-1.54.95-.11,1.78-.24,2.9-.42l2.17-.36-.39-2-1.46.24c-.85.14-1.89.35-2.31.46-.16.05-.24,0-.3-.15a12.57,12.57,0,0,1-.43-1.56c.84-.06,1.69-.17,2.76-.34l1.42-.22Z"/><path class="cls-6" d="M178.65,186.79l1.89,0c.27,0,.33,0,.35.28s0,.69,0,1-.07.31-.3.31h-7.88c-.64,0-1.25,0-2,0-.17,0-.23-.08-.26-.31a7.23,7.23,0,0,1-.08-1.31c.89.06,1.46.06,2.24.06h3.61l.52-3.77h-2.5c-.61,0-1.31,0-1.71,0-.19,0-.25,0-.28-.29s-.08-.83-.11-1.34c1,.05,1.51.08,2.16.08h2.15a2,2,0,0,0,.92-.14.25.25,0,0,1,.17-.06.48.48,0,0,1,.23.09,5.33,5.33,0,0,1,1,.85.44.44,0,0,1,.14.28.4.4,0,0,1-.14.28,1.24,1.24,0,0,0-.31.78l-.48,3.19Z"/><path class="cls-6" d="M184.9,179.06a11,11,0,0,0-.17-2.27,11.32,11.32,0,0,1,1.93.33c.18,0,.26.14.26.25a.71.71,0,0,1-.06.23,3.59,3.59,0,0,0-.17,1.48v3.14c0,.81,0,1.41,0,2,0,.23-.09.31-.34.31h-1.24c-.22,0-.31-.08-.3-.27,0-.54.05-1.44.05-2.11Zm7.32,2.91c0,2.3-.34,3.84-1.26,5.07a8,8,0,0,1-3.42,2.44.88.88,0,0,1-.32.08.51.51,0,0,1-.38-.19,5,5,0,0,0-1.32-1,7.57,7.57,0,0,0,3.8-2.27,6.43,6.43,0,0,0,1-4.15v-2.94a11.37,11.37,0,0,0-.17-2.53,9.74,9.74,0,0,1,2,.34.27.27,0,0,1,.22.26.47.47,0,0,1-.07.25,4.71,4.71,0,0,0-.14,1.7Z"/><path class="cls-6" d="M204,182.44a8.77,8.77,0,0,1-.92,4,7.86,7.86,0,0,1-2.73,2.94,1,1,0,0,1-.47.19.47.47,0,0,1-.33-.16,4.07,4.07,0,0,0-1.38-.82,6.94,6.94,0,0,0,3.09-2.77,6.65,6.65,0,0,0,.8-3.34h-3c-.77,0-1.54,0-2.33.09-.14,0-.19-.09-.2-.3a9,9,0,0,1-.13-1.49c.88.08,1.75.08,2.65.08h7c1.21,0,2.11,0,3-.09.16,0,.17.09.17.31a11.81,11.81,0,0,1,0,1.19c0,.21-.09.27-.23.27-.81,0-1.88-.06-3-.06Zm-3.08-3.61c-.71,0-1.34,0-2.21.06-.2,0-.24-.08-.26-.26-.05-.38-.06-.94-.11-1.5,1.09.07,1.88.08,2.58.08h3.49c.87,0,1.85,0,2.62-.06.16,0,.19.09.19.29a7.23,7.23,0,0,1,0,1.14c0,.22,0,.29-.2.29-.84,0-1.76,0-2.61,0Z"/><path class="cls-6" d="M217.54,186.76c0,.74,0,1.74.05,2.53,0,.19-.08.27-.27.28a8.83,8.83,0,0,1-1.26,0c-.17,0-.26-.09-.24-.28,0-.88,0-1.66,0-2.49v-2.65a20.15,20.15,0,0,1-3.22,2.23.32.32,0,0,1-.2.07.45.45,0,0,1-.31-.16,2.68,2.68,0,0,0-1.12-.78,21.87,21.87,0,0,0,6.45-5,4.31,4.31,0,0,0,.83-1.34,12.24,12.24,0,0,1,1.43.94.41.41,0,0,1,.17.28c0,.11-.08.21-.23.29a3.58,3.58,0,0,0-.7.64c-.41.47-.87,1-1.42,1.51Z"/><path class="cls-4" d="M257.74,32.11a14.37,14.37,0,0,1-14.33,14.33H64.87a14.33,14.33,0,0,1,0-28.66H243.41A14.37,14.37,0,0,1,257.74,32.11Z"/><path class="cls-5" d="M257.74,32.11a14.37,14.37,0,0,1-14.33,14.33H64.87a14.33,14.33,0,0,1,0-28.66H243.41A14.37,14.37,0,0,1,257.74,32.11Z"/><path class="cls-6" d="M80.33,31.84a8.91,8.91,0,0,1-.92,4,7.8,7.8,0,0,1-2.74,2.94.92.92,0,0,1-.46.19.47.47,0,0,1-.33-.16A4.07,4.07,0,0,0,74.5,38a6.94,6.94,0,0,0,3.09-2.77,6.56,6.56,0,0,0,.79-3.35H75.43c-.78,0-1.54.05-2.33.1-.14,0-.19-.1-.2-.3a9,9,0,0,1-.13-1.49c.87.08,1.74.08,2.64.08h7c1.21,0,2.11,0,3-.1.15,0,.17.1.17.32s0,1,0,1.19-.09.27-.23.27c-.81,0-1.89-.07-3-.07Zm-3.08-3.6c-.72,0-1.34,0-2.21.06-.2,0-.25-.08-.26-.26,0-.38-.07-.94-.11-1.5,1.09.07,1.88.08,2.58.08h2.86c.87,0,1.85,0,2.63-.06.15,0,.18.09.18.29a5.43,5.43,0,0,1,0,1.14c0,.22,0,.29-.2.29-.84,0-1.75,0-2.61,0Zm6.68-2.71a.16.16,0,0,1,.22,0,7.24,7.24,0,0,1,1.32,1.8.16.16,0,0,1-.07.25l-.7.42a.16.16,0,0,1-.25-.08A7.66,7.66,0,0,0,83.05,26Zm1.48-.87c.1-.06.14,0,.22.05A6.68,6.68,0,0,1,87,26.45a.19.19,0,0,1-.08.28l-.65.42a.16.16,0,0,1-.26-.08,7.56,7.56,0,0,0-1.39-1.93Z"/><path class="cls-6" d="M91.6,33.32a12,12,0,0,0-2.28.19c-.19,0-.31-.09-.36-.33a16.14,16.14,0,0,1-.23-1.88,19.47,19.47,0,0,0,3.36.19h5c1.18,0,2.38,0,3.58,0,.23,0,.28,0,.28.22a11.85,11.85,0,0,1,0,1.46c0,.19-.06.25-.28.23l-3.47,0Z"/><path class="cls-6" d="M112.41,27.79a1.55,1.55,0,0,0,.86-.24.5.5,0,0,1,.26-.11.53.53,0,0,1,.28.13,5,5,0,0,1,1.06.95.37.37,0,0,1,.12.28.38.38,0,0,1-.17.29,2.2,2.2,0,0,0-.47.59,23.19,23.19,0,0,1-2.28,3.77A12.86,12.86,0,0,1,113.75,35a.3.3,0,0,1,.09.21.32.32,0,0,1-.09.21,10,10,0,0,1-1,1,.34.34,0,0,1-.18.07.26.26,0,0,1-.17-.09,19.53,19.53,0,0,0-1.51-1.51,19,19,0,0,1-5,3.89.84.84,0,0,1-.39.14.51.51,0,0,1-.3-.14A4.31,4.31,0,0,0,103.8,38a18.86,18.86,0,0,0,5.72-4.22,13.18,13.18,0,0,0-2.24-1.46c.34-.37.67-.78,1-1.1a.29.29,0,0,1,.2-.11.36.36,0,0,1,.15.06,17.12,17.12,0,0,1,2,1.24,14.88,14.88,0,0,0,1.82-3.07l-3.86.07a18.37,18.37,0,0,1-3.32,3.5A.57.57,0,0,1,105,33a.33.33,0,0,1-.24-.11,6.74,6.74,0,0,0-1.31-.71,17.47,17.47,0,0,0,4.4-4.88,5.66,5.66,0,0,0,.84-1.92,9.38,9.38,0,0,1,1.82.77.27.27,0,0,1,.17.24.44.44,0,0,1-.19.32,1.08,1.08,0,0,0-.32.32c-.13.22-.22.37-.49.78Z"/><path class="cls-6" d="M128.88,29.34c.76,0,1.63,0,2.35-.05.18,0,.2.08.22.25a8.42,8.42,0,0,1,0,1.23c0,.2,0,.27-.27.25h-2.87a9.31,9.31,0,0,1-1.2,4.78,7.37,7.37,0,0,1-3.67,2.9,1.37,1.37,0,0,1-.44.14c-.09,0-.17,0-.29-.17a3.61,3.61,0,0,0-1.29-.94c2.2-.68,3.4-1.47,4.2-2.75a7.56,7.56,0,0,0,.91-4h-3.31v.56c0,.91,0,1.75,0,2.58,0,.17-.1.2-.27.21a9.84,9.84,0,0,1-1.33,0c-.21,0-.3,0-.28-.21,0-.81.07-1.57.07-2.55V31H121c-.84,0-2.09,0-2.57.07-.12,0-.17-.09-.19-.29a14.8,14.8,0,0,1-.1-1.51c.65,0,1.66.08,2.86.08h.46V28.22a11.15,11.15,0,0,0-.18-2.28,12.45,12.45,0,0,1,1.89.25c.18,0,.24.1.24.21a1,1,0,0,1-.1.33,3.83,3.83,0,0,0-.11,1.49v1.14h3.35V27.83a10,10,0,0,0-.14-2.13,15.6,15.6,0,0,1,1.82.27c.22,0,.28.12.28.25a.77.77,0,0,1-.06.28,4.23,4.23,0,0,0-.12,1.36v1.48Z"/><path class="cls-6" d="M141.14,35.22c0,1.07,0,2,0,3.23,0,.21-.06.27-.23.27a13.53,13.53,0,0,1-1.56,0c-.17,0-.23-.06-.21-.25,0-1.12.06-2.13.06-3.19V31.66a26.51,26.51,0,0,1-4.28,3,.39.39,0,0,1-.23.07.45.45,0,0,1-.33-.16,5.72,5.72,0,0,0-1.33-.92A24.93,24.93,0,0,0,138,30.45a26.23,26.23,0,0,0,3.32-3.25,4.75,4.75,0,0,0,1-1.61A13.62,13.62,0,0,1,144,26.68a.28.28,0,0,1,.13.24.47.47,0,0,1-.22.34,4.88,4.88,0,0,0-.93.85,26.65,26.65,0,0,1-1.82,2Z"/><path class="cls-6" d="M154.14,35h2.22c1,0,2.08,0,3.14-.07.17,0,.25.07.25.25,0,.41,0,.84,0,1.25,0,.2-.05.28-.23.28-.75,0-2.13-.07-3.14-.07h-6.25c-.64,0-1.65,0-2.86.07-.25,0-.28-.05-.33-.31a9.5,9.5,0,0,1-.11-1.47c1.12.07,2.3.08,3.3.08h2.11V29.68H151c-1.12,0-1.77,0-2.41.07-.19,0-.22-.1-.27-.33a9,9,0,0,1-.12-1.45,25.39,25.39,0,0,0,2.69.07h4.4c1,0,1.8,0,2.72-.05.16,0,.2.08.2.25,0,.39,0,.82,0,1.21,0,.2,0,.3-.22.3-1-.05-1.8-.07-2.67-.07h-1.21Z"/><path class="cls-6" d="M163.56,27.23a.31.31,0,0,1,.22-.13.4.4,0,0,1,.2.08,15.79,15.79,0,0,1,3,2.21c.1.09.14.15.14.22a.35.35,0,0,1-.09.2c-.23.31-.75.93-1,1.16s-.13.13-.19.13a.31.31,0,0,1-.2-.13,16.68,16.68,0,0,0-3.18-2.53C162.82,28,163.27,27.54,163.56,27.23Zm1.36,8.19a23.17,23.17,0,0,0,4.47-2.89,23.38,23.38,0,0,0,4.26-4.23,7.24,7.24,0,0,0,.44,1.82.71.71,0,0,1,.08.29.77.77,0,0,1-.25.47,25.86,25.86,0,0,1-3.58,3.3,32.8,32.8,0,0,1-4.69,3,5.48,5.48,0,0,0-1.05.72.43.43,0,0,1-.28.16.42.42,0,0,1-.26-.18,10.34,10.34,0,0,1-1.24-1.72A9.66,9.66,0,0,0,164.92,35.42Z"/><path class="cls-6" d="M184.35,31.77a8.9,8.9,0,0,1-.91,4,7.8,7.8,0,0,1-2.74,2.94,1,1,0,0,1-.47.19.47.47,0,0,1-.32-.16,4,4,0,0,0-1.39-.82,6.92,6.92,0,0,0,3.1-2.77,6.65,6.65,0,0,0,.79-3.34h-2.95c-.78,0-1.54,0-2.33.09-.15,0-.19-.09-.21-.29a10.47,10.47,0,0,1-.12-1.5c.87.08,1.74.08,2.64.08h7c1.22,0,2.12,0,3-.09.15,0,.17.09.17.31s0,1,0,1.2-.1.26-.24.26c-.81,0-1.88-.06-2.95-.06Zm-3.07-3.61c-.72,0-1.34,0-2.21.06-.2,0-.25-.08-.27-.26,0-.38-.06-.94-.1-1.49,1.08.06,1.88.07,2.58.07h3.48c.87,0,1.85,0,2.63-.06.15,0,.18.09.18.3a7.11,7.11,0,0,1,0,1.13c0,.22,0,.3-.2.3-.84,0-1.76-.05-2.61-.05Z"/><path class="cls-6" d="M197.92,36.09c0,.75,0,1.74,0,2.53,0,.19-.07.27-.26.28a6.63,6.63,0,0,1-1.26,0,.23.23,0,0,1-.25-.28c0-.88.05-1.66.05-2.48V33.48A22,22,0,0,1,193,35.72a.39.39,0,0,1-.2.06.4.4,0,0,1-.31-.16,2.75,2.75,0,0,0-1.12-.77,22.2,22.2,0,0,0,6.45-5.06,4.35,4.35,0,0,0,.82-1.33,12.38,12.38,0,0,1,1.43.93.41.41,0,0,1,.17.28A.33.33,0,0,1,200,30a4.3,4.3,0,0,0-.7.64c-.4.47-.87,1-1.41,1.51Z"/><path class="cls-6" d="M211.54,27.32a2.32,2.32,0,0,0,1.07-.14.24.24,0,0,1,.17-.06.54.54,0,0,1,.27.12,6.24,6.24,0,0,1,1,1.09.52.52,0,0,1,.08.2.42.42,0,0,1-.21.31,3.08,3.08,0,0,0-.57.69,25.67,25.67,0,0,1-2,2.91,36.8,36.8,0,0,1,4.31,3.76.37.37,0,0,1,.12.22.37.37,0,0,1-.11.23,8.63,8.63,0,0,1-1,1.06.28.28,0,0,1-.19.09.35.35,0,0,1-.22-.12,27.43,27.43,0,0,0-4-3.86,22.38,22.38,0,0,1-5.22,4.1.88.88,0,0,1-.36.13.34.34,0,0,1-.26-.14,4.41,4.41,0,0,0-1.31-1,18.83,18.83,0,0,0,5.47-4,19,19,0,0,0,2.93-3.9l-4,0c-.8,0-1.61,0-2.45.09-.13,0-.17-.09-.21-.26a10.1,10.1,0,0,1-.13-1.62c.83.06,1.61.06,2.62.06Z"/><path class="cls-6" d="M222.82,30.13a22.36,22.36,0,0,1,4.94,2.12c.17.09.25.2.17.4a8.62,8.62,0,0,1-.67,1.36c-.06.11-.12.17-.2.17a.24.24,0,0,1-.17-.08,17.15,17.15,0,0,0-4.09-2v3.44c0,1,0,1.92.06,3,0,.19-.06.24-.28.24a10.59,10.59,0,0,1-1.38,0c-.22,0-.3,0-.3-.24,0-1.15.07-2.06.07-3.06V27.88a11.64,11.64,0,0,0-.16-2.3,11.25,11.25,0,0,1,1.94.25c.22,0,.3.14.3.26a.79.79,0,0,1-.13.36,4.38,4.38,0,0,0-.1,1.46Z"/><path class="cls-4" d="M257.74,82.33a14.37,14.37,0,0,1-14.33,14.33H64.87a14.33,14.33,0,1,1,0-28.65H243.41A14.37,14.37,0,0,1,257.74,82.33Z"/><path class="cls-5" d="M257.74,82.33a14.37,14.37,0,0,1-14.33,14.33H64.87a14.33,14.33,0,1,1,0-28.65H243.41A14.37,14.37,0,0,1,257.74,82.33Z"/><path class="cls-6" d="M74.84,86.53v.92c0,.26-.06.29-.34.31H73.27c-.27,0-.34-.05-.33-.23,0-.81,0-1.92,0-3.1V80.62c0-.84,0-1.68,0-2.58,0-.15.06-.22.17-.22.82.05,1.74.05,2.78.05h3.7c1,0,2.19,0,2.93,0,.17,0,.21.08.2.31,0,.76,0,1.6,0,2.52v3.71c0,1.36,0,2.12.08,3,0,.22-.08.26-.3.26-.46,0-1,0-1.43,0-.18,0-.2,0-.2-.25v-.82Zm6-7H74.82v5.36h6.05Z"/><path class="cls-6" d="M90.25,82.89c.14.1.23.19.23.3s0,.15-.17.25a1.6,1.6,0,0,0-.39.52,11.5,11.5,0,0,1-1.72,2.6.41.41,0,0,1-.31.19.45.45,0,0,1-.24-.1A4.61,4.61,0,0,0,86.33,86a10.43,10.43,0,0,0,1.88-2.56,3.24,3.24,0,0,0,.42-1.26A7.11,7.11,0,0,1,90.25,82.89Zm2.07-4.27a12,12,0,0,0-.17-2.4c.73.06,1.54.16,1.93.23.18,0,.28.11.28.24a.63.63,0,0,1-.1.28,3.62,3.62,0,0,0-.15,1.55v.83H96c1.35,0,2.41-.07,3.17-.1.14,0,.2.08.2.25a9.93,9.93,0,0,1,0,1.22c0,.2-.06.31-.22.29-1,0-2.15-.08-3.2-.08H94.12l0,3.14c0,.83,0,1.5,0,2.71a1.62,1.62,0,0,1-.92,1.6,4.76,4.76,0,0,1-2,.51c-.18,0-.28-.09-.37-.32a3.55,3.55,0,0,0-1-1.4A7.46,7.46,0,0,0,92,87c.25-.11.36-.28.36-.68V80.93H89.88c-.89,0-2,0-2.69.11-.14,0-.2-.12-.2-.31s-.07-1-.07-1.49c1.19.09,2.13.11,2.93.11h2.47Zm4.57,3.71a.32.32,0,0,1,.2-.08.31.31,0,0,1,.24.14,12.38,12.38,0,0,1,2.22,2.85.42.42,0,0,1,.08.23.3.3,0,0,1-.16.25,8.53,8.53,0,0,1-1,.78.45.45,0,0,1-.19.09c-.06,0-.11,0-.17-.15a15.23,15.23,0,0,0-2.36-3.27C96.13,82.86,96.53,82.6,96.89,82.33Zm.19-6.12c.07-.07.14,0,.23,0a7.2,7.2,0,0,1,1.48,1.66.16.16,0,0,1-.05.25l-.65.48c-.11.08-.19.06-.27,0a7.62,7.62,0,0,0-1.57-1.8Zm1.38-1c.09-.07.14,0,.23,0a6.19,6.19,0,0,1,1.48,1.6.18.18,0,0,1,0,.28l-.62.48a.15.15,0,0,1-.26,0,7.11,7.11,0,0,0-1.56-1.78Z"/><path class="cls-6" d="M110,82a8.9,8.9,0,0,1-.92,4,7.73,7.73,0,0,1-2.74,2.94.92.92,0,0,1-.46.19.47.47,0,0,1-.33-.16,4.07,4.07,0,0,0-1.38-.82,6.89,6.89,0,0,0,3.09-2.77,6.5,6.5,0,0,0,.79-3.34h-2.95c-.78,0-1.54.05-2.33.09-.14,0-.19-.09-.21-.29a10.45,10.45,0,0,1-.12-1.49c.87.07,1.74.07,2.64.07h7c1.21,0,2.11,0,3-.09.15,0,.17.09.17.31s0,1,0,1.2-.1.26-.23.26c-.81,0-1.89-.06-3-.06Zm-3.08-3.61c-.72,0-1.34,0-2.21.06-.2,0-.25-.07-.26-.26,0-.37-.07-.93-.11-1.49,1.09.06,1.88.08,2.58.08h3.48c.87,0,1.85,0,2.63-.07.15,0,.19.1.19.3a7.11,7.11,0,0,1,0,1.13c0,.22,0,.3-.21.3-.84,0-1.75-.05-2.61-.05Z"/><path class="cls-6" d="M123.58,86.31c0,.75,0,1.74,0,2.54,0,.18-.07.26-.26.28a8.83,8.83,0,0,1-1.26,0c-.17,0-.26-.1-.25-.28,0-.89.05-1.67.05-2.49V83.7a20.53,20.53,0,0,1-3.22,2.24.31.31,0,0,1-.2.06.42.42,0,0,1-.31-.15,2.68,2.68,0,0,0-1.12-.78,22.33,22.33,0,0,0,6.45-5,4.28,4.28,0,0,0,.82-1.34,11.56,11.56,0,0,1,1.43.93.43.43,0,0,1,.18.28.36.36,0,0,1-.24.3,4.24,4.24,0,0,0-.7.63c-.4.47-.87,1-1.41,1.51Z"/><path class="cls-6" d="M137.64,78.35a1.46,1.46,0,0,0,.77-.18.33.33,0,0,1,.21-.07.45.45,0,0,1,.25.1,6.67,6.67,0,0,1,1,.84.48.48,0,0,1,.2.35.43.43,0,0,1-.18.33,1.86,1.86,0,0,0-.52.67,21.46,21.46,0,0,1-3.07,4.8,19.63,19.63,0,0,1-4.73,3.87.37.37,0,0,1-.25.08A.57.57,0,0,1,131,89a4.11,4.11,0,0,0-1.47-.71,17.92,17.92,0,0,0,5.17-4,15.74,15.74,0,0,0,2.88-4.41l-3.76.1a22.32,22.32,0,0,1-2.94,3.19.48.48,0,0,1-.33.17.37.37,0,0,1-.23-.09,4.22,4.22,0,0,0-1.49-.67A18.3,18.3,0,0,0,133,78a6.9,6.9,0,0,0,.92-2.1,7.81,7.81,0,0,1,1.82.83.34.34,0,0,1,.15.26.32.32,0,0,1-.17.27,1.58,1.58,0,0,0-.39.42l-.51.77Z"/><path class="cls-6" d="M151.4,77.54a2.19,2.19,0,0,0,1.07-.14.32.32,0,0,1,.17-.06.46.46,0,0,1,.27.13,5.81,5.81,0,0,1,1,1.08.4.4,0,0,1,.08.21.47.47,0,0,1-.2.31,2.63,2.63,0,0,0-.58.68,24.42,24.42,0,0,1-2,2.91,36.92,36.92,0,0,1,4.31,3.76.4.4,0,0,1,.12.22.37.37,0,0,1-.11.23,8,8,0,0,1-1,1.06.26.26,0,0,1-.19.09.29.29,0,0,1-.21-.12A28.54,28.54,0,0,0,150.06,84a22.24,22.24,0,0,1-5.22,4.11,1,1,0,0,1-.36.12.31.31,0,0,1-.26-.14,4.29,4.29,0,0,0-1.31-1,18.86,18.86,0,0,0,5.47-4,19.09,19.09,0,0,0,2.93-3.91l-4,0c-.81,0-1.62,0-2.46.09-.13,0-.17-.09-.2-.26a8.87,8.87,0,0,1-.14-1.62c.84.06,1.61.06,2.62.06Z"/><path class="cls-6" d="M165.86,85.21h2.23c1,0,2.08,0,3.14-.06.17,0,.25.06.25.25,0,.4,0,.83,0,1.24,0,.2,0,.28-.24.28-.74,0-2.13-.06-3.14-.06h-6.25c-.64,0-1.65,0-2.86.06-.25,0-.28,0-.33-.31a9.43,9.43,0,0,1-.1-1.46c1.12.06,2.3.07,3.29.07H164V79.91h-1.22c-1.12,0-1.77,0-2.41.06-.18,0-.21-.09-.26-.33A8.78,8.78,0,0,1,160,78.2c.78.07,1.4.06,2.69.06h4.41c.94,0,1.8,0,2.72-.05.15,0,.2.08.2.25,0,.39,0,.82,0,1.21,0,.21-.05.3-.22.3-1,0-1.8-.06-2.67-.06h-1.22Z"/><path class="cls-6" d="M175.29,77.45a.28.28,0,0,1,.22-.12.48.48,0,0,1,.2.07,16.46,16.46,0,0,1,3,2.21c.09.09.14.16.14.22a.35.35,0,0,1-.09.2c-.24.31-.75.93-1,1.17-.08.07-.12.12-.18.12s-.13,0-.21-.12a16.37,16.37,0,0,0-3.17-2.54C174.54,78.24,175,77.76,175.29,77.45Zm1.35,8.19a27.17,27.17,0,0,0,8.74-7.12,6.47,6.47,0,0,0,.44,1.82.87.87,0,0,1,.07.3c0,.14-.07.26-.25.46a25.12,25.12,0,0,1-3.57,3.3,33.82,33.82,0,0,1-4.7,3,5.42,5.42,0,0,0-1,.71.41.41,0,0,1-.28.16.38.38,0,0,1-.26-.17,11.57,11.57,0,0,1-1.25-1.73A9.29,9.29,0,0,0,176.64,85.64Z"/><path class="cls-6" d="M189.47,80.42c.08-.11.16-.19.3-.16a10.73,10.73,0,0,1,3,1.53c.11.08.18.14.18.23a.47.47,0,0,1-.07.17,6,6,0,0,1-.68,1.18c-.08.1-.14.16-.2.16s-.11,0-.19-.09a13.85,13.85,0,0,0-3.14-1.7C189,81.12,189.29,80.67,189.47,80.42ZM192,86.19a26.29,26.29,0,0,0,4.26-2.69,28,28,0,0,0,4.48-4.34,7.82,7.82,0,0,0,.45,1.74.71.71,0,0,1,.08.3.48.48,0,0,1-.17.35,29.73,29.73,0,0,1-4,3.6,36.56,36.56,0,0,1-4.65,2.92,4.62,4.62,0,0,0-.9.53.36.36,0,0,1-.25.12.39.39,0,0,1-.31-.18A9.71,9.71,0,0,1,189.88,87,7.27,7.27,0,0,0,192,86.19Zm-.64-9.35c.11-.18.21-.21.39-.12a10.64,10.64,0,0,1,2.93,1.72.26.26,0,0,1,.12.21.45.45,0,0,1-.06.2,7,7,0,0,1-.79,1.17.19.19,0,0,1-.16.09.38.38,0,0,1-.23-.11,14.86,14.86,0,0,0-3-1.91C190.79,77.68,191.09,77.25,191.35,76.84Zm7.13-.48c.07-.06.14,0,.23,0a7.48,7.48,0,0,1,1.48,1.67.16.16,0,0,1-.05.25l-.65.48a.17.17,0,0,1-.27-.05,7.43,7.43,0,0,0-1.57-1.8Zm1.38-1c.09-.06.14,0,.23,0a6.53,6.53,0,0,1,1.48,1.6c.06.1.08.19,0,.28l-.62.49a.16.16,0,0,1-.26,0,7.34,7.34,0,0,0-1.56-1.79Z"/><path class="cls-6" d="M207.06,86.79c-1,0-2,0-2.8.08-.15,0-.2-.09-.23-.29-.06-.36-.09-.89-.14-1.71,1.12.07,2.24.09,3.22.09h5.66c1.72,0,2.78,0,3.5-.08.2,0,.24.08.24.28a7.61,7.61,0,0,1,0,1.35c0,.24,0,.33-.23.33-.74,0-2.35,0-3.4,0Zm1.43-6.6c-1,0-1.66,0-2.38.06-.15,0-.2-.09-.21-.33a10.14,10.14,0,0,1-.1-1.65c1,.08,1.71.1,2.65.1h3.07c1.2,0,2.13-.05,2.8-.08.13,0,.17.08.17.26a10.75,10.75,0,0,1,0,1.39c0,.22,0,.29-.2.29-.73,0-1.72,0-2.72,0Z"/><path class="cls-6" d="M222.32,78.82c-.89,0-1.84.06-2.75.12-.19,0-.25-.09-.28-.23A13.08,13.08,0,0,1,219,77c1.05.08,1.91.11,3.15.11h6.67a3.44,3.44,0,0,0,1.08-.09.79.79,0,0,1,.29-.11.53.53,0,0,1,.36.21,8.62,8.62,0,0,1,.93,1,.47.47,0,0,1,.13.28.4.4,0,0,1-.22.33,1.8,1.8,0,0,0-.42.45,13,13,0,0,1-2.74,3,.41.41,0,0,1-.32.14.63.63,0,0,1-.38-.15,3.55,3.55,0,0,0-1.29-.64A11,11,0,0,0,229,78.82Zm.87,6.06a7.19,7.19,0,0,0,.76-3.67,5.84,5.84,0,0,0-.15-1.46,17.11,17.11,0,0,1,2,.3c.2,0,.27.15.27.29a.69.69,0,0,1-.08.28,1.37,1.37,0,0,0-.14.64,9.52,9.52,0,0,1-.92,4.28,8.13,8.13,0,0,1-2.83,3.09.8.8,0,0,1-.43.15.44.44,0,0,1-.32-.14,4.49,4.49,0,0,0-1.41-.79A6.86,6.86,0,0,0,223.19,84.88Z"/></g></g></svg>