<svg xmlns="http://www.w3.org/2000/svg" xmlns:xlink="http://www.w3.org/1999/xlink" viewBox="0 0 308.28 210.6"><defs><style>.cls-1,.cls-5{fill:none;}.cls-2{fill:#fbe3d5;}.cls-3{fill:url(#新規パターンスウォッチ_2);}.cls-4{fill:#fff;}.cls-5{stroke:#e6290f;stroke-miterlimit:10;stroke-width:0.66px;}.cls-6{fill:#231815;}</style><pattern id="新規パターンスウォッチ_2" data-name="新規パターンスウォッチ 2" width="5.67" height="5.67" patternTransform="translate(52.37 5.16) scale(1.56 1.57)" patternUnits="userSpaceOnUse" viewBox="0 0 5.67 5.67"><rect class="cls-1" width="5.67" height="5.67"/><circle class="cls-2" cx="2.83" cy="2.83" r="0.71"/><rect class="cls-1" width="5.67" height="5.67"/></pattern></defs><g id="レイヤー_2" data-name="レイヤー 2"><g id="レイヤー_1-2" data-name="レイヤー 1"><rect class="cls-3" width="308.28" height="210.6"/><path class="cls-4" d="M257.74,153.36a14.37,14.37,0,0,1-14.33,14.33H64.87a14.33,14.33,0,0,1,0-28.66H243.41A14.37,14.37,0,0,1,257.74,153.36Z"/><path class="cls-5" d="M257.74,153.36a14.37,14.37,0,0,1-14.33,14.33H64.87a14.33,14.33,0,0,1,0-28.66H243.41A14.37,14.37,0,0,1,257.74,153.36Z"/><path class="cls-6" d="M70.74,155.49a.85.85,0,0,1,.13.37c0,.09-.07.16-.21.31a29.89,29.89,0,0,1-2.6,2,2.25,2.25,0,0,0-.39.31.27.27,0,0,1-.2.12c-.06,0-.15-.08-.22-.18-.19-.29-.49-.73-.72-1.16a6.72,6.72,0,0,0,1-.5,21.54,21.54,0,0,0,2.87-2.21A5.54,5.54,0,0,0,70.74,155.49ZM68,149.38c.07,0,.11-.08.15-.08a.3.3,0,0,1,.11.07,12.8,12.8,0,0,1,1.8,1.88c.08.11.08.13,0,.25l-.76.7c-.15.13-.18.15-.26,0a10.2,10.2,0,0,0-1.79-2c-.1-.09-.09-.11.05-.23Zm10,10.61c-.12.21-.16.3-.26.3a.83.83,0,0,1-.31-.12,7.45,7.45,0,0,1-3.64-3.94,7.12,7.12,0,0,1-3.92,4.05,1,1,0,0,1-.29.1c-.11,0-.15-.08-.26-.29a3.63,3.63,0,0,0-.69-.83c2.77-1,4.26-2.92,4.26-5.43a7.15,7.15,0,0,0-.1-1.35c.46,0,.91,0,1.37.07.15,0,.21.07.21.16a.58.58,0,0,1-.08.29,2.2,2.2,0,0,0-.07.75c.43,2.85,2.1,4.34,4.47,5.29A3.47,3.47,0,0,0,78.07,160Zm-5.67-8.22a12.75,12.75,0,0,1-1.26,2c-.13.16-.19.24-.26.24s-.14-.07-.3-.2a3.35,3.35,0,0,0-.9-.54,9.39,9.39,0,0,0,2.18-3.64,6.55,6.55,0,0,0,.23-1.17,12.43,12.43,0,0,1,1.33.27c.15,0,.23.1.23.18a.34.34,0,0,1-.13.24,1.57,1.57,0,0,0-.26.58c-.09.26-.2.52-.3.78h4a.66.66,0,0,0,.31-.05.53.53,0,0,1,.2-.05c.09,0,.17,0,.57.37s.4.43.4.54a.27.27,0,0,1-.09.21,1.1,1.1,0,0,0-.23.39,15.59,15.59,0,0,1-1.37,2.39c-.11.18-.16.27-.26.27s-.15-.06-.31-.17a3.75,3.75,0,0,0-.87-.4,8.5,8.5,0,0,0,1.44-2.28Z"/><path class="cls-6" d="M82.18,153c-1.13,0-1.52,0-1.6,0s-.13,0-.13-.14v-1c0-.13,0-.15.13-.15s.47,0,1.6,0h0v-1a17.82,17.82,0,0,0-.09-1.88,12.49,12.49,0,0,1,1.42.1c.13,0,.19.08.19.14a1.44,1.44,0,0,1-.08.33,7.49,7.49,0,0,0,0,1.3v1h2V150.6a14.14,14.14,0,0,0-.1-1.76,12.44,12.44,0,0,1,1.37.09c.12,0,.18.07.18.14a1.69,1.69,0,0,1-.08.34A6.78,6.78,0,0,0,87,150.6v1.16H89v-1.14a14.32,14.32,0,0,0-.09-1.78,12.46,12.46,0,0,1,1.38.09c.13,0,.19.07.19.14a1.21,1.21,0,0,1-.09.34,7,7,0,0,0-.05,1.22v1.13h.2c1.13,0,1.5,0,1.59,0s.13,0,.13.15v1c0,.13,0,.14-.13.14s-.46,0-1.59,0h-.2v1.71c0,1.45,0,2.16,0,2.24s0,.14-.15.14H89.18c-.13,0-.14,0-.14-.14v-.6H87V157c0,.13,0,.14-.14.14H85.74c-.12,0-.13,0-.13-.14s0-.78,0-2.2V153h-2v5.34h6.15c1.27,0,1.72,0,1.79,0s.15,0,.15.14v1c0,.13,0,.14-.15.14s-.52,0-1.79,0H83.62v.57c0,.13,0,.14-.16.14H82.35c-.13,0-.15,0-.15-.14s0-.64,0-1.8V153ZM89,153H87v2.18H89Z"/><path class="cls-6" d="M95.79,155.4c0-.43,0-1,0-1.46-.31.42-.65.82-1,1.2-.11.12-.19.18-.25.18s-.13-.06-.17-.22a4.39,4.39,0,0,0-.49-1.16,12.06,12.06,0,0,0,2.79-4.48,5.61,5.61,0,0,0,.22-.92,11.48,11.48,0,0,1,1.25.41c.14.07.21.11.21.2s0,.14-.14.23a1,1,0,0,0-.26.52,16,16,0,0,1-.85,1.9v6.51c0,1.26,0,1.9,0,2s0,.14-.16.14H95.92c-.14,0-.16,0-.16-.14s0-.71,0-2Zm8-3.34c1.19-.13,1.64-.21,1.77-.22s.14,0,.16.13l.07,1c0,.13,0,.14-.13.16l-1.78.19-2,.22a11.29,11.29,0,0,0,.84,3c.59,1.41,1.22,2.06,1.54,2.06s.43-.51.56-1.83a2.87,2.87,0,0,0,.85.52c.39.16.37.19.31.58-.25,1.66-.76,2.41-1.55,2.41-1.21,0-2.26-1.46-3-3.15a14.6,14.6,0,0,1-.93-3.43l-.88.09c-1.18.12-1.62.21-1.74.22s-.16,0-.17-.14l-.1-1c0-.14,0-.14.14-.16l1.75-.15.85-.09c0-.63-.11-1.25-.13-1.9a16,16,0,0,0-.14-1.85,13,13,0,0,1,1.39.08c.14,0,.22.08.22.16a.61.61,0,0,1-.08.27,4.64,4.64,0,0,0,0,1.3c0,.6,0,1.2.12,1.78Zm-.57-3c.07,0,.1-.08.14-.08s.07,0,.12.08a8.77,8.77,0,0,1,1.43,1.53c.09.12.09.16-.06.29l-.75.53c-.06.05-.11.09-.14.09s-.06,0-.1-.09a9.24,9.24,0,0,0-1.38-1.62.17.17,0,0,1-.08-.12s0-.08.13-.13Z"/><path class="cls-6" d="M111.94,152.7c.16-.07.2,0,.27.09a12.44,12.44,0,0,1,.87,2.34c0,.14,0,.18-.16.23l-.65.2c-.15.05-.19,0-.22-.11l-.14-.56-.81.08v3.58c0,1.19,0,1.63,0,1.7s0,.14-.14.14h-1c-.13,0-.15,0-.15-.14s0-.51,0-1.7v-3.46l-1.18.08a1.19,1.19,0,0,0-.48.1.4.4,0,0,1-.2.07c-.09,0-.12-.1-.14-.23a9.17,9.17,0,0,1-.18-1.09,10,10,0,0,0,1.1,0c.25-.31.5-.65.73-1a19.28,19.28,0,0,0-1.74-1.88c-.05-.06-.08-.08-.08-.12s0-.09.09-.17l.46-.65c0-.08.09-.12.13-.12s.06,0,.11.08l.34.35a12.06,12.06,0,0,0,.7-1.34,3.73,3.73,0,0,0,.3-.8c.35.13.78.3,1.11.46.13.07.17.13.17.21s-.06.12-.12.17a.82.82,0,0,0-.25.31,17.65,17.65,0,0,1-1.14,1.8c.21.23.41.45.61.69.3-.48.58-1,.87-1.45a5.74,5.74,0,0,0,.39-.89,10,10,0,0,1,1.09.56c.12.06.16.11.16.19s0,.14-.15.2a1.57,1.57,0,0,0-.42.52c-.67,1-1.37,2-2,2.82l1.41-.11c-.09-.24-.2-.5-.31-.75s-.06-.16.13-.24Zm-3.72,3.87a3.52,3.52,0,0,0,0-.73c.32,0,.78.13,1,.18s.22.1.22.16a.3.3,0,0,1-.06.18,1.34,1.34,0,0,0-.08.43,15,15,0,0,1-.46,2.42c-.06.21-.1.29-.18.29a.5.5,0,0,1-.23-.11,5.16,5.16,0,0,0-.74-.34A10.86,10.86,0,0,0,108.22,156.57Zm4-.71c.16,0,.17,0,.22.11a11.45,11.45,0,0,1,.49,2.17c0,.15,0,.19-.17.24l-.63.17c-.21,0-.22,0-.23-.09a14.14,14.14,0,0,0-.42-2.25c0-.15,0-.17.16-.21Zm4.35,1.26v1.71h1.22c1.23,0,1.65,0,1.71,0s.16,0,.16.13v.92c0,.13,0,.14-.16.14s-.48,0-1.71,0h-3.57c-1.24,0-1.66,0-1.74,0s-.14,0-.14-.14v-.92c0-.12,0-.13.14-.13s.5,0,1.74,0h1.07v-1.71h-.4c-1.11,0-1.48,0-1.56,0s-.15,0-.15-.14v-.87c0-.13,0-.14.15-.14s.45,0,1.56,0h.4v-.28a6.69,6.69,0,0,0-.08-1.36c.48,0,.85.06,1.29.11.13,0,.21.08.21.14a.55.55,0,0,1-.07.23,2.44,2.44,0,0,0-.07.81V156h.75c1.1,0,1.48,0,1.56,0s.15,0,.15.14V157c0,.13,0,.14-.15.14s-.46,0-1.56,0Zm1.11-8a.52.52,0,0,0,.3-.07.34.34,0,0,1,.17-.05c.09,0,.26.09.55.35s.43.43.43.52,0,.13-.16.22a2,2,0,0,0-.36.56,7.85,7.85,0,0,1-1.52,2.13,9.18,9.18,0,0,0,2.58.87,3.17,3.17,0,0,0-.45,1c-.07.24-.09.32-.21.32a1.33,1.33,0,0,1-.3-.07,9.6,9.6,0,0,1-2.64-1.23,10.65,10.65,0,0,1-2.24,1.13,1.23,1.23,0,0,1-.32.09c-.1,0-.16-.08-.25-.27a2.9,2.9,0,0,0-.56-.82,10.12,10.12,0,0,0,2.38-1,7.66,7.66,0,0,1-1.6-2.56,5,5,0,0,1-.67,0c-.13,0-.15,0-.15-.13v-.87c0-.13,0-.14.15-.14s.45,0,1.62,0Zm-2.92,1.09a5.68,5.68,0,0,0,1.3,1.86,5.24,5.24,0,0,0,1.34-1.86Z"/><path class="cls-6" d="M124.13,148.6c.17-.06.21,0,.29.05a7.25,7.25,0,0,1,.75,1.23c.06.11.06.13-.12.19l-.91.3h5.19a10.09,10.09,0,0,0,.66-1.25,5,5,0,0,0,.21-.65,11.39,11.39,0,0,1,1.24.38c.11.05.16.09.16.17a.28.28,0,0,1-.11.22,1,1,0,0,0-.28.31c-.18.3-.32.56-.49.82H131c1.2,0,1.62,0,1.72,0s.14,0,.14.15,0,.32,0,.69v.57c0,1.14,0,1.35,0,1.43s0,.14-.14.14h-1c-.13,0-.15,0-.15-.14v-1.69h-8.36v1.67c0,.15,0,.16-.14.16h-1c-.13,0-.14,0-.14-.16s0-.28,0-1.43v-.46c0-.46,0-.69,0-.78s0-.15.14-.15.52,0,1.72,0h.3a.29.29,0,0,1-.07-.1,6.59,6.59,0,0,0-.66-1.2c-.08-.12-.07-.14.09-.2Zm4.64,3.68c1.17,0,1.59,0,1.68,0s.13,0,.13.16,0,.29,0,.88v1.15c0,.6,0,.82,0,.9s0,.14-.13.14-.51,0-1.68,0h-1a8.19,8.19,0,0,1-.36.87h4.29c.13,0,.13,0,.13.14s0,.39,0,1v.84c0,1.53,0,1.82,0,1.89s0,.13-.13.13h-1.09c-.13,0-.15,0-.15-.13v-.39h-6.26v.45c0,.13,0,.14-.13.14H123c-.13,0-.14,0-.14-.14s0-.37,0-1.93v-.7c0-.77,0-1.08,0-1.16s0-.14.14-.14h3.08c.13-.27.26-.57.37-.87h-.54c-1.18,0-1.6,0-1.67,0s-.13,0-.13-.14,0-.3,0-.9v-1.15c0-.59,0-.81,0-.88s0-.16.13-.16.49,0,1.67,0Zm-4.56,6.38h6.26v-1.19h-6.26Zm1.19-4.23h3.86v-1.14H125.4Zm1.84-6c.15-.05.19,0,.26.09a9.26,9.26,0,0,1,.65,1.3c0,.1,0,.13-.15.18l-.87.26c-.19.05-.21,0-.26-.1a10.69,10.69,0,0,0-.61-1.28c-.08-.13,0-.14.12-.19Z"/><path class="cls-6" d="M138,152c-.85,0-1.59,0-2.15.07-.17,0-.22-.08-.24-.26s-.1-.94-.12-1.32a21.44,21.44,0,0,0,2.49.09h4.65a1.17,1.17,0,0,0,.71-.13.43.43,0,0,1,.22-.07.27.27,0,0,1,.22.09,4.68,4.68,0,0,1,.89.89.5.5,0,0,1,.1.26.36.36,0,0,1-.13.25,1.62,1.62,0,0,0-.3.51,15.44,15.44,0,0,1-2.52,4.22,14.54,14.54,0,0,1-3.69,3.1.62.62,0,0,1-.35.11.44.44,0,0,1-.33-.14,3.91,3.91,0,0,0-1.21-.71,12.59,12.59,0,0,0,4.25-3.25,10.93,10.93,0,0,0,2.2-3.71Zm9-2.49a1.41,1.41,0,1,1-1.4-1.4A1.38,1.38,0,0,1,146.93,149.49Zm-2.17,0a.77.77,0,1,0,.77-.77A.74.74,0,0,0,144.76,149.49Z"/><path class="cls-6" d="M150.83,157.86v.76c0,.23-.05.25-.29.26a8.68,8.68,0,0,1-1,0c-.22,0-.29,0-.27-.19,0-.68,0-1.6,0-2.59v-3.18c0-.7,0-1.41,0-2.16,0-.13.05-.18.14-.18.69,0,1.46,0,2.33,0h3.09c.85,0,1.84,0,2.45,0,.14,0,.18.07.17.26,0,.64,0,1.34,0,2.11v3.1c0,1.13,0,1.77.07,2.47,0,.19-.07.22-.25.22-.39,0-.81,0-1.2,0-.15,0-.16,0-.16-.2v-.69Zm5-5.87h-5.06v4.49h5.06Z"/><path class="cls-6" d="M163.36,151.81c-.84,0-1.58,0-2.14.07-.17,0-.22-.08-.25-.26s-.09-.94-.12-1.32a21.18,21.18,0,0,0,2.5.1H168a1.31,1.31,0,0,0,.72-.13.35.35,0,0,1,.19-.06.63.63,0,0,1,.25.07,3.9,3.9,0,0,1,.95.86.33.33,0,0,1,.09.22.46.46,0,0,1-.18.32,1.45,1.45,0,0,0-.3.51,15.44,15.44,0,0,1-2.52,4.22,14.41,14.41,0,0,1-3.7,3.1.59.59,0,0,1-.35.12.43.43,0,0,1-.32-.15,3.91,3.91,0,0,0-1.21-.71,12.57,12.57,0,0,0,4.25-3.25,11,11,0,0,0,2.2-3.71Z"/><path class="cls-6" d="M177.36,157.79h1.38c.67,0,1.39,0,2.1,0,.11,0,.16.08.18.25s0,.56,0,.83-.07.25-.22.23l-2,0h-4.09c-.78,0-1.36,0-1.91.05-.15,0-.22-.08-.24-.27a5.79,5.79,0,0,1-.07-1.06c.75.06,1.39.06,2.22.06H176v-3.29h-2.31c-.12,0-.18-.07-.21-.26s0-.57-.08-1c.56.05,1.25.05,1.81.05h2.89l1.75,0c.16,0,.2.06.21.22s0,.54,0,.8-.07.26-.26.25l-1.69,0h-.72Z"/><path class="cls-6" d="M184.32,152.74a.23.23,0,0,1,.34.09,7.11,7.11,0,0,1,1.12,1.92,1.15,1.15,0,0,1,.05.2c0,.07-.05.11-.16.18a5.7,5.7,0,0,1-.83.4c-.18.07-.26,0-.33-.18a7.3,7.3,0,0,0-1.22-2.09C183.73,153,184.05,152.87,184.32,152.74Zm7.14.16c.1.08.17.15.17.23s0,.14-.15.23a2,2,0,0,0-.39.66,15.75,15.75,0,0,1-2,3.46,10.44,10.44,0,0,1-2.68,2.51.54.54,0,0,1-.31.14.28.28,0,0,1-.21-.09,2.83,2.83,0,0,0-1.1-.54,11.26,11.26,0,0,0,3.12-2.71,13.51,13.51,0,0,0,1.75-3.13,4.6,4.6,0,0,0,.3-1.38A6.33,6.33,0,0,1,191.46,152.9Zm-4.51-.79a.22.22,0,0,1,.33.11,7.22,7.22,0,0,1,1,1.89c.07.2,0,.26-.13.35a4.67,4.67,0,0,1-.89.41c-.15,0-.2,0-.26-.2a9.19,9.19,0,0,0-1.09-2.08C186.43,152.35,186.72,152.2,187,152.11Z"/><path class="cls-6" d="M195.06,152.62c.06-.09.13-.16.24-.13a8.9,8.9,0,0,1,2.5,1.27c.09.07.14.12.14.2a.3.3,0,0,1-.05.14,5.1,5.1,0,0,1-.57,1c-.07.08-.12.13-.17.13s-.09,0-.16-.08a11.46,11.46,0,0,0-2.62-1.42C194.69,153.2,194.9,152.83,195.06,152.62Zm2.1,4.82a21.87,21.87,0,0,0,3.57-2.25,23.57,23.57,0,0,0,3.74-3.62,6.34,6.34,0,0,0,.38,1.45.61.61,0,0,1,.06.25.43.43,0,0,1-.14.3,24.61,24.61,0,0,1-3.3,3,29.22,29.22,0,0,1-3.89,2.44,4.29,4.29,0,0,0-.75.45.33.33,0,0,1-.21.1.33.33,0,0,1-.26-.16,7.43,7.43,0,0,1-1-1.32A6.16,6.16,0,0,0,197.16,157.44Zm-.53-7.81c.09-.16.17-.18.33-.11A8.85,8.85,0,0,1,199.4,151a.19.19,0,0,1,.1.17.32.32,0,0,1-.05.17,5.49,5.49,0,0,1-.66,1,.14.14,0,0,1-.13.08.36.36,0,0,1-.2-.09,12.54,12.54,0,0,0-2.52-1.6Z"/><path class="cls-6" d="M212.84,154h-3c-.61,0-1.24.07-1.82.08-.12,0-.18-.09-.2-.3s0-.57-.06-1.07a18.75,18.75,0,0,0,2.08.07h2.26c.64,0,1.35,0,1.92,0,.16,0,.21.08.2.21,0,.59,0,1.13,0,1.7v3c0,.58,0,1.18.06,1.84,0,.2-.07.24-.29.25l-.88,0c-.21,0-.24,0-.24-.2v-.39h-3.08c-.61,0-1.2,0-1.79.07-.13,0-.17-.07-.19-.26a9.62,9.62,0,0,1-.06-1.08c.7,0,1.34,0,2.09,0h3v-1.46h-2.75c-.59,0-1.23,0-1.79,0-.15,0-.2-.07-.22-.28a7.32,7.32,0,0,1-.05-1c.7.05,1.18.06,2,.06h2.78Z"/><path class="cls-6" d="M225.46,152.32c.73,0,1.59,0,2.27,0,.18,0,.23,0,.24.24a5.68,5.68,0,0,1,0,1c0,.21-.05.25-.24.25-.47,0-1.46,0-2.19,0H223.7a6.82,6.82,0,0,1-.89,3.55,7.29,7.29,0,0,1-2.77,2.56.55.55,0,0,1-.3.09.38.38,0,0,1-.28-.13,3.83,3.83,0,0,0-1.09-.72,6.6,6.6,0,0,0,2.95-2.35,5.61,5.61,0,0,0,.79-3H219.6c-.64,0-1.38,0-1.87.06-.17,0-.21-.05-.23-.25s-.07-.8-.1-1.28c.85.06,1.58.06,2.21.06h2.57c0-.65,0-1.35,0-1.92a5.37,5.37,0,0,0-.15-1.31,8.84,8.84,0,0,1,1.73.18c.14,0,.19.09.19.18a.85.85,0,0,1-.09.29,2.44,2.44,0,0,0-.1.79c0,.61,0,1,0,1.78Z"/><path class="cls-6" d="M233.76,151.14c.22.06.25.22.17.4a1.79,1.79,0,0,0-.16.88,9.66,9.66,0,0,1-.7,3.83,6.74,6.74,0,0,1-1.85,2.44.61.61,0,0,1-.33.17.42.42,0,0,1-.25-.11,4.78,4.78,0,0,0-1.11-.54,6.38,6.38,0,0,0,2.16-2.59,8.46,8.46,0,0,0,.55-3.68,3.62,3.62,0,0,0-.13-1.09A9.61,9.61,0,0,1,233.76,151.14Zm2.88,5.5a14,14,0,0,0,1.85-1.21,12.73,12.73,0,0,0,2.28-2.21,3.74,3.74,0,0,0,.4,1.31.66.66,0,0,1,.08.22c0,.09-.06.18-.2.33a17.47,17.47,0,0,1-1.92,1.7,21.67,21.67,0,0,1-2.32,1.56,3,3,0,0,0-.37.27.4.4,0,0,1-.26.11.56.56,0,0,1-.28-.11,3.89,3.89,0,0,1-.78-.79.6.6,0,0,1-.11-.27.39.39,0,0,1,.05-.2c.09-.17.08-.32.08-1v-4.07A10.37,10.37,0,0,0,235,150a14.75,14.75,0,0,1,1.62.27c.17,0,.24.12.24.23a.8.8,0,0,1-.11.32,3.52,3.52,0,0,0-.12,1.44Z"/><path class="cls-4" d="M257.74,52.92a14.37,14.37,0,0,1-14.33,14.32H64.87a14.33,14.33,0,1,1,0-28.65H243.41A14.37,14.37,0,0,1,257.74,52.92Z"/><path class="cls-5" d="M257.74,52.92a14.37,14.37,0,0,1-14.33,14.32H64.87a14.33,14.33,0,1,1,0-28.65H243.41A14.37,14.37,0,0,1,257.74,52.92Z"/><path class="cls-6" d="M100.47,49.4c-.89,0-1.84.06-2.75.13-.19,0-.25-.1-.28-.24a12.8,12.8,0,0,1-.28-1.68c1,.08,1.91.11,3.15.11H107a3.44,3.44,0,0,0,1.08-.09,1,1,0,0,1,.29-.11.51.51,0,0,1,.36.22,7.22,7.22,0,0,1,.93,1,.43.43,0,0,1,.13.28.4.4,0,0,1-.22.32,2,2,0,0,0-.42.45,13.3,13.3,0,0,1-2.74,3,.45.45,0,0,1-.33.14.64.64,0,0,1-.37-.16,3.72,3.72,0,0,0-1.29-.64,10.77,10.77,0,0,0,2.78-2.72Zm.87,6.07a7.23,7.23,0,0,0,.76-3.67,5.44,5.44,0,0,0-.16-1.47,17,17,0,0,1,2,.3c.2,0,.26.16.26.3a.77.77,0,0,1-.07.28,1.3,1.3,0,0,0-.14.63,9.65,9.65,0,0,1-.92,4.28,8.13,8.13,0,0,1-2.83,3.09.74.74,0,0,1-.44.16.48.48,0,0,1-.31-.14,4.13,4.13,0,0,0-1.41-.79A7,7,0,0,0,101.34,55.47Z"/><path class="cls-6" d="M113.63,48a.31.31,0,0,1,.21-.12.4.4,0,0,1,.21.08,16.85,16.85,0,0,1,3,2.2c.09.1.14.16.14.22a.34.34,0,0,1-.1.2c-.23.32-.74.94-1,1.17-.08.08-.13.12-.19.12s-.12,0-.2-.12a16.32,16.32,0,0,0-3.17-2.53C112.88,48.83,113.33,48.34,113.63,48Zm1.35,8.2a23.42,23.42,0,0,0,4.48-2.89,23.71,23.71,0,0,0,4.26-4.23,7.06,7.06,0,0,0,.43,1.82.67.67,0,0,1,.08.29.77.77,0,0,1-.25.47A24.71,24.71,0,0,1,120.4,55,32.75,32.75,0,0,1,115.71,58a5.23,5.23,0,0,0-1,.72.46.46,0,0,1-.28.15.42.42,0,0,1-.27-.17A10.34,10.34,0,0,1,112.88,57,9.66,9.66,0,0,0,115,56.23Z"/><path class="cls-6" d="M131,50.94a21.78,21.78,0,0,1,5,2.12.29.29,0,0,1,.17.4,10,10,0,0,1-.67,1.35c-.06.11-.13.17-.2.17a.26.26,0,0,1-.18-.07,16.73,16.73,0,0,0-4.08-2v3.43c0,1,0,1.93.06,3,0,.19-.06.23-.28.23a10.75,10.75,0,0,1-1.39,0c-.21,0-.29,0-.29-.23.05-1.15.06-2.07.06-3.06V48.69a12.68,12.68,0,0,0-.15-2.3,11.36,11.36,0,0,1,1.94.24c.22,0,.29.14.29.27a.79.79,0,0,1-.12.36,4,4,0,0,0-.11,1.46Z"/><path class="cls-6" d="M142.26,56.21a25.09,25.09,0,0,0,4-2,19.07,19.07,0,0,0,4.12-3.17,7.08,7.08,0,0,0,.25,1.8.5.5,0,0,1-.15.63,25.94,25.94,0,0,1-3.89,2.67,34.69,34.69,0,0,1-3.81,1.93,3.51,3.51,0,0,0-.87.5.52.52,0,0,1-.28.12.46.46,0,0,1-.27-.12,4.82,4.82,0,0,1-.94-1.06.36.36,0,0,1-.1-.25.56.56,0,0,1,.08-.26,3.21,3.21,0,0,0,.06-.89l0-5.85a14.21,14.21,0,0,0-.17-2.7,15.65,15.65,0,0,1,2,.34.3.3,0,0,1,.25.3,1.12,1.12,0,0,1-.08.32,6.77,6.77,0,0,0-.17,1.93Z"/><path class="cls-6" d="M156.52,50.09c-1,0-1.9,0-2.57.07-.2,0-.26-.09-.29-.31s-.11-1.12-.14-1.57a26.48,26.48,0,0,0,3,.11h5.55a1.55,1.55,0,0,0,.86-.15.43.43,0,0,1,.26-.1.36.36,0,0,1,.27.11,5.87,5.87,0,0,1,1.05,1.07.55.55,0,0,1,.13.31.43.43,0,0,1-.16.3,2.11,2.11,0,0,0-.36.61,18.47,18.47,0,0,1-3,5.05,17.66,17.66,0,0,1-4.42,3.7.78.78,0,0,1-.42.14.58.58,0,0,1-.39-.17,4.74,4.74,0,0,0-1.44-.86,15,15,0,0,0,5.08-3.88,13.06,13.06,0,0,0,2.63-4.43Zm10.74-3a1.68,1.68,0,1,1-1.68-1.66A1.65,1.65,0,0,1,167.26,47.1Zm-2.6,0a.92.92,0,1,0,.92-.92A.89.89,0,0,0,164.66,47.1Z"/><path class="cls-6" d="M172.22,56.21a24.72,24.72,0,0,0,4-2,19.07,19.07,0,0,0,4.12-3.17,7.08,7.08,0,0,0,.25,1.8.51.51,0,0,1-.16.63,25.37,25.37,0,0,1-3.88,2.67,35.61,35.61,0,0,1-3.81,1.93,3.51,3.51,0,0,0-.87.5.52.52,0,0,1-.28.12.44.44,0,0,1-.27-.12,4.86,4.86,0,0,1-.95-1.06.4.4,0,0,1-.09-.25.56.56,0,0,1,.08-.26,3.21,3.21,0,0,0,.06-.89l0-5.85a15.11,15.11,0,0,0-.17-2.7,16,16,0,0,1,2,.34.3.3,0,0,1,.25.3,1.12,1.12,0,0,1-.08.32,6.4,6.4,0,0,0-.17,1.93Z"/><path class="cls-6" d="M192.88,50.49l2.7,0c.22,0,.28,0,.3.28a8.15,8.15,0,0,1,0,1.21c0,.25-.07.3-.3.3-.56,0-1.74-.07-2.61-.07h-2.21a8.06,8.06,0,0,1-1.06,4.25,8.58,8.58,0,0,1-3.31,3.06.61.61,0,0,1-.36.11.5.5,0,0,1-.34-.15,4.27,4.27,0,0,0-1.3-.86,7.93,7.93,0,0,0,3.53-2.81,6.72,6.72,0,0,0,.94-3.6h-3c-.76,0-1.64.07-2.24.08-.2,0-.24-.06-.28-.29s-.07-1-.1-1.54c1,.08,1.88.08,2.64.08h3.06c0-.78,0-1.62,0-2.31a6.81,6.81,0,0,0-.19-1.57,13.13,13.13,0,0,1,2.07.22c.17,0,.23.11.23.22a1,1,0,0,1-.11.34,3,3,0,0,0-.12,1c0,.73,0,1.24,0,2.13Z"/><path class="cls-6" d="M201.49,54.13a12,12,0,0,0-2.28.19c-.19,0-.31-.1-.36-.33a16.14,16.14,0,0,1-.23-1.88,20.71,20.71,0,0,0,3.36.18h5c1.18,0,2.38,0,3.58,0,.23,0,.28,0,.28.21a12,12,0,0,1,0,1.47c0,.18-.06.25-.28.23l-3.47,0Z"/><path class="cls-4" d="M257.74,103.14a14.37,14.37,0,0,1-14.33,14.33H64.87a14.33,14.33,0,0,1,0-28.66H243.41A14.37,14.37,0,0,1,257.74,103.14Z"/><path class="cls-5" d="M257.74,103.14a14.37,14.37,0,0,1-14.33,14.33H64.87a14.33,14.33,0,0,1,0-28.66H243.41A14.37,14.37,0,0,1,257.74,103.14Z"/><path class="cls-6" d="M85,102.08a28.23,28.23,0,0,0,3.79-1.51,4.79,4.79,0,0,0,1.67-1.12,9.49,9.49,0,0,1,1.29,1.4.45.45,0,0,1,.12.28.29.29,0,0,1-.26.28,7.91,7.91,0,0,0-1.29.52A39.66,39.66,0,0,1,85,103.85v2.07c0,.73.11,1,.52,1.11a8.43,8.43,0,0,0,2,.17,27.29,27.29,0,0,0,4.38-.36c.23,0,.27,0,.28.22,0,.43.09,1,.09,1.35s-.09.26-.32.28a30.84,30.84,0,0,1-4.62.28,7.63,7.63,0,0,1-3-.42c-.78-.33-1.11-1.06-1.11-2.33v-5.74a16.79,16.79,0,0,0-.15-2.85,13.58,13.58,0,0,1,2,.32c.18,0,.24.14.24.24a.7.7,0,0,1-.1.33,3.42,3.42,0,0,0-.16,1.4Zm6.5-4.49c.08-.06.14,0,.23,0a7.2,7.2,0,0,1,1.48,1.66.16.16,0,0,1,0,.25l-.65.48c-.11.08-.19.07-.26,0a7.74,7.74,0,0,0-1.58-1.81Zm1.38-1c.1-.07.14,0,.24,0a6.5,6.5,0,0,1,1.47,1.6.18.18,0,0,1,0,.28L94,99a.15.15,0,0,1-.26,0,7.66,7.66,0,0,0-1.55-1.78Z"/><path class="cls-6" d="M97.26,101.23c.08-.11.16-.19.3-.16a10.85,10.85,0,0,1,3,1.52c.11.08.18.14.18.24a.38.38,0,0,1-.07.17,6.25,6.25,0,0,1-.68,1.18c-.08.09-.14.16-.2.16s-.11,0-.19-.1a13.4,13.4,0,0,0-3.14-1.69C96.83,101.93,97.08,101.47,97.26,101.23ZM99.78,107A24.6,24.6,0,0,0,104,104.3a27.85,27.85,0,0,0,4.48-4.33,7.82,7.82,0,0,0,.45,1.74.71.71,0,0,1,.08.29.49.49,0,0,1-.17.36,29,29,0,0,1-3.95,3.59,35.46,35.46,0,0,1-4.65,2.93,5.28,5.28,0,0,0-.9.52.32.32,0,0,1-.25.13.38.38,0,0,1-.31-.19,9.15,9.15,0,0,1-1.15-1.58A7.24,7.24,0,0,0,99.78,107Zm-.63-9.34c.1-.19.2-.22.38-.12a10.64,10.64,0,0,1,2.93,1.72.24.24,0,0,1,.12.2.36.36,0,0,1-.06.21,7.36,7.36,0,0,1-.79,1.16.18.18,0,0,1-.16.1.41.41,0,0,1-.23-.11,14.9,14.9,0,0,0-3-1.92Zm7.12-.48c.07-.06.14,0,.23,0A7.2,7.2,0,0,1,108,98.86a.16.16,0,0,1,0,.25l-.65.48a.17.17,0,0,1-.27,0,7.48,7.48,0,0,0-1.57-1.81Zm1.38-1c.09-.07.14,0,.23,0a6.35,6.35,0,0,1,1.48,1.6.18.18,0,0,1,0,.28l-.62.48a.16.16,0,0,1-.26,0,7.34,7.34,0,0,0-1.56-1.79Z"/><path class="cls-6" d="M119.33,107.09c0,1.38,0,2.41,0,2.8,0,.14-.11.2-.3.2a10,10,0,0,1-1.34,0c-.18,0-.29-.06-.29-.22,0-.43.08-1.48.08-2.77v-2a26.69,26.69,0,0,1-4.28,2.59.59.59,0,0,1-.26.08.38.38,0,0,1-.31-.17,3.74,3.74,0,0,0-1.25-.95,29.26,29.26,0,0,0,5-2.8,20.87,20.87,0,0,0,3-2.52l-3.6.08c-.84,0-1.41.06-2,.11-.17,0-.23-.09-.26-.29a12,12,0,0,1-.17-1.53,15.47,15.47,0,0,0,2.16.13l4.51,0a2.48,2.48,0,0,0,1.1-.17.46.46,0,0,1,.23-.06.37.37,0,0,1,.27.12,6,6,0,0,1,.77.92.45.45,0,0,1,.1.26c0,.13-.08.22-.24.28a1.71,1.71,0,0,0-.49.36c-.8.81-1.62,1.59-2.46,2.3Zm-2.52-10.62c.09-.14.17-.19.33-.14a20.11,20.11,0,0,1,3.29,1.35c.11.06.18.11.18.17a.25.25,0,0,1-.07.16c-.17.34-.37.73-.63,1.15-.07.11-.13.15-.21.15a.27.27,0,0,1-.17-.06,16.3,16.3,0,0,0-3.46-1.54C116.38,97.21,116.66,96.7,116.81,96.47Zm4.2,7c.11-.14.16-.13.31-.07a17.07,17.07,0,0,1,3.39,1.9c.09.06.14.11.14.19a.42.42,0,0,1-.06.18,8.48,8.48,0,0,1-.76,1.12c-.07.08-.13.13-.19.13s-.12,0-.22-.11a17.41,17.41,0,0,0-3.5-2.15C120.47,104.2,120.81,103.73,121,103.5Z"/><path class="cls-6" d="M135.72,98.35a2.39,2.39,0,0,0,1.08-.14.22.22,0,0,1,.17-.06.51.51,0,0,1,.26.12,5.56,5.56,0,0,1,1,1.09.4.4,0,0,1,.08.2.41.41,0,0,1-.2.31,2.9,2.9,0,0,0-.58.69,24.42,24.42,0,0,1-2,2.91,36,36,0,0,1,4.31,3.76.33.33,0,0,1,.12.22.37.37,0,0,1-.11.23,8,8,0,0,1-1,1.06.26.26,0,0,1-.18.09c-.08,0-.14,0-.22-.13a28.94,28.94,0,0,0-4-3.85,22.21,22.21,0,0,1-5.23,4.1.88.88,0,0,1-.36.13.36.36,0,0,1-.26-.14,4.17,4.17,0,0,0-1.31-1,19.4,19.4,0,0,0,8.4-7.87l-4,0c-.81,0-1.62,0-2.46.09-.12,0-.17-.09-.2-.27a8.75,8.75,0,0,1-.14-1.61c.84.06,1.62.06,2.63.06Z"/><path class="cls-6" d="M151.43,99.16a1.49,1.49,0,0,0,.78-.19.28.28,0,0,1,.2-.06.48.48,0,0,1,.25.09,7.43,7.43,0,0,1,1.05.84.53.53,0,0,1,.21.36.48.48,0,0,1-.19.33,1.89,1.89,0,0,0-.51.66,21.32,21.32,0,0,1-3.08,4.81,19.63,19.63,0,0,1-4.73,3.87.43.43,0,0,1-.25.08.52.52,0,0,1-.35-.17,4.09,4.09,0,0,0-1.48-.72,17.92,17.92,0,0,0,5.18-4,16,16,0,0,0,2.87-4.42l-3.76.11a21.2,21.2,0,0,1-2.94,3.19.48.48,0,0,1-.33.17.4.4,0,0,1-.23-.09,4.22,4.22,0,0,0-1.49-.67,18.47,18.47,0,0,0,4.18-4.62,6.66,6.66,0,0,0,.92-2.1,7.9,7.9,0,0,1,1.82.82.33.33,0,0,1,.15.27.29.29,0,0,1-.17.26,2.26,2.26,0,0,0-.39.42c-.17.27-.32.5-.51.78Z"/><path class="cls-6" d="M158.49,99.42a11,11,0,0,0-.17-2.27,11.32,11.32,0,0,1,1.93.33c.19,0,.26.14.26.25a.65.65,0,0,1-.06.23,3.59,3.59,0,0,0-.17,1.48v3.14c0,.81,0,1.41.05,2,0,.23-.1.31-.35.31h-1.24c-.22,0-.31-.08-.3-.27,0-.54.05-1.44.05-2.11Zm7.32,2.91c0,2.3-.34,3.84-1.25,5.07a8.06,8.06,0,0,1-3.43,2.44.88.88,0,0,1-.32.08.5.5,0,0,1-.37-.19,5.2,5.2,0,0,0-1.33-1,7.57,7.57,0,0,0,3.8-2.27,6.41,6.41,0,0,0,1-4.15V99.42a11.42,11.42,0,0,0-.17-2.53,9.74,9.74,0,0,1,2,.34c.16,0,.22.14.22.26a.54.54,0,0,1-.06.25,4.41,4.41,0,0,0-.15,1.7Z"/><path class="cls-6" d="M177.32,106h2.23c1,0,2.08,0,3.14-.07.17,0,.25.07.25.25,0,.41,0,.84,0,1.25,0,.2-.05.28-.24.28-.74,0-2.13-.07-3.14-.07h-6.25c-.64,0-1.65,0-2.86.07-.25,0-.28,0-.33-.32A9.43,9.43,0,0,1,170,106c1.12.07,2.3.08,3.29.08h2.12v-5.32h-1.22c-1.12,0-1.77,0-2.41.07-.18,0-.21-.1-.26-.33a9,9,0,0,1-.12-1.45,25.74,25.74,0,0,0,2.69.06h4.4c.94,0,1.8,0,2.72,0,.15,0,.2.08.2.25,0,.39,0,.82,0,1.21,0,.2-.05.3-.22.3-1,0-1.8-.07-2.67-.07h-1.22Z"/><path class="cls-6" d="M193.23,106.25c0,1.07,0,2,.05,3.23,0,.2-.06.27-.23.27a13.53,13.53,0,0,1-1.56,0c-.17,0-.23-.07-.22-.25,0-1.12.07-2.13.07-3.19v-3.62a27,27,0,0,1-4.28,3,.41.41,0,0,1-.23.07.44.44,0,0,1-.33-.16,5.79,5.79,0,0,0-1.34-.92,24.3,24.3,0,0,0,4.9-3.19,24.8,24.8,0,0,0,3.31-3.24,4.59,4.59,0,0,0,1-1.61,13.87,13.87,0,0,1,1.73,1.09.28.28,0,0,1,.12.24.45.45,0,0,1-.21.34,4.86,4.86,0,0,0-.94.85,22.91,22.91,0,0,1-1.82,2Z"/><path class="cls-6" d="M208.12,98.82a1.48,1.48,0,0,0,.85-.24.53.53,0,0,1,.27-.11.56.56,0,0,1,.28.13,4.91,4.91,0,0,1,1,1,.35.35,0,0,1,.13.28.41.41,0,0,1-.17.29,2,2,0,0,0-.47.59,24.44,24.44,0,0,1-2.29,3.77,12.86,12.86,0,0,1,1.68,1.57.28.28,0,0,1,.1.21.29.29,0,0,1-.1.21,9.86,9.86,0,0,1-1,1,.34.34,0,0,1-.19.07.28.28,0,0,1-.17-.09,15.35,15.35,0,0,0-1.51-1.51,18.88,18.88,0,0,1-5,3.89.81.81,0,0,1-.38.14.48.48,0,0,1-.3-.14,4.18,4.18,0,0,0-1.48-.79,18.9,18.9,0,0,0,5.73-4.22,14,14,0,0,0-2.24-1.46c.34-.37.66-.78,1-1.1a.27.27,0,0,1,.2-.11.4.4,0,0,1,.16.06,16.6,16.6,0,0,1,2,1.24,14.83,14.83,0,0,0,1.81-3.07l-3.85.07a18.68,18.68,0,0,1-3.33,3.5.54.54,0,0,1-.31.14.35.35,0,0,1-.25-.11,6.65,6.65,0,0,0-1.3-.71,17.63,17.63,0,0,0,4.4-4.88,5.87,5.87,0,0,0,.84-1.92,10.21,10.21,0,0,1,1.81.76.29.29,0,0,1,.18.25.4.4,0,0,1-.19.31,1.47,1.47,0,0,0-.33.33c-.12.22-.22.37-.48.78Z"/><path class="cls-6" d="M216.84,104.35a12,12,0,0,0-2.28.19c-.19,0-.31-.1-.36-.33a16.14,16.14,0,0,1-.23-1.88,19.34,19.34,0,0,0,3.35.19h5c1.18,0,2.38,0,3.58,0,.23,0,.28,0,.28.22a11.85,11.85,0,0,1,0,1.46c0,.19-.07.25-.28.23l-3.47,0Z"/></g></g></svg>