<svg xmlns="http://www.w3.org/2000/svg" xmlns:xlink="http://www.w3.org/1999/xlink" viewBox="0 0 308.28 210.6"><defs><style>.cls-1,.cls-5{fill:none;}.cls-2{fill:#fae5ee;}.cls-3{fill:url(#新規パターンスウォッチ_5);}.cls-4{fill:#fff;}.cls-5{stroke:#e40077;stroke-miterlimit:10;stroke-width:0.66px;}.cls-6{fill:#231815;}</style><pattern id="新規パターンスウォッチ_5" data-name="新規パターンスウォッチ 5" width="5.67" height="5.67" patternTransform="translate(16.47 -25.72) scale(1.56)" patternUnits="userSpaceOnUse" viewBox="0 0 5.67 5.67"><rect class="cls-1" width="5.67" height="5.67"/><circle class="cls-2" cx="2.83" cy="2.83" r="0.71"/><rect class="cls-1" width="5.67" height="5.67"/></pattern></defs><g id="レイヤー_2" data-name="レイヤー 2"><g id="レイヤー_1-2" data-name="レイヤー 1"><rect class="cls-3" width="308.28" height="210.6"/><path class="cls-4" d="M257.74,156.81a14.37,14.37,0,0,1-14.33,14.33H64.87a14.33,14.33,0,0,1,0-28.66H243.41A14.37,14.37,0,0,1,257.74,156.81Z"/><path class="cls-5" d="M257.74,156.81a14.37,14.37,0,0,1-14.33,14.33H64.87a14.33,14.33,0,0,1,0-28.66H243.41A14.37,14.37,0,0,1,257.74,156.81Z"/><path class="cls-6" d="M76,152.55a8,8,0,0,0-.62-2,15.14,15.14,0,0,1,2,0c.2,0,.31.07.31.23a3.51,3.51,0,0,0,0,1.12l.23,1.31,1.28-.22c.88-.16,2-.34,2.78-.56.08,0,.14.06.17.17a9.21,9.21,0,0,1,.31,1.34c0,.11-.07.15-.23.17-.71.12-1.82.29-2.6.43l-1.36.25.38,2,2.26-.39a23.31,23.31,0,0,0,2.44-.51c.2,0,.25,0,.26.17a8.42,8.42,0,0,1,.27,1.24.25.25,0,0,1-.23.27c-.47.06-1.4.22-2.51.4l-2.14.38.35,1.72c.22,1,.49,2,.69,2.82,0,.07-.06.12-.2.17a10.3,10.3,0,0,1-1.42.32c-.2,0-.29-.06-.31-.18-.11-.58-.28-1.67-.5-2.66l-.39-1.84-2.11.38c-1.06.18-1.93.37-2.52.53a.25.25,0,0,1-.36-.18c-.15-.45-.31-1-.43-1.53,1-.11,1.77-.24,2.89-.42l2.18-.36-.39-2-1.46.24c-.86.14-1.9.35-2.32.46-.16.05-.23,0-.3-.15A12.57,12.57,0,0,1,72,154.1c.84-.06,1.69-.17,2.77-.34l1.41-.22Z"/><path class="cls-6" d="M89.15,158.13a11,11,0,0,0-1.71.61,1.11,1.11,0,0,1-.28.07c-.11,0-.19-.06-.27-.21a9.9,9.9,0,0,1-.54-1.37,19.47,19.47,0,0,0,2.36-.52l.93-.24-.34-1.31a5.62,5.62,0,0,0-.64-1.57c.64-.08,1.42-.17,1.82-.17.25,0,.36.09.33.31a2.47,2.47,0,0,0,.09,1.12l.3,1.16,3.37-.85a1.76,1.76,0,0,0,.78-.34.26.26,0,0,1,.19-.1.56.56,0,0,1,.26.14,8.27,8.27,0,0,1,.92.78.35.35,0,0,1,.12.23.46.46,0,0,1-.17.32,1.41,1.41,0,0,0-.25.32,18.21,18.21,0,0,1-1.75,2.92.28.28,0,0,1-.24.14.44.44,0,0,1-.23-.07A4.09,4.09,0,0,0,93,159a11.33,11.33,0,0,0,1.64-2.38l-3,.79.72,2.82c.26,1,.48,1.74.71,2.61a.3.3,0,0,1-.2.42,5.5,5.5,0,0,1-1,.31c-.21.05-.33,0-.39-.23-.19-.87-.41-1.73-.63-2.6l-.73-2.87Z"/><path class="cls-6" d="M102.6,156c-.78,0-1.56,0-2.33.06-.14,0-.21-.09-.24-.29a13.21,13.21,0,0,1-.17-1.57c.89.09,1.84.12,2.86.12h5.34a1.71,1.71,0,0,0,.82-.17.35.35,0,0,1,.2-.09.42.42,0,0,1,.24.1,10,10,0,0,1,1,1,.45.45,0,0,1,.15.32.35.35,0,0,1-.17.3,1.82,1.82,0,0,0-.53.73,13.54,13.54,0,0,1-6.34,6.87.65.65,0,0,1-.31.11.5.5,0,0,1-.34-.18,4.4,4.4,0,0,0-1.45-.81A12.14,12.14,0,0,0,107.9,156Zm1-3.34c-.7,0-1.48,0-2.13.06-.15,0-.2-.1-.22-.34s-.07-1-.07-1.5a20,20,0,0,0,2.55.11h2.79c1,0,1.84,0,2.45-.08.14,0,.18.08.18.25a8.28,8.28,0,0,1,0,1.22c0,.26,0,.32-.28.31-.51,0-1.24,0-2.19,0Z"/><path class="cls-6" d="M122.22,152.83a1.46,1.46,0,0,0,.78-.19.3.3,0,0,1,.2-.06.45.45,0,0,1,.25.09,7.54,7.54,0,0,1,1.06.84.51.51,0,0,1,.2.36.5.5,0,0,1-.18.33,1.82,1.82,0,0,0-.52.66,21,21,0,0,1-3.08,4.81,19.63,19.63,0,0,1-4.72,3.87.45.45,0,0,1-.25.08.53.53,0,0,1-.36-.17,4.09,4.09,0,0,0-1.48-.72,18,18,0,0,0,5.18-4,16,16,0,0,0,2.88-4.42l-3.77.11a21.79,21.79,0,0,1-2.93,3.19.48.48,0,0,1-.33.17.32.32,0,0,1-.23-.1,4.09,4.09,0,0,0-1.5-.66,18.54,18.54,0,0,0,4.19-4.62,6.61,6.61,0,0,0,.91-2.1,7.49,7.49,0,0,1,1.82.82.33.33,0,0,1,.16.27.32.32,0,0,1-.17.26,1.74,1.74,0,0,0-.39.42l-.51.78Z"/><path class="cls-6" d="M136.59,152.48a1.45,1.45,0,0,0,.86-.23.45.45,0,0,1,.26-.11.53.53,0,0,1,.28.13,5,5,0,0,1,1.06.95.37.37,0,0,1,.12.28.38.38,0,0,1-.17.29,2,2,0,0,0-.46.59,23.88,23.88,0,0,1-2.29,3.76,14.39,14.39,0,0,1,1.68,1.57.33.33,0,0,1,.09.22.3.3,0,0,1-.09.2,8.9,8.9,0,0,1-1,1,.34.34,0,0,1-.19.08.26.26,0,0,1-.17-.09,16.53,16.53,0,0,0-1.51-1.51,19,19,0,0,1-5,3.89.81.81,0,0,1-.39.14.48.48,0,0,1-.29-.14,4.47,4.47,0,0,0-1.48-.8,18.55,18.55,0,0,0,5.72-4.21,13.18,13.18,0,0,0-2.24-1.46c.34-.37.67-.78,1-1.1a.26.26,0,0,1,.2-.11.46.46,0,0,1,.16.06,14.75,14.75,0,0,1,2,1.24,14.69,14.69,0,0,0,1.82-3.08l-3.85.08a19,19,0,0,1-3.33,3.5.54.54,0,0,1-.31.14.35.35,0,0,1-.25-.11,6,6,0,0,0-1.31-.71A17.2,17.2,0,0,0,132,152a5.71,5.71,0,0,0,.84-1.91,10,10,0,0,1,1.82.76.27.27,0,0,1,.17.25.42.42,0,0,1-.18.31,1.47,1.47,0,0,0-.33.33c-.13.22-.22.37-.48.78Z"/><path class="cls-6" d="M145.32,158a12.35,12.35,0,0,0-2.29.19.34.34,0,0,1-.35-.33,18.09,18.09,0,0,1-.24-1.88,20.54,20.54,0,0,0,3.36.19h5c1.18,0,2.38,0,3.58-.05.23,0,.27,0,.27.22a8.9,8.9,0,0,1,0,1.46c0,.18-.06.25-.27.23l-3.47,0Z"/><path class="cls-6" d="M165,156.54a8.81,8.81,0,0,1-.92,4,7.86,7.86,0,0,1-2.73,2.94.93.93,0,0,1-.47.18.45.45,0,0,1-.33-.15,4.25,4.25,0,0,0-1.38-.83,6.87,6.87,0,0,0,3.09-2.76,6.56,6.56,0,0,0,.8-3.35h-3c-.77,0-1.54.05-2.33.1-.14,0-.19-.1-.2-.3a9.07,9.07,0,0,1-.13-1.49c.88.08,1.75.08,2.65.08h7c1.21,0,2.11,0,3-.1.16,0,.17.1.17.31s0,1,0,1.2-.09.27-.23.27c-.81,0-1.88-.07-3-.07Zm-3.08-3.6c-.71,0-1.33,0-2.21.06-.2,0-.24-.08-.26-.27,0-.37-.06-.93-.11-1.49,1.09.06,1.88.08,2.58.08h2.86c.87,0,1.85,0,2.63-.06.16,0,.19.09.19.29a7.23,7.23,0,0,1,0,1.14c0,.21,0,.29-.2.29-.84,0-1.76,0-2.62,0Zm6.69-2.71c.08,0,.14,0,.22.05a7.24,7.24,0,0,1,1.32,1.8.18.18,0,0,1-.08.25l-.7.42a.16.16,0,0,1-.25-.08,7.42,7.42,0,0,0-1.4-1.94Zm1.48-.87c.09-.06.14,0,.21,0a6.52,6.52,0,0,1,1.32,1.74.18.18,0,0,1-.07.28l-.66.42a.17.17,0,0,1-.26-.08,7.52,7.52,0,0,0-1.38-1.93Z"/><path class="cls-6" d="M184,154.24c.76,0,1.63,0,2.35,0,.19,0,.2.07.22.24a8.42,8.42,0,0,1,0,1.23c0,.2-.05.27-.27.25h-2.87a9.31,9.31,0,0,1-1.2,4.78,7.32,7.32,0,0,1-3.67,2.9,1.37,1.37,0,0,1-.44.14c-.09,0-.17,0-.29-.17a3.61,3.61,0,0,0-1.29-.94c2.21-.68,3.4-1.47,4.2-2.75a7.56,7.56,0,0,0,.91-4h-3.31v.56c0,.91,0,1.75.05,2.58,0,.17-.09.2-.27.21a7.38,7.38,0,0,1-1.33,0c-.21,0-.3,0-.28-.21,0-.81.07-1.57.07-2.55v-.59h-.46c-.84,0-2.09,0-2.57.07-.12,0-.17-.09-.18-.29a12,12,0,0,1-.11-1.51c.65,0,1.66.08,2.86.08h.46v-1.14a11.15,11.15,0,0,0-.18-2.28,12.82,12.82,0,0,1,1.9.25c.17,0,.23.1.23.21a1,1,0,0,1-.1.33,4.19,4.19,0,0,0-.1,1.49v1.14h3.34v-1.53a10,10,0,0,0-.14-2.13,15.6,15.6,0,0,1,1.82.27c.22,0,.28.12.28.25a.77.77,0,0,1-.06.28,4.23,4.23,0,0,0-.12,1.36v1.48Zm.78-3.76a.17.17,0,0,1,.22.06,7.06,7.06,0,0,1,1.19,1.88c.05.11,0,.17-.09.24l-.64.32a.17.17,0,0,1-.26-.09,7.26,7.26,0,0,0-1.26-2Zm1.46-.67c.09-.05.14,0,.22.06a6.59,6.59,0,0,1,1.2,1.82.19.19,0,0,1-.1.27l-.62.31c-.14.06-.2,0-.25-.08a7.26,7.26,0,0,0-1.26-2Z"/><path class="cls-6" d="M197,159.92c0,1.07,0,2,0,3.23,0,.2-.06.27-.23.27a13.36,13.36,0,0,1-1.55,0c-.17,0-.24-.07-.22-.25,0-1.12.06-2.13.06-3.19v-3.62a26.51,26.51,0,0,1-4.28,3,.38.38,0,0,1-.23.06.4.4,0,0,1-.32-.15,6,6,0,0,0-1.34-.92,24.88,24.88,0,0,0,4.9-3.19,26.13,26.13,0,0,0,3.31-3.25,4.47,4.47,0,0,0,1-1.6,13.62,13.62,0,0,1,1.72,1.09.27.27,0,0,1,.13.23.47.47,0,0,1-.22.35,5.2,5.2,0,0,0-.93.85,24.64,24.64,0,0,1-1.82,2Z"/><path class="cls-6" d="M212.77,154.38c.87,0,1.89,0,2.7,0,.22,0,.28,0,.3.28a8.15,8.15,0,0,1,0,1.21c0,.25-.06.3-.3.3-.56,0-1.74-.06-2.61-.06h-2.21a8.16,8.16,0,0,1-1.05,4.24,8.68,8.68,0,0,1-3.32,3.06.6.6,0,0,1-.35.11.46.46,0,0,1-.35-.15,4.33,4.33,0,0,0-1.3-.86,7.93,7.93,0,0,0,3.53-2.81,6.76,6.76,0,0,0,.95-3.59h-3c-.76,0-1.64.06-2.23.07-.21,0-.25-.06-.28-.29s-.08-1-.11-1.54c1,.08,1.88.08,2.64.08h3.06c0-.78,0-1.62,0-2.3a6.69,6.69,0,0,0-.19-1.57,12.16,12.16,0,0,1,2.07.21c.17,0,.23.11.23.22a.82.82,0,0,1-.11.34,3.05,3.05,0,0,0-.12.95c0,.73,0,1.25,0,2.13Z"/><path class="cls-6" d="M221.38,158a12,12,0,0,0-2.28.19c-.19,0-.31-.1-.36-.33a16.14,16.14,0,0,1-.23-1.88,20.54,20.54,0,0,0,3.36.19h5c1.18,0,2.38,0,3.58-.05.23,0,.28,0,.28.22a11.85,11.85,0,0,1,0,1.46c0,.18-.06.25-.28.23L227,158Z"/><path class="cls-4" d="M257.74,56.36a14.37,14.37,0,0,1-14.33,14.33H64.87a14.33,14.33,0,0,1,0-28.66H243.41A14.37,14.37,0,0,1,257.74,56.36Z"/><path class="cls-5" d="M257.74,56.36a14.37,14.37,0,0,1-14.33,14.33H64.87a14.33,14.33,0,0,1,0-28.66H243.41A14.37,14.37,0,0,1,257.74,56.36Z"/><path class="cls-6" d="M112.2,52.85c-.89,0-1.84.06-2.76.12-.18,0-.24-.09-.28-.23-.12-.44-.21-1.21-.28-1.68,1.06.08,1.92.11,3.16.11h6.67a3,3,0,0,0,1.07-.1,1.18,1.18,0,0,1,.3-.1.55.55,0,0,1,.36.21,9.6,9.6,0,0,1,.93,1,.45.45,0,0,1,.12.28.39.39,0,0,1-.21.33,1.8,1.8,0,0,0-.42.45,13.25,13.25,0,0,1-2.74,3,.45.45,0,0,1-.33.14.62.62,0,0,1-.37-.15,3.55,3.55,0,0,0-1.29-.64,10.93,10.93,0,0,0,2.78-2.72Zm.87,6.06a7.19,7.19,0,0,0,.76-3.67,5.41,5.41,0,0,0-.16-1.46,17.33,17.33,0,0,1,2,.3c.2,0,.26.15.26.29a.6.6,0,0,1-.08.28,1.47,1.47,0,0,0-.13.64,9.58,9.58,0,0,1-.92,4.27,8.16,8.16,0,0,1-2.83,3.1.8.8,0,0,1-.44.15.41.41,0,0,1-.31-.14,4.49,4.49,0,0,0-1.41-.79A6.86,6.86,0,0,0,113.07,58.91Z"/><path class="cls-6" d="M127.31,60.82c-1,0-2,0-2.8.08-.15,0-.2-.09-.23-.29-.06-.36-.09-.89-.14-1.71,1.12.07,2.24.09,3.22.09H133c1.72,0,2.78-.05,3.5-.08.2,0,.25.08.25.28a10.14,10.14,0,0,1,0,1.35c0,.24,0,.33-.24.33-.74,0-2.35,0-3.4,0Zm1.43-6.6c-1,0-1.66,0-2.38.06-.15,0-.2-.1-.21-.33a10.14,10.14,0,0,1-.1-1.65c1,.08,1.71.1,2.65.1h3.07c1.2,0,2.13,0,2.8-.08.13,0,.17.08.17.26a8.07,8.07,0,0,1,0,1.39c0,.21,0,.29-.2.29-.73,0-1.72,0-2.72,0Z"/><path class="cls-6" d="M147.53,52.3a7.15,7.15,0,0,0,.59-1.91,7.54,7.54,0,0,1,2,1,.31.31,0,0,1,.15.26.47.47,0,0,1-.17.35,3.52,3.52,0,0,0-.7,1,30.69,30.69,0,0,1-1.77,3.08,18.21,18.21,0,0,1,2.29,2.11.35.35,0,0,1,.09.22.4.4,0,0,1-.08.2c-.31.41-.62.75-.95,1.11a.24.24,0,0,1-.18.1c-.08,0-.14,0-.22-.14a15.8,15.8,0,0,0-2-2.05,20.22,20.22,0,0,1-5.31,4.85.72.72,0,0,1-.36.13.45.45,0,0,1-.3-.11,4.61,4.61,0,0,0-1.4-.86,18.84,18.84,0,0,0,5.86-5.1,17,17,0,0,0-3-1.85c.45-.57.83-1.05,1-1.27a.19.19,0,0,1,.15-.08.42.42,0,0,1,.19.06A23.89,23.89,0,0,1,146,55.06,19.64,19.64,0,0,0,147.53,52.3Z"/><path class="cls-6" d="M156.85,57.57a12.35,12.35,0,0,0-2.29.19c-.19,0-.31-.09-.36-.33a15.57,15.57,0,0,1-.23-1.88,19.47,19.47,0,0,0,3.36.19h5c1.19,0,2.38,0,3.58-.05.23,0,.28,0,.28.22a11.85,11.85,0,0,1,0,1.46c0,.19-.06.25-.28.24-1.17,0-2.32,0-3.47,0Z"/><path class="cls-6" d="M177.65,52a1.62,1.62,0,0,0,.86-.23.43.43,0,0,1,.26-.11.5.5,0,0,1,.28.12,5,5,0,0,1,1.06,1,.39.39,0,0,1,.12.28.36.36,0,0,1-.17.29,2.08,2.08,0,0,0-.46.6,24.34,24.34,0,0,1-2.29,3.76A13.58,13.58,0,0,1,179,59.27a.31.31,0,0,1,.09.22.3.3,0,0,1-.09.2,11.1,11.1,0,0,1-1,1,.34.34,0,0,1-.19.08.24.24,0,0,1-.17-.1c-.38-.43-1-1-1.51-1.51a18.78,18.78,0,0,1-5,3.89.81.81,0,0,1-.39.14.41.41,0,0,1-.29-.14,4.63,4.63,0,0,0-1.48-.79A19,19,0,0,0,174.76,58a12.59,12.59,0,0,0-2.24-1.47c.34-.37.67-.77,1-1.1a.29.29,0,0,1,.2-.11.36.36,0,0,1,.15.06,16.08,16.08,0,0,1,2,1.25,15.22,15.22,0,0,0,1.82-3.08l-3.86.08a18.57,18.57,0,0,1-3.32,3.49.57.57,0,0,1-.31.14.36.36,0,0,1-.25-.1,6.76,6.76,0,0,0-1.31-.72,17.47,17.47,0,0,0,4.4-4.88,5.71,5.71,0,0,0,.84-1.91,9.34,9.34,0,0,1,1.82.76.27.27,0,0,1,.17.25.42.42,0,0,1-.19.31,1.21,1.21,0,0,0-.32.32c-.13.22-.22.38-.48.78Z"/><path class="cls-6" d="M186.38,57.57a12.35,12.35,0,0,0-2.29.19c-.18,0-.31-.09-.35-.33a15.12,15.12,0,0,1-.24-1.88,19.47,19.47,0,0,0,3.36.19h5c1.18,0,2.38,0,3.57-.05.24,0,.28,0,.28.22a11.85,11.85,0,0,1,0,1.46c0,.19-.06.25-.28.24-1.16,0-2.31,0-3.46,0Z"/><path class="cls-4" d="M257.74,106.59a14.37,14.37,0,0,1-14.33,14.32H64.87a14.33,14.33,0,1,1,0-28.65H243.41A14.37,14.37,0,0,1,257.74,106.59Z"/><path class="cls-5" d="M257.74,106.59a14.37,14.37,0,0,1-14.33,14.32H64.87a14.33,14.33,0,1,1,0-28.65H243.41A14.37,14.37,0,0,1,257.74,106.59Z"/><path class="cls-6" d="M133.44,102.76a2.91,2.91,0,0,0,1.29-.14.42.42,0,0,1,.22-.08.38.38,0,0,1,.26.13,7,7,0,0,1,1.12,1.24.61.61,0,0,1,.12.34.38.38,0,0,1-.2.33,4.44,4.44,0,0,0-.74.59,56.75,56.75,0,0,1-4.19,4.17,15.79,15.79,0,0,1,1.37,1.55.35.35,0,0,1,.11.23.38.38,0,0,1-.14.25,11.15,11.15,0,0,1-1,.92.4.4,0,0,1-.2.08.26.26,0,0,1-.19-.14,23.55,23.55,0,0,0-5-4.84c.31-.29.84-.79,1.12-1a.29.29,0,0,1,.17-.08.5.5,0,0,1,.22.11,26.2,26.2,0,0,1,2.21,1.74,34.63,34.63,0,0,0,3.59-3.67l-6.55,0c-.9,0-2,0-2.89.1-.2,0-.25-.09-.28-.28a14.51,14.51,0,0,1-.19-1.66c1.06.11,2.32.11,3.39.11Z"/><path class="cls-6" d="M140.58,101.7a.28.28,0,0,1,.22-.12.4.4,0,0,1,.2.08,16.36,16.36,0,0,1,3,2.2c.09.1.14.16.14.22a.29.29,0,0,1-.1.2c-.23.31-.74.94-1,1.17-.08.08-.12.12-.19.12s-.12,0-.2-.12a16.32,16.32,0,0,0-3.17-2.53C139.83,102.5,140.28,102,140.58,101.7Zm1.35,8.2a27.53,27.53,0,0,0,8.74-7.12,6.88,6.88,0,0,0,.43,1.81.75.75,0,0,1,.08.3c0,.14-.08.26-.25.47a25.71,25.71,0,0,1-3.57,3.29,33.82,33.82,0,0,1-4.7,3,5.23,5.23,0,0,0-1,.72.43.43,0,0,1-.28.15.38.38,0,0,1-.26-.17,10.46,10.46,0,0,1-1.25-1.73A9,9,0,0,0,141.93,109.9Z"/><path class="cls-6" d="M158.56,103.66c.06-.76.09-1.26.11-2.1a6.28,6.28,0,0,0-.11-1.23,12.46,12.46,0,0,1,2,.33.32.32,0,0,1,.26.33.63.63,0,0,1-.08.29,1.46,1.46,0,0,0-.2.73c0,.5-.06.87-.14,1.64h2.37c.71,0,1.44,0,2.16,0,.25,0,.32,0,.32.22s0,.83-.06,1.65a27,27,0,0,1-.57,5.12,2.5,2.5,0,0,1-1.84,2.1,6.79,6.79,0,0,1-1.57.17.37.37,0,0,1-.37-.31,3.23,3.23,0,0,0-.9-1.42,6.35,6.35,0,0,0,2.11-.14c.42-.14.62-.39.81-1.09a21.89,21.89,0,0,0,.47-4.66H160.2a11.54,11.54,0,0,1-1.38,4.3,10,10,0,0,1-3.3,3.21.64.64,0,0,1-.35.12.38.38,0,0,1-.3-.15,4,4,0,0,0-1.3-.91,8.68,8.68,0,0,0,3.65-3.17,9,9,0,0,0,1.12-3.36h-1.4c-.76,0-1.51,0-2.24.08-.16,0-.22-.08-.23-.26a13.53,13.53,0,0,1-.13-1.51c1,.06,1.68.06,2.58.06Zm5.83-2.84c.07-.07.14,0,.23,0a7.2,7.2,0,0,1,1.48,1.66.16.16,0,0,1,0,.25l-.65.48c-.11.08-.19.06-.27,0a7.62,7.62,0,0,0-1.57-1.8Zm1.38-1c.09-.07.14,0,.23,0a6.19,6.19,0,0,1,1.48,1.6.18.18,0,0,1,0,.28l-.62.48a.15.15,0,0,1-.26,0,7.11,7.11,0,0,0-1.56-1.78Z"/><path class="cls-6" d="M177.33,104.64a11.35,11.35,0,0,1-1.06.7,8.64,8.64,0,0,1,2,5.5c0,2.18-.53,2.91-2.35,2.91a7.4,7.4,0,0,1-.81,0c-.42,0-.42,0-.5-.42a3.31,3.31,0,0,0-.45-1.12,14.81,14.81,0,0,0,1.62.1c.65,0,1-.19,1-1.5a7.73,7.73,0,0,0-.05-.84,21.64,21.64,0,0,1-5.8,3.16,2,2,0,0,1-.37.11c-.13,0-.19-.09-.31-.34a2.82,2.82,0,0,0-.73-.91,19.18,19.18,0,0,0,6.9-3.43,7.92,7.92,0,0,0-.31-.75,21.69,21.69,0,0,1-4.92,2.35,1.64,1.64,0,0,1-.37.11c-.11,0-.17-.09-.29-.33a3.68,3.68,0,0,0-.69-.87,16.4,16.4,0,0,0,5.66-2.33,6.87,6.87,0,0,0-.45-.65,19,19,0,0,1-3.34,1.35c-.45.12-.47.11-.64-.19a2.88,2.88,0,0,0-.71-.92,17.61,17.61,0,0,0,4.86-1.66h-.81c-1.47,0-2,0-2.08,0s-.19,0-.19-.18v-1c0-.18,0-.19.19-.19s.61,0,2.08,0h4.42c1.49,0,2,0,2.1,0s.17,0,.17.19v1c0,.17,0,.18-.17.18s-.61,0-2,0a12.81,12.81,0,0,0,.76,2.29c.29-.28.59-.58,1-1a6.36,6.36,0,0,0,.67-.94,11.89,11.89,0,0,1,1.14.87c.17.13.23.22.23.31a.27.27,0,0,1-.2.24c-.21.08-.36.29-.69.62a17.09,17.09,0,0,1-1.4,1.24,10,10,0,0,0,3.5,3.22,4.53,4.53,0,0,0-.84,1.08c-.14.24-.2.35-.31.35a1,1,0,0,1-.33-.18c-2.62-1.93-4.05-4.56-5-8.09Zm3.62-3.76c1.43,0,1.94,0,2.05,0s.17,0,.17.17,0,.36,0,.74v.64c0,1.32,0,1.57,0,1.67s0,.17-.17.17h-1.27c-.16,0-.17,0-.17-.17v-1.84h-9.89v1.84c0,.15,0,.17-.17.17h-1.28c-.15,0-.17,0-.17-.17s0-.35,0-1.67v-.51c0-.51,0-.76,0-.87s0-.17.17-.17.62,0,2.05,0h3.41v0a5.76,5.76,0,0,0-.11-1.32c.56,0,1.13,0,1.68.09.15,0,.23.08.23.14a.77.77,0,0,1-.09.31,2.24,2.24,0,0,0-.08.78v0Z"/></g></g></svg>