<svg xmlns="http://www.w3.org/2000/svg" viewBox="0 0 618.25 474.94"><defs><style>.cls-1{fill:#231815;}.cls-2{fill:#e84d07;}</style></defs><g id="レイヤー_2" data-name="レイヤー 2"><g id="レイヤー_1-2" data-name="レイヤー 1"><path class="cls-1" d="M8.21,24.85c-3.5,0-4.68.07-4.9.07-.38,0-.42,0-.42-.41V22c0-.42,0-.46.42-.46.22,0,1.4.08,4.9.08h8.24a14.77,14.77,0,0,0,.27-2.32H13.07c-3.65,0-4.94.08-5.17.08-.38,0-.42,0-.42-.42V16.6c0-.41,0-.45.42-.45.23,0,1.52.07,5.17.07h3.76V14H13.34c-3.54,0-4.79.08-5,.08s-.42,0-.42-.46V11.25c0-.42,0-.46.42-.46s1.48.08,5,.08h3.45c0-1.18-.15-2.09-.22-2.82,1.25,0,2.73.08,3.87.23.46.08.68.23.68.5a2.36,2.36,0,0,1-.22.79,3,3,0,0,0-.19,1.3h3.91c3.5,0,4.75-.08,5-.08.42,0,.45,0,.45.46V13.6c0,.42,0,.46-.45.46-.23,0-1.48-.08-5-.08H20.71v2.24h4.1c3.69,0,4.9-.07,5.13-.07.42,0,.46,0,.46.45V19c0,.38,0,.42-.46.42-.23,0-1.44-.08-5.13-.08H20.63c0,.84-.15,1.6-.23,2.32H30c3.49,0,4.67-.08,4.9-.08.42,0,.45,0,.45.46v2.47c0,.38,0,.41-.45.41-.23,0-1.41-.07-4.9-.07H22c3,3.65,8.09,5.39,14.36,6.12A9,9,0,0,0,35,33.81c-.23.8-.35,1-.77,1a4.18,4.18,0,0,1-.83-.07c-6.12-1-11-3.54-14.48-8.33A9.2,9.2,0,0,1,18,27.77c-2.7,3.5-6.88,5.51-13,6.92a6.11,6.11,0,0,1-.88.15c-.3,0-.45-.26-.72-1a8.32,8.32,0,0,0-1.44-2.58c6.38-.91,11.17-3.08,13.07-5.81l.34-.57ZM29.56,4c3.53,0,4.79-.07,5-.07.39,0,.42,0,.42.41,0,.19-.07.88-.07,1.9v1.6c0,3.3.07,3.91.07,4.1,0,.38,0,.42-.42.42H31.46c-.38,0-.42,0-.42-.42V7.29H6.92v4.6c0,.38,0,.42-.46.42H3.38c-.38,0-.42,0-.42-.42,0-.19.08-.8.08-4.1V6.5C3,5.17,3,4.48,3,4.29c0-.38,0-.41.42-.41S4.9,4,8.4,4h8.28V3.76a15.63,15.63,0,0,0-.3-3.61c1.4,0,2.81.12,4.1.23.42,0,.61.19.61.34a2.19,2.19,0,0,1-.23.76,7.28,7.28,0,0,0-.19,2.28V4Z"/><path class="cls-1" d="M63.8,24.58c-1.37,4.56-4.3,7.75-8.82,10a2.93,2.93,0,0,1-.91.3c-.3,0-.45-.23-.83-.87a7.78,7.78,0,0,0-1.79-2.17c4-1.33,7-3.53,8.47-7.22h-.64c-3.38,0-4.49.08-4.71.08-.42,0-.46,0-.46-.42V21.77c0-.42,0-.46.46-.46.22,0,1.33.08,4.71.08h1.44c.08-.45.11-.95.15-1.48a16.28,16.28,0,0,0,0-1.94,27.1,27.1,0,0,1-2.92,1c-.87.23-.91.19-1.25-.68a12.87,12.87,0,0,0-1-1.87A20.83,20.83,0,0,1,54,20.21c-.34.57-.46.8-.65.8a1.8,1.8,0,0,1-.68-.3,10.23,10.23,0,0,0-2.24-.91A20,20,0,0,0,52.32,16H50.16v9.87c0,1.71.11,3.27.11,4.79s-.23,2.43-1.21,3.27c-.69.53-1.64.76-4.49.76-1.14,0-1.14,0-1.4-1.18a6.78,6.78,0,0,0-1-2.43,23.16,23.16,0,0,0,3.12.19c1.06,0,1.33-.3,1.33-1.1V23.48c0-1.18,0-2.36,0-3.53a25.54,25.54,0,0,1-4.44,7.82c-.34.38-.57.61-.8.61s-.42-.23-.68-.72a7.19,7.19,0,0,0-1.56-2A27.53,27.53,0,0,0,45.26,16h-.42c-3.19,0-4.26.07-4.48.07-.38,0-.42,0-.42-.45V13.11c0-.42,0-.46.42-.46.22,0,1.29.08,4.48.08h2.09a45.89,45.89,0,0,0-4.29-3.54c-.16-.11-.27-.22-.27-.3s.11-.19.3-.38l1.56-1.33c.38-.34.5-.34.84-.11L47.35,8.7a28.09,28.09,0,0,0,2.92-3.46H45.41c-3,0-4,.08-4.22.08s-.42,0-.42-.42V2.17c0-.38,0-.42.42-.42s1.22.07,4.22.07H52a1.71,1.71,0,0,0,.76-.15,1.51,1.51,0,0,1,.53-.15c.31,0,.65.23,1.45,1.06s1,1.26,1,1.64a.9.9,0,0,1-.53.72,6.75,6.75,0,0,0-1.06,1.14,33.52,33.52,0,0,1-4.26,4.79c.31.3.61.64,1,1s.27.38-.15.72l-.23.19h2.4a1.31,1.31,0,0,0,.72-.15,1,1,0,0,1,.49-.12c.23,0,.61.19,1.33.88.91.83,1.1,1.21,1.1,1.55s-.07.42-.38.69a.81.81,0,0,0-.26.26,21.33,21.33,0,0,0,6.38-2.47,18.82,18.82,0,0,1-3-3.64l-1.6,1.82c-.3.34-.49.49-.72.49s-.38-.15-.65-.49A8.24,8.24,0,0,0,54.15,9.8a21.66,21.66,0,0,0,5.58-7.33A9.26,9.26,0,0,0,60.57,0c1.1.19,2.54.53,3.49.76.35.08.54.23.54.49a.73.73,0,0,1-.38.57,3.13,3.13,0,0,0-.76,1.07c-.19.38-.35.76-.54,1.1h6.46c3,0,3.92-.08,4.14-.08.38,0,.42,0,.42.42V6.8c0,.38,0,.42-.42.42-.19,0-.79,0-2.35-.08a17.32,17.32,0,0,1-3.5,6.16A18.93,18.93,0,0,0,75,15.81a10.12,10.12,0,0,0-1.3,2.66c-.45,1.14-.45,1.14-1.59.83A24.14,24.14,0,0,1,65,15.69a19.7,19.7,0,0,1-3.35,1.94c1,.08,2,.19,2.89.3.46.08.68.23.68.46a1.22,1.22,0,0,1-.3.76,3.24,3.24,0,0,0-.34,1.56l-.12.68h2.82c3.42,0,4.59-.08,4.82-.08s.46.12.46.5l-.16,2.32c-.22,3.72-.41,6.11-1.25,7.75-.68,1.56-1.78,2.58-4.25,2.58-.65,0-1.37,0-2.17,0-1.06-.07-1.06-.07-1.33-1.33a10.69,10.69,0,0,0-.84-2.39,19.63,19.63,0,0,0,3.27.34c1,0,1.45-.15,1.83-.8.53-.91.76-3,1-5.66ZM61.71,7.14a15.75,15.75,0,0,0,3.15,4.11,11.64,11.64,0,0,0,2.47-4.11Z"/><path class="cls-1" d="M96.67,12.61a30.19,30.19,0,0,1-2.58,1.71,21.06,21.06,0,0,1,5,13.45c0,5.32-1.29,7.11-5.73,7.11a16.64,16.64,0,0,1-2-.08c-1-.07-1-.07-1.22-1A7.77,7.77,0,0,0,89,31a36.63,36.63,0,0,0,4,.23c1.6,0,2.32-.46,2.32-3.65a19.66,19.66,0,0,0-.11-2.05A52.84,52.84,0,0,1,81,33.28a3.75,3.75,0,0,1-.92.27c-.3,0-.45-.23-.76-.84a6.46,6.46,0,0,0-1.78-2.2,47.3,47.3,0,0,0,16.87-8.4c-.23-.61-.46-1.21-.76-1.82a53.27,53.27,0,0,1-12,5.74,3.9,3.9,0,0,1-.91.26c-.27,0-.42-.23-.72-.8a9.22,9.22,0,0,0-1.67-2.12,40.16,40.16,0,0,0,13.83-5.7c-.35-.53-.69-1.07-1.11-1.6a46.75,46.75,0,0,1-8.16,3.31c-1.11.3-1.14.26-1.56-.46a6.75,6.75,0,0,0-1.75-2.24A43.59,43.59,0,0,0,91.5,12.61h-2c-3.61,0-4.87.08-5.1.08-.41,0-.45,0-.45-.46V9.84c0-.42,0-.46.45-.46.23,0,1.49.08,5.1.08h10.79c3.64,0,4.9-.08,5.13-.08s.41,0,.41.46v2.39c0,.42,0,.46-.41.46s-1.49-.08-5-.08a30.53,30.53,0,0,0,1.86,5.59,30.86,30.86,0,0,0,2.36-2.47,16.81,16.81,0,0,0,1.63-2.28,24.17,24.17,0,0,1,2.78,2.13c.41.3.56.53.56.76a.65.65,0,0,1-.49.57c-.49.19-.87.72-1.67,1.52-1.14,1.1-2.32,2.16-3.42,3a24.5,24.5,0,0,0,8.55,7.86,10.87,10.87,0,0,0-2,2.62c-.35.61-.5.88-.76.88s-.38-.19-.8-.46c-6.42-4.71-9.92-11.13-12.12-19.76Zm8.85-9.19c3.5,0,4.75-.08,5-.08s.42,0,.42.42-.08.88-.08,1.83V7.14c0,3.23.08,3.84.08,4.07s0,.42-.42.42h-3.12c-.38,0-.42,0-.42-.42V6.73H82.84v4.48c0,.38,0,.42-.42.42H79.31c-.38,0-.42,0-.42-.42s.07-.84.07-4.07V5.89c0-1.25-.07-1.86-.07-2.13s0-.42.42-.42,1.52.08,5,.08h8.32V3.34A14.37,14.37,0,0,0,92.38.11c1.36,0,2.77.12,4.1.23.38,0,.57.19.57.34a2,2,0,0,1-.23.76,5.91,5.91,0,0,0-.19,1.9v.08Z"/><path class="cls-1" d="M124.14,27.39c-1.59.27-3.19.46-4.71.65a5.29,5.29,0,0,0-1.44.34,1.1,1.1,0,0,1-.61.19c-.23,0-.42-.15-.53-.53a18.81,18.81,0,0,1-.8-3.27c1.48,0,2.66-.11,4.07-.26,1.17-.12,2.54-.27,4-.46,0-.87-.12-1.67-.23-2.47.61,0,1.14.08,1.63.15a21.2,21.2,0,0,0,2-2.16h-5.82a37.33,37.33,0,0,1-3.57,2,2.6,2.6,0,0,1-.87.31c-.3,0-.42-.23-.8-.88a6,6,0,0,0-1.37-1.78,36.73,36.73,0,0,0,8.7-5.25H121.1c-3.38,0-4.55.08-4.78.08s-.38,0-.38-.42V11.25c0-.38,0-.42.38-.42s1.4.07,4.78.07h1.71V7.71h-1c-2.59,0-3.42.08-3.69.08s-.42,0-.42-.42V5c0-.38,0-.42.42-.42s1.1.08,3.69.08h1a23.7,23.7,0,0,0-.26-4.18,28.4,28.4,0,0,1,3.57.26c.38,0,.61.19.61.38a1.87,1.87,0,0,1-.23.8c-.23.42-.19,1.1-.19,2.74,2.2,0,3-.08,3.19-.08.38,0,.42,0,.42.42V7.37a31.39,31.39,0,0,0,1.71-2.73,13.18,13.18,0,0,0,1.06-2.59,20.67,20.67,0,0,1,3,1.6c.38.23.53.42.53.68a.73.73,0,0,1-.38.61,3.44,3.44,0,0,0-1.17,1.33,35.31,35.31,0,0,1-3.16,4.63c1.49,0,2.13-.07,2.32-.07.42,0,.46,0,.46.42V13.6c0,.38,0,.42-.46.42-.23,0-1.37-.08-4.56-.08h-.49a30,30,0,0,1-3.08,2.74h3.5a1.12,1.12,0,0,0,.64-.11.91.91,0,0,1,.42-.16c.27,0,.49.16,1.18.95s1,1.11,1,1.41-.12.49-.46.65a2.53,2.53,0,0,0-1.21.95,35.64,35.64,0,0,1-2.89,2.88.53.53,0,0,0-.08.23c2.09-.38,4.3-.76,6.35-1.25a16.1,16.1,0,0,0-.27,2.12c-.08,1.22-.08,1.22-1.29,1.45-1.6.38-3.23.72-4.9,1v.27c0,1.56.07,2.81.07,3.84a3.33,3.33,0,0,1-1.21,2.92c-1,.73-1.9.92-4.56.92-1.18,0-1.25,0-1.44-.88a8.69,8.69,0,0,0-1-2.7,24.73,24.73,0,0,0,3.11.19c1.07,0,1.52-.3,1.52-1.21Zm5.36-19.6c-.23,0-1-.08-3.19-.08V10.9H127a28.47,28.47,0,0,0,2.59-3.11Zm20.9,2.7c0,.38,0,.41-.42.41l-2.39-.07c-.27,5.74-1.6,10.67-3.73,14.13A27.36,27.36,0,0,0,151,31a10.16,10.16,0,0,0-1.74,2.74c-.31.61-.42.87-.69.87a2,2,0,0,1-.8-.41,39,39,0,0,1-6.23-6.08,26.33,26.33,0,0,1-8.35,6.53,2.56,2.56,0,0,1-.95.34c-.27,0-.42-.19-.69-.72A7.44,7.44,0,0,0,129.73,32a23.16,23.16,0,0,0,9.76-7.06,32.3,32.3,0,0,1-2.88-7.64c-.35.49-.65,1-1,1.48s-.53.65-.72.65-.42-.23-.8-.69A7.07,7.07,0,0,0,132.2,17c3.19-3.72,5.09-9,6.08-13.52a19.73,19.73,0,0,0,.38-3.19c1.06.19,2.62.53,3.46.72.45.15.64.3.64.57s-.19.49-.38.83a5.4,5.4,0,0,0-.53,1.71,35.66,35.66,0,0,1-.91,3.46h4.56c3.19,0,4.25-.08,4.48-.08.38,0,.42,0,.42.42Zm-10.6.34c-.27.64-.53,1.29-.84,1.94a32.62,32.62,0,0,0,2.62,8.66,29.2,29.2,0,0,0,2.36-10.6Z"/><path class="cls-1" d="M164.77,28.27A18.22,18.22,0,0,1,167.69,30c.38.26.5.38.5.61s-.23.45-.61.53a6.1,6.1,0,0,0-1.48.68,31.54,31.54,0,0,1-8.48,3.27,4.83,4.83,0,0,1-.79.15c-.42,0-.54-.26-.92-1a10.53,10.53,0,0,0-1.74-2.4,28.52,28.52,0,0,0,8.47-2.35,7.58,7.58,0,0,0,1.9-1.18h-.91c-3.73,0-5.06.07-5.28.07-.42,0-.46,0-.46-.41s.08-1.37.08-4V16c0-2.66-.08-3.8-.08-4,0-.38,0-.42.46-.42.22,0,1.55.07,5.28.07h14.66c3.73,0,5.06-.07,5.28-.07.38,0,.42,0,.42.42,0,.22-.07,1.36-.07,4v7.91c0,2.62.07,3.8.07,4,0,.38,0,.41-.42.41-.22,0-1.55-.07-5.28-.07ZM176.39,1.52c3.61,0,4.87-.08,5.09-.08.38,0,.42,0,.42.42,0,.23-.07.88-.07,2.55V6.88c0,1.63.07,2.28.07,2.5,0,.38,0,.42-.42.42-.22,0-1.48-.07-5.09-.07H165.56c-3.61,0-4.82.07-5.09.07s-.42,0-.42-.42.08-.87.08-2.5V4.41c0-1.67-.08-2.32-.08-2.55,0-.38,0-.42.42-.42s1.48.08,5.09.08ZM161.88,16.41H180V14.55H161.88ZM180,20.82v-1.9H161.88v1.9Zm0,2.55H161.88v2H180ZM177.87,4.48H164.08v2.4h13.79Zm-1.33,24.09a.85.85,0,0,1,.5-.23.74.74,0,0,1,.3.12,27.54,27.54,0,0,0,10.45,3.34,12.86,12.86,0,0,0-1.86,2.32c-.46.72-.61,1-1,1a6.32,6.32,0,0,1-.8-.15,30.94,30.94,0,0,1-10.07-4.22c-.15-.12-.22-.19-.22-.31s.11-.22.38-.38Z"/><path class="cls-1" d="M201.06,4.52c.64.34.87.57.87.91s-.08.38-.57,1.14a9,9,0,0,0-.91,2.7,61.2,61.2,0,0,0-1.6,12.27,37.11,37.11,0,0,0,.23,4.45c.8-1.75,1.48-3,2.58-5.66A10.19,10.19,0,0,0,203,22.72a1.45,1.45,0,0,1,.27.57,1.08,1.08,0,0,1-.19.61,37.29,37.29,0,0,0-2.17,5.74,4.51,4.51,0,0,0-.11,1.17c0,.46.08.76.08,1.07s-.16.42-.5.49a18,18,0,0,1-3.11.61c-.27,0-.42-.15-.5-.42A35.71,35.71,0,0,1,195,21.24a71.86,71.86,0,0,1,1.29-12.46A31,31,0,0,0,197,3.12,16.45,16.45,0,0,1,201.06,4.52Zm8.13,17.9c.3,0,.38.15.38.57.22,2.62,2.05,3.57,6.19,3.57a53.53,53.53,0,0,0,7.26-.5c.38,0,.45,0,.53.5a29.08,29.08,0,0,1,.23,3.27c0,.45,0,.49-.65.57a51.58,51.58,0,0,1-6.19.41c-5.63,0-8.25-.91-9.88-3.15a8.37,8.37,0,0,1-1.33-4.94ZM207.06,8.21c0-.46.15-.57.53-.65a60.31,60.31,0,0,1,8.25-.68c2.28,0,4,.07,5.62.22.8,0,.87.12.87.5,0,1.14,0,2.16-.07,3.23,0,.34-.15.49-.5.45-2.28-.15-4.25-.22-6.19-.22a46,46,0,0,0-8.62.87C207,9.8,207,8.85,207.06,8.21Z"/><path class="cls-1" d="M257.1,8.78a.32.32,0,0,1,.46.22,28.24,28.24,0,0,1,.91,3.23c.08.42-.07.5-.3.57a55.66,55.66,0,0,1-9.62,1.71c.08,3.08.27,5.17.65,8.78a44.83,44.83,0,0,1,11,4.9c.27.15.3.34.15.65a17.29,17.29,0,0,1-2,3.19c-.23.23-.34.34-.65.11a35.61,35.61,0,0,0-8.43-4.78,6.94,6.94,0,0,1,0,.87c-.15,3.27-2.58,5.7-7.68,5.7-4.67,0-8.09-2.09-8.09-5.59s3.61-5.81,8.32-5.81a27.32,27.32,0,0,1,3.19.11c-.45-5-.57-8.58-.64-12.19,0-1.37-.08-3.31-.12-5.24a10.92,10.92,0,0,0-.53-3.46,34.24,34.24,0,0,1,4.86.68c.42.12.61.34.61.65a1.08,1.08,0,0,1-.19.57,4.65,4.65,0,0,0-.45,2.05c-.08,1.14-.08,2.81-.08,4.79A37.23,37.23,0,0,0,257.1,8.78Zm-12,17.55a17.46,17.46,0,0,0-3.5-.38c-2.66,0-4.37.87-4.37,2.24s1.52,1.94,3.92,1.94c2.85,0,4.1-1.67,4-3.27Z"/><path class="cls-1" d="M282.64,16.15a11.39,11.39,0,0,1,6-1.71c5.55,0,9.43,3.65,9.43,9.12C298.11,29.9,293,34,284.85,34c-4.79,0-7.68-2-7.68-5.59,0-2.54,2.39-4.63,5.36-4.63a6.91,6.91,0,0,1,7.14,5.54c2.66-1.21,3.88-2.88,3.88-5.77,0-3.46-2.44-5.74-6-5.74a15.5,15.5,0,0,0-9.73,4c-1.1,1-2.16,2.09-3.3,3.23-.27.26-.46.42-.65.42a1,1,0,0,1-.57-.35,17.36,17.36,0,0,1-2.24-2.47c-.23-.3-.11-.57.19-.87a89.43,89.43,0,0,0,9-8.4c2.35-2.43,4.14-4.33,5.88-6.49-2.27.41-5,1-7.33,1.44a12.13,12.13,0,0,0-1.59.46,3,3,0,0,1-.76.19.87.87,0,0,1-.84-.65,17.87,17.87,0,0,1-1.33-4.1,18.11,18.11,0,0,0,3.53.07c2.32-.22,5.67-.72,8.63-1.29a10.08,10.08,0,0,0,2.09-.57,2,2,0,0,1,.72-.3,1.33,1.33,0,0,1,.87.3,15.09,15.09,0,0,1,2.55,2.43,1.36,1.36,0,0,1,.42.92,1,1,0,0,1-.65.91,6.19,6.19,0,0,0-1.67,1.21c-2.77,2.7-5.32,5.36-8.21,8.13Zm0,10.83c-1.1,0-1.82.64-1.82,1.44,0,1.18,1,2,3.3,2a7.9,7.9,0,0,0,1.75-.16C285.42,28.15,284.28,27,282.68,27Z"/><path class="cls-1" d="M314.26,6.23V13c2.28,0,3-.08,3.27-.08.38,0,.41,0,.41.42v2.81c0,.38,0,.42-.41.42-.23,0-1-.08-3.27-.08v6.31c1.44-.65,2.89-1.33,4.22-2.09a17.52,17.52,0,0,0,0,2.51c.07,1.21.07,1.21-.92,1.74a76.34,76.34,0,0,1-8.73,3.92,8.36,8.36,0,0,0-1.18.53c-.27.19-.38.27-.61.27s-.38-.12-.49-.46a31,31,0,0,1-.95-3.57,33.71,33.71,0,0,0,3.57-.95c.41-.12.83-.27,1.25-.42V16.45c-2.47,0-3.27.08-3.49.08-.38,0-.42,0-.42-.42V13.3c0-.38,0-.42.42-.42.22,0,1,.08,3.49.08V6.23h-.23c-2.66,0-3.49.08-3.72.08s-.38,0-.38-.46V3.08c0-.38,0-.42.38-.42s1.06.08,3.72.08h4.22c2.66,0,3.46-.08,3.69-.08s.41,0,.41.42V5.85c0,.42,0,.46-.41.46s-1-.08-3.69-.08Zm18.62,23.25c0,.76,0,1,.41,1.18a4,4,0,0,0,1.37.12,2.9,2.9,0,0,0,2-.46c.53-.46.64-1.67.76-4.37a7.42,7.42,0,0,0,2.47,1.22c.87.26.95.38.87,1.33-.19,2.62-.68,4-1.56,4.78s-2.35,1.14-4.71,1.14a10.61,10.61,0,0,1-4.18-.57,2.5,2.5,0,0,1-1.18-2.5V22.72H327c-.42,6.88-3.76,10.18-10.53,12.05a4.13,4.13,0,0,1-.83.19c-.38,0-.53-.19-1-.92a8.45,8.45,0,0,0-1.75-2.12c6.54-1.52,9.92-3.2,10.26-9.2-2.13,0-2.92.08-3.11.08-.38,0-.42,0-.42-.42s.07-1.63.07-4.64V6.84c0-3-.07-4.41-.07-4.64,0-.41,0-.45.42-.45.22,0,1.36.07,4.75.07h7.9c3.38,0,4.48-.07,4.75-.07s.42,0,.42.45c0,.23-.08,1.64-.08,4.64v10.9c0,3,.08,4.41.08,4.64,0,.38,0,.42-.42.42s-1.37-.08-4.52-.08ZM323.42,5.24V7.9h10.52V5.24Zm10.52,8.4V11H323.42v2.62Zm0,3.15H323.42v2.7h10.52Z"/><path class="cls-1" d="M351.84,21.28c1-.5,2.09-1,3.15-1.56,0,.65,0,1.52,0,2.35,0,1.26,0,1.18-1,1.75a53.14,53.14,0,0,1-7,3.27,6.09,6.09,0,0,0-1.22.53,1.16,1.16,0,0,1-.68.34c-.23,0-.38-.11-.57-.49a24,24,0,0,1-1-3.38,26.57,26.57,0,0,0,3.76-.95c.27-.12.57-.19.88-.31V13.41h-.31c-2.5,0-3.26.08-3.49.08s-.38,0-.38-.42V10.18c0-.38,0-.42.38-.42s1,.08,3.49.08h.31V6.57a34.57,34.57,0,0,0-.31-5.73c1.48,0,2.62.11,3.88.22.38,0,.61.23.61.42a2,2,0,0,1-.23.76c-.19.5-.23,1.45-.23,4.22V9.84c2.05,0,2.77-.08,3-.08.38,0,.42,0,.42.42v2.89c0,.38,0,.42-.42.42-.23,0-.95-.08-3-.08Zm20.21,2a24.44,24.44,0,0,1-9.34,11c-.46.26-.69.42-.92.42s-.49-.23-.94-.73a7.55,7.55,0,0,0-1.68-1.44c4.68-2.51,7.6-5.55,9.35-9.27h-2a25.31,25.31,0,0,1-8.85,8.43,2.3,2.3,0,0,1-.95.42c-.31,0-.5-.23-.95-.72a6.87,6.87,0,0,0-1.6-1.33,21.69,21.69,0,0,0,8.47-6.8H360.2a20.76,20.76,0,0,1-5,4.48c-.49.31-.72.5-.95.5s-.41-.23-.79-.69A8,8,0,0,0,351.61,26a19.54,19.54,0,0,0,7-6.23,8.25,8.25,0,0,0,.8-1.6c-3.12,0-4.29.08-4.48.08-.38,0-.42,0-.42-.46V15.35c0-.38,0-.42.42-.42.22,0,1.48.08,5.16.08h12.73c3.69,0,5-.08,5.17-.08.38,0,.42,0,.42.42v2.47c0,.42,0,.46-.42.46-.19,0-1.48-.08-5.17-.08h-11.4l1.26.3c.34.12.53.35.53.5a.51.51,0,0,1-.31.49,1.86,1.86,0,0,0-.6.69h9.91c3.23,0,4.34-.08,4.56-.08.42,0,.53.08.5.49L377,24.43a25.49,25.49,0,0,1-1.18,7.3,4,4,0,0,1-4.29,2.92,17.69,17.69,0,0,1-1.94-.07c-.87-.08-.87-.08-1.18-1.26a12.63,12.63,0,0,0-1-2.51,20.27,20.27,0,0,0,3.45.23c.84,0,1.14-.11,1.49-1.18a30.8,30.8,0,0,0,1-6.53ZM369.89,1.6c3.27,0,4.33-.08,4.6-.08s.41,0,.41.42-.07,1.14-.07,3.23V9.76c0,2.17.07,3,.07,3.27,0,.38,0,.42-.41.42s-1.33-.08-4.6-.08h-7.14c-3.31,0-4.37.08-4.64.08s-.42,0-.42-.42.08-1.1.08-3.27V5.17c0-2.09-.08-3-.08-3.23s0-.42.42-.42,1.33.08,4.64.08Zm-8.63,2.85V6.27h10V4.45Zm10,4.33h-10v1.86h10Z"/><path class="cls-1" d="M387.18,34c-3.34,0-4.48,0-4.71,0-.38,0-.38,0-.38-.38V31.16c0-.38,0-.42.38-.42.23,0,1.37.07,4.71.07h9.65V29h-6.46c-3.68,0-4.94.08-5.16.08-.38,0-.42,0-.42-.46V26.41c0-.42,0-.46.42-.46.22,0,1.48.08,5.16.08h6.46v-1.9H392.2c-3.73,0-5.06.07-5.28.07-.42,0-.46,0-.46-.42,0-.22.08-1.1.08-3.38v-5c0-2.13-.08-3-.08-3.27,0-.42,0-.45.46-.45.22,0,1.55.07,5.28.07h4.63V9.92h-9.65c-3.38,0-4.52.07-4.75.07s-.38,0-.38-.42V7.18c0-.38,0-.42.38-.42s1.37.08,4.75.08h9.65V4.94c-3.42.23-6.76.34-10.07.38-.8,0-.8,0-1.1-1a6.85,6.85,0,0,0-1.18-2.09c4.75,0,8.93-.15,13-.42,3.68-.26,6.65-.68,9-1.06A22.33,22.33,0,0,0,409.6.08,18.34,18.34,0,0,1,412,2.39a.81.81,0,0,1,.31.65c0,.3-.34.46-.76.46a18.33,18.33,0,0,0-2.28.22c-2.66.46-5.51.69-8.59.92v2.2h10.22c3.38,0,4.52-.08,4.75-.08s.38,0,.38.42V9.57c0,.38,0,.42-.38.42s-1.37-.07-4.75-.07H400.63V11.7h5.21c3.72,0,5.05-.07,5.28-.07.42,0,.45,0,.45.45,0,.23-.07,1.14-.07,3.27v5c0,2.28.07,3.16.07,3.38,0,.38,0,.42-.45.42-.23,0-1.56-.07-5.28-.07h-5.21V26h7c3.69,0,4.94-.08,5.17-.08.42,0,.45,0,.45.46v2.16c0,.42,0,.46-.45.46-.23,0-1.48-.08-5.17-.08h-7v1.86h10.3c3.34,0,4.48-.07,4.71-.07s.38,0,.38.42v2.46c0,.35,0,.38-.38.38s-1.37,0-4.71,0Zm9.65-17.37V14.48h-6.61V16.6Zm0,4.79v-2.2h-6.61v2.2Zm3.8-6.91V16.6h7.11V14.48Zm7.11,4.71h-7.11v2.2h7.11Z"/><path class="cls-1" d="M429.7,6.46a1.23,1.23,0,0,0,.72-.15.88.88,0,0,1,.46-.23c.3,0,.68.23,1.6,1.06s1,1,1,1.3a.92.92,0,0,1-.45.83,3.71,3.71,0,0,0-.92,1.41,29.5,29.5,0,0,1-2.73,5,16.13,16.13,0,0,0,4.82,4.41,10,10,0,0,0-2,2.77c-.19.31-.34.5-.53.5s-.35-.16-.61-.46a21.68,21.68,0,0,1-2.47-3.11v9.27c0,2.81.07,5.43.07,5.62,0,.38,0,.42-.45.42h-3c-.42,0-.46,0-.46-.42,0-.23.08-2.81.08-5.62V21.28c-1.07,1.14-2.17,2.2-3.31,3.23-.38.34-.64.53-.83.53s-.31-.23-.42-.61A9.87,9.87,0,0,0,419,21.35,26.46,26.46,0,0,0,428.45,10h-4c-2.77,0-3.69.08-3.91.08-.38,0-.42,0-.42-.42V6.8c0-.38,0-.42.42-.42.22,0,1.14.08,3.91.08h.42V4.9A19,19,0,0,0,424.5.27a34.17,34.17,0,0,1,4.1.34c.38,0,.61.19.61.38a1.87,1.87,0,0,1-.23.8c-.23.45-.34,1-.34,3V6.46Zm17.86,23.1c0,.8,0,1.06.42,1.22a6,6,0,0,0,1.25.07c.65,0,.95,0,1.37-.42s.68-1.48.76-4.37a6.34,6.34,0,0,0,2.43,1.18c.88.27.95.38.88,1.37-.2,2.58-.73,4-1.56,4.79s-1.86,1.14-4.07,1.14a9.48,9.48,0,0,1-4.1-.54,2.64,2.64,0,0,1-1.14-2.58V22.8h-1.75c-.49,7.29-4.18,9.8-8.78,11.74a3.08,3.08,0,0,1-.91.26c-.3,0-.45-.22-.83-.8a5.66,5.66,0,0,0-1.94-2.12c5.09-1.29,8.32-3.5,8.7-9.08-2.32,0-3.27.07-3.42.07-.38,0-.42,0-.42-.42s.08-1.63.08-4.63V6.92c0-3-.08-4.41-.08-4.64,0-.42,0-.46.42-.46.19,0,1.37.08,4.71.08h7.52c3.35,0,4.49-.08,4.75-.08s.42,0,.42.46c0,.23-.07,1.63-.07,4.64v10.9c0,3,.07,4.41.07,4.63,0,.38,0,.42-.42.42s-1.33-.07-4.29-.07ZM438.29,5.32V8h10.07V5.32Zm10.07,8.43V11.09H438.29v2.66Zm0,3.08H438.29v2.74h10.07Z"/><path class="cls-1" d="M477.43,8.78c-.88,6.46-2.47,12.38-4.75,16.37-1.63,2.85-3.61,4.37-6.46,4.37-3.34,0-6.72-3.57-6.72-9.76a14,14,0,0,1,4.29-9.88A16.63,16.63,0,0,1,476.14,5c9.12,0,14.47,5.62,14.47,13.18,0,7.07-4,11.51-11.7,13.83-.8.23-1.14.08-1.63-.68a8.15,8.15,0,0,0-2.66-2.4c6.42-1.52,11.47-4.18,11.47-11.36a8.63,8.63,0,0,0-8.51-8.81Zm-10.91,3.68a11,11,0,0,0-3,7c0,3.5,1.41,5.43,2.58,5.43,1,0,1.83-.49,2.85-2.31A43.05,43.05,0,0,0,473,9,11.51,11.51,0,0,0,466.52,12.46Z"/><path class="cls-1" d="M504.14,27.39c-1.59.27-3.19.46-4.71.65a5.29,5.29,0,0,0-1.44.34,1.1,1.1,0,0,1-.61.19c-.23,0-.42-.15-.53-.53a18.81,18.81,0,0,1-.8-3.27c1.48,0,2.66-.11,4.07-.26,1.17-.12,2.54-.27,4-.46,0-.87-.12-1.67-.23-2.47.61,0,1.14.08,1.63.15a21.2,21.2,0,0,0,2-2.16h-5.82a37.33,37.33,0,0,1-3.57,2,2.6,2.6,0,0,1-.87.31c-.3,0-.42-.23-.8-.88a6,6,0,0,0-1.37-1.78,36.73,36.73,0,0,0,8.7-5.25H501.1c-3.38,0-4.55.08-4.78.08s-.38,0-.38-.42V11.25c0-.38,0-.42.38-.42s1.4.07,4.78.07h1.71V7.71h-1c-2.59,0-3.42.08-3.69.08s-.42,0-.42-.42V5c0-.38,0-.42.42-.42s1.1.08,3.69.08h1a23.7,23.7,0,0,0-.26-4.18,28.4,28.4,0,0,1,3.57.26c.38,0,.61.19.61.38a1.87,1.87,0,0,1-.23.8c-.23.42-.19,1.1-.19,2.74,2.2,0,3-.08,3.19-.08s.42,0,.42.42V7.37a31.39,31.39,0,0,0,1.71-2.73,13.82,13.82,0,0,0,1.06-2.59,21.19,21.19,0,0,1,3,1.6c.38.23.53.42.53.68a.73.73,0,0,1-.38.61,3.44,3.44,0,0,0-1.17,1.33,35.31,35.31,0,0,1-3.16,4.63c1.49,0,2.13-.07,2.32-.07.42,0,.46,0,.46.42V13.6c0,.38,0,.42-.46.42-.23,0-1.37-.08-4.56-.08h-.49a30,30,0,0,1-3.08,2.74h3.5a1.12,1.12,0,0,0,.64-.11.91.91,0,0,1,.42-.16c.27,0,.49.16,1.18.95s.95,1.11.95,1.41-.12.49-.46.65a2.53,2.53,0,0,0-1.21.95,35.64,35.64,0,0,1-2.89,2.88.53.53,0,0,0-.08.23c2.09-.38,4.29-.76,6.35-1.25a16.1,16.1,0,0,0-.27,2.12c-.08,1.22-.08,1.22-1.29,1.45-1.6.38-3.23.72-4.9,1v.27c0,1.56.07,2.81.07,3.84a3.33,3.33,0,0,1-1.21,2.92c-1,.73-1.9.92-4.56.92-1.18,0-1.26,0-1.44-.88a8.69,8.69,0,0,0-1-2.7,24.73,24.73,0,0,0,3.11.19c1.07,0,1.52-.3,1.52-1.21Zm5.36-19.6c-.23,0-1-.08-3.19-.08V10.9H507a28.47,28.47,0,0,0,2.59-3.11Zm20.9,2.7c0,.38,0,.41-.42.41l-2.39-.07c-.27,5.74-1.6,10.67-3.73,14.13A27.36,27.36,0,0,0,531,31a10.16,10.16,0,0,0-1.74,2.74c-.31.61-.42.87-.69.87a2,2,0,0,1-.79-.41,38.66,38.66,0,0,1-6.24-6.08,26.33,26.33,0,0,1-8.35,6.53,2.62,2.62,0,0,1-1,.34c-.27,0-.42-.19-.69-.72A7.44,7.44,0,0,0,509.73,32a23.16,23.16,0,0,0,9.76-7.06,32.3,32.3,0,0,1-2.88-7.64c-.35.49-.65,1-1,1.48s-.53.65-.72.65-.42-.23-.8-.69A7.07,7.07,0,0,0,512.2,17c3.19-3.72,5.09-9,6.08-13.52a19.73,19.73,0,0,0,.38-3.19c1.06.19,2.62.53,3.46.72.45.15.64.3.64.57s-.19.49-.38.83a5.4,5.4,0,0,0-.53,1.71,35.66,35.66,0,0,1-.91,3.46h4.56c3.19,0,4.25-.08,4.48-.08s.42,0,.42.42Zm-10.6.34c-.27.64-.53,1.29-.84,1.94a32.62,32.62,0,0,0,2.62,8.66,29.2,29.2,0,0,0,2.36-10.6Z"/><path class="cls-1" d="M539.29,7c-3.38,0-4.52.07-4.74.07-.38,0-.42,0-.42-.41V4.18c0-.42,0-.46.42-.46.22,0,1.36.08,4.74.08h9.43V3.69a16.81,16.81,0,0,0-.27-3.54c1.37,0,2.74.08,4.07.19.38,0,.57.19.57.38a4.48,4.48,0,0,1-.23.76,7,7,0,0,0-.19,2.21V3.8h10c3.38,0,4.52-.08,4.75-.08.42,0,.45,0,.45.42V6.69c0,.38,0,.41-.45.41-.23,0-1.37-.07-4.75-.07h-3.53a38.23,38.23,0,0,1,7,5.89.52.52,0,0,1,.18.34c0,.15-.07.27-.3.49l-1.86,1.68c-.34.3-.49.38-.76.07-.76-.91-1.6-1.78-2.43-2.62-6.46.61-15.77,1.06-22.57,1.29a2.75,2.75,0,0,0-1.29.23,1.17,1.17,0,0,1-.53.15c-.27,0-.38-.15-.46-.49a34.23,34.23,0,0,1-.61-3.42c1.37.07,2.62.11,3.92.07.64,0,1.4,0,2.12,0A28.71,28.71,0,0,0,544.08,7ZM562.4,25.87c0,1.79.11,3.88.11,4.79a4.42,4.42,0,0,1-1,3.15c-.68.61-2,.92-5.36.92-1.17,0-1.29,0-1.48-.88a9.14,9.14,0,0,0-1-2.77c1.64.11,2.59.15,3.61.15s1.3-.3,1.3-1.25V28.46H543.4v1.71c0,2.77.07,4.1.07,4.29,0,.38,0,.42-.41.42H540c-.38,0-.42,0-.42-.42s.08-1.44.08-4.25V20.52c0-2.85-.08-4.14-.08-4.37,0-.42,0-.46.42-.46s1.56.08,5.24.08h11.63c3.65,0,5-.08,5.2-.08.38,0,.42,0,.42.46,0,.23-.07,1.75-.07,4.67Zm-19-7v2h15.2v-2Zm15.2,6.77v-2H543.4v2ZM548.41,7a38.79,38.79,0,0,1-2.47,3.57c3.92-.11,8.17-.3,11.86-.53-.65-.53-1.33-1-2-1.48-.34-.23-.34-.31,0-.65l1-.91Z"/><path class="cls-1" d="M10.14,303.45c-1.59.27-3.19.46-4.71.65a5.29,5.29,0,0,0-1.44.34,1.19,1.19,0,0,1-.61.19c-.23,0-.42-.15-.53-.53a18.81,18.81,0,0,1-.8-3.27c1.48,0,2.66-.11,4.07-.27,1.17-.11,2.54-.26,4-.45,0-.88-.12-1.67-.23-2.47.61,0,1.14.07,1.63.15a21.2,21.2,0,0,0,2-2.16H7.67a39.67,39.67,0,0,1-3.57,2,2.51,2.51,0,0,1-.87.3c-.3,0-.42-.22-.8-.87a6,6,0,0,0-1.37-1.78A37.07,37.07,0,0,0,9.76,290H7.1c-3.38,0-4.55.08-4.78.08s-.38,0-.38-.42V287.3c0-.38,0-.41.38-.41s1.4.07,4.78.07H8.81v-3.19h-1c-2.59,0-3.42.08-3.69.08s-.42,0-.42-.42V281c0-.38,0-.42.42-.42s1.1.07,3.69.07h1a23.77,23.77,0,0,0-.26-4.18,30.2,30.2,0,0,1,3.57.27c.38,0,.61.19.61.38a1.87,1.87,0,0,1-.23.8c-.23.42-.19,1.1-.19,2.73,2.2,0,3-.07,3.19-.07.38,0,.42,0,.42.42v2.39a31.57,31.57,0,0,0,1.71-2.74,13.72,13.72,0,0,0,1.06-2.58,21.19,21.19,0,0,1,3,1.6c.38.22.53.41.53.68a.73.73,0,0,1-.38.61,3.37,3.37,0,0,0-1.17,1.33A35.31,35.31,0,0,1,17.55,287c1.49,0,2.13-.07,2.32-.07.42,0,.46,0,.46.41v2.36c0,.38,0,.42-.46.42-.23,0-1.37-.08-4.56-.08h-.49a31.18,31.18,0,0,1-3.08,2.74h3.5a1,1,0,0,0,.64-.12,1,1,0,0,1,.42-.15c.27,0,.49.15,1.18.95s.95,1.1.95,1.41-.12.49-.46.64a2.68,2.68,0,0,0-1.21.95,35.81,35.81,0,0,1-2.89,2.89.53.53,0,0,0-.08.23c2.09-.38,4.29-.76,6.35-1.25a16.1,16.1,0,0,0-.27,2.12c-.08,1.22-.08,1.22-1.29,1.45-1.6.38-3.23.72-4.9,1v.27c0,1.56.07,2.81.07,3.84a3.35,3.35,0,0,1-1.21,2.92c-1,.72-1.9.91-4.56.91-1.18,0-1.26,0-1.44-.87a8.59,8.59,0,0,0-1-2.7,24.73,24.73,0,0,0,3.11.19c1.07,0,1.52-.3,1.52-1.21Zm5.36-19.6c-.23,0-1-.08-3.19-.08V287H13a29.44,29.44,0,0,0,2.59-3.11Zm20.9,2.69c0,.38,0,.42-.42.42-.19,0-.84,0-2.39-.07-.27,5.73-1.6,10.67-3.73,14.13a27.55,27.55,0,0,0,7.18,6,10,10,0,0,0-1.74,2.74c-.31.61-.42.87-.69.87a1.92,1.92,0,0,1-.79-.42,37.84,37.84,0,0,1-6.24-6.08,26.22,26.22,0,0,1-8.35,6.54,2.62,2.62,0,0,1-.95.34c-.27,0-.42-.19-.69-.72A7.44,7.44,0,0,0,15.73,308a23.09,23.09,0,0,0,9.76-7.07,32.06,32.06,0,0,1-2.88-7.63c-.35.49-.65,1-1,1.48s-.53.65-.72.65-.42-.23-.8-.69A7.22,7.22,0,0,0,18.2,293c3.19-3.72,5.09-9,6.08-13.52a19.85,19.85,0,0,0,.38-3.2c1.06.19,2.62.54,3.46.73.45.15.64.3.64.57s-.19.49-.38.83a5.22,5.22,0,0,0-.53,1.71c-.23,1.1-.53,2.24-.91,3.46H31.5c3.19,0,4.25-.08,4.48-.08.38,0,.42,0,.42.42Zm-10.6.35c-.27.64-.53,1.29-.84,1.93a32.58,32.58,0,0,0,2.62,8.67,29.2,29.2,0,0,0,2.36-10.6Z"/><path class="cls-1" d="M53.62,304.33A18.22,18.22,0,0,1,56.54,306c.38.26.5.38.5.6s-.23.46-.61.54a6.1,6.1,0,0,0-1.48.68,31.54,31.54,0,0,1-8.48,3.27,6,6,0,0,1-.8.15c-.41,0-.53-.27-.91-1A11,11,0,0,0,43,307.86a28.21,28.21,0,0,0,8.47-2.36,7.25,7.25,0,0,0,1.9-1.17h-.91c-3.73,0-5.06.07-5.29.07-.41,0-.45,0-.45-.42,0-.22.07-1.36.07-4v-7.9c0-2.66-.07-3.8-.07-4s0-.41.45-.41c.23,0,1.56.07,5.29.07H67.14c3.73,0,5.06-.07,5.28-.07.38,0,.42,0,.42.41s-.08,1.37-.08,4V300c0,2.63.08,3.8.08,4,0,.38,0,.42-.42.42-.22,0-1.55-.07-5.28-.07Zm11.62-26.75c3.61,0,4.87-.08,5.09-.08.38,0,.42,0,.42.42,0,.23-.08.87-.08,2.55v2.47c0,1.63.08,2.27.08,2.5s0,.42-.42.42c-.22,0-1.48-.08-5.09-.08H54.41c-3.61,0-4.82.08-5.09.08s-.42,0-.42-.42.08-.87.08-2.5v-2.47c0-1.68-.08-2.32-.08-2.55,0-.38,0-.42.42-.42s1.48.08,5.09.08ZM50.73,292.47H68.85v-1.86H50.73Zm18.12,4.41V295H50.73v1.9Zm0,2.54H50.73v2H68.85Zm-2.13-18.88H52.93v2.4H66.72Zm-1.33,24.09a.85.85,0,0,1,.5-.23.74.74,0,0,1,.3.12,27.54,27.54,0,0,0,10.45,3.34,12.45,12.45,0,0,0-1.86,2.32c-.46.72-.61,1-1,1A5.21,5.21,0,0,1,73,311a30.71,30.71,0,0,1-10.07-4.21c-.15-.12-.22-.19-.22-.31s.11-.23.38-.38Z"/><path class="cls-1" d="M95.11,278.45c.46.12.69.31.69.61,0,.53-.27,1.06-.27,1.6,0,.76.11,1.67.19,2.54a52.1,52.1,0,0,0,1.22,6.54c1.9-1,3.26-1.75,5.39-2.89A9.52,9.52,0,0,0,105,284.8a19.2,19.2,0,0,1,2.78,3.57,1.55,1.55,0,0,1,.26.8c0,.38-.23.68-.76.76a18,18,0,0,0-3.65,1.14,53,53,0,0,0-8.92,4.44c-3.31,2.17-4.49,3.95-4.49,5.74,0,2.24,1.67,3.19,6,3.19a66.55,66.55,0,0,0,11.59-.87c.42-.08.61,0,.69.45a34.9,34.9,0,0,1,.38,3.54c0,.41-.23.6-.69.64a80.51,80.51,0,0,1-11.32.57c-7.18,0-11-2.35-11-7.29,0-4.22,2.77-7,7.22-9.81a57.65,57.65,0,0,1-2-9.27,16.51,16.51,0,0,0-1-4.4A22.08,22.08,0,0,1,95.11,278.45Z"/><path class="cls-1" d="M122.13,301.06c-3.38,0-4.52.07-4.75.07s-.42,0-.42-.41v-2.93c0-.38,0-.42.42-.42s1.37.08,4.75.08h10a26.32,26.32,0,0,0-.22-3.23l2.2.23a23.8,23.8,0,0,0,3.46-2.74h-8.21c-3.5,0-4.71.08-4.9.08-.38,0-.42,0-.42-.38v-2.66c0-.38,0-.42.42-.42.19,0,1.4.08,4.9.08h10.3a2.26,2.26,0,0,0,.91-.08,1.16,1.16,0,0,1,.49-.15c.31,0,.69.3,1.64,1.21.76.8,1.06,1.3,1.06,1.64a.61.61,0,0,1-.46.61,9,9,0,0,0-1.82,1.25,45.12,45.12,0,0,1-5.32,3.95v.61h9.5c3.38,0,4.52-.08,4.75-.08s.42,0,.42.42v2.93c0,.38,0,.41-.42.41s-1.37-.07-4.75-.07h-9.5v2.47c0,.91.08,2.32.08,3.3,0,1.64-.31,2.47-1.22,3.12s-2.16.84-5.81.84c-1.18,0-1.18,0-1.48-1.11a12,12,0,0,0-1.14-2.77,37.4,37.4,0,0,0,4.06.23c1.07,0,1.48-.27,1.48-1.33v-4.75Zm2.36-24.32c.49-.19.6-.11.83.19a29,29,0,0,1,2.55,3.95c.19.38.19.42-.34.61l-2.51.91h7.9a29.92,29.92,0,0,0-2.16-4.75c-.23-.38-.12-.41.34-.57l2.51-.76c.45-.15.56-.07.76.23a31.15,31.15,0,0,1,2.09,4.41c.11.34.11.38-.42.57l-2.47.87h5.85a30.32,30.32,0,0,0,1.86-3.83,13,13,0,0,0,.57-2,19.63,19.63,0,0,1,3.76,1.14c.34.15.53.34.53.57a.71.71,0,0,1-.38.57,2.88,2.88,0,0,0-.72.88c-.53,1-1,1.78-1.56,2.69h1c3.53,0,4.79-.07,5-.07.42,0,.45,0,.45.42,0,.22-.07.95-.07,2.05v1.74c0,3.42.07,4,.07,4.26,0,.42,0,.46-.45.46h-3c-.38,0-.42,0-.42-.46v-5H121.75v5c0,.38,0,.42-.42.42h-3c-.42,0-.45,0-.45-.42s.07-.87.07-4.29V285.1c0-1.4-.07-2.09-.07-2.35s0-.42.45-.42c.23,0,1.48.07,5,.07h1a21.74,21.74,0,0,0-2.43-4.25c-.23-.34-.19-.42.27-.57Z"/><path class="cls-1" d="M163.28,309.27c-3.45,0-4.59.07-4.82.07-.38,0-.42,0-.42-.42v-3.19c0-.38,0-.42.42-.42.23,0,1.37.08,4.82.08h9.54v-6.91h-4.18c-3.72,0-5,.07-5.24.07-.38,0-.42,0-.42-.42v-3.07c0-.35,0-.38.42-.38.23,0,1.52.07,5.24.07h4.18v-6.5h-8a28.55,28.55,0,0,1-3.34,5.32c-.34.46-.5.69-.72.69s-.42-.23-.84-.61a9.34,9.34,0,0,0-2.39-1.71,32.33,32.33,0,0,0,6.11-11.09,13,13,0,0,0,.54-2.51c1.25.23,2.62.61,3.68.91.42.11.69.3.69.57s-.12.38-.38.68a3.79,3.79,0,0,0-.73,1.45l-.91,2.51h6.27v-2a36.76,36.76,0,0,0-.3-5.78c1.48,0,3,.12,4.29.27.38,0,.61.23.61.42a2,2,0,0,1-.19.76c-.19.49-.27,1.44-.27,4.22v2.09h6.54c3.72,0,5-.08,5.2-.08.42,0,.46,0,.46.42v3.11c0,.38,0,.42-.46.42-.23,0-1.48-.08-5.2-.08H177v6.5h4.75c3.73,0,5-.07,5.25-.07s.41,0,.41.38v3.07c0,.38,0,.42-.41.42s-1.52-.07-5.25-.07H177v6.91h9c3.42,0,4.59-.08,4.82-.08.38,0,.42,0,.42.42v3.19c0,.38,0,.42-.42.42-.23,0-1.4-.07-4.82-.07Z"/><path class="cls-1" d="M217.62,284.83c-.87,6.46-2.47,12.39-4.75,16.38-1.63,2.85-3.61,4.37-6.45,4.37-3.35,0-6.73-3.57-6.73-9.76a14,14,0,0,1,4.29-9.88,16.64,16.64,0,0,1,12.35-4.87c9.12,0,14.48,5.63,14.48,13.19,0,7.06-4,11.51-11.71,13.83-.79.23-1.14.07-1.63-.69a8.14,8.14,0,0,0-2.66-2.39c6.42-1.52,11.48-4.18,11.48-11.36a8.64,8.64,0,0,0-8.51-8.82Zm-10.9,3.69a11,11,0,0,0-3,7c0,3.49,1.41,5.43,2.59,5.43,1,0,1.82-.49,2.85-2.31a43.58,43.58,0,0,0,4-13.61A11.45,11.45,0,0,0,206.72,288.52Z"/><path class="cls-1" d="M249.16,303.53c1.45-.46,2.93-1,4.53-1.6a20.35,20.35,0,0,0,0,2.21c0,1.21,0,1.21-1.07,1.59-3.61,1.33-7.25,2.47-10.71,3.42a3.85,3.85,0,0,0-1.33.53,1,1,0,0,1-.65.31c-.26,0-.42-.15-.57-.5a24.1,24.1,0,0,1-1.1-3.3,12,12,0,0,0,2.09-.31v-9.65a18.46,18.46,0,0,0-.23-3.57,28,28,0,0,1,3.42.31c.34,0,.53.15.53.34a2.48,2.48,0,0,1-.19.72,7.58,7.58,0,0,0-.19,2.28v8.78l2-.54V289.43h-1.25c-2.63,0-3.5.08-3.77.08s-.41,0-.41-.42.07-1.1.07-3.27v-4.48c0-2.13-.07-3-.07-3.27s0-.42.41-.42,1.14.08,3.77.08h4.4c2.66,0,3.5-.08,3.76-.08s.42,0,.42.42-.07,1.14-.07,3.27v4.48c0,2.17.07,3,.07,3.27,0,.38,0,.42-.42.42s-1.06-.08-3.42-.08v4.9h1.26c1.78,0,2.54-.07,2.77-.07.38,0,.42,0,.42.42v2.58c0,.38,0,.42-.42.42-.23,0-1-.08-2.77-.08h-1.26Zm-5.35-17.25h5.58V281h-5.58Zm15.12.23h7.6c2.73,0,4-.08,4.25-.08s.42,0,.42.42c0,.23-.08,1.37-.08,3.68v5c0,2.35.08,3.46.08,3.68,0,.38,0,.42-.42.42s-1.52-.07-4.25-.07h-7.6v5.73h8.17c4.25,0,5.66-.07,5.85-.07.38,0,.42,0,.42.42v3c0,.42,0,.46-.42.46-.19,0-1.6-.08-5.85-.08h-8.17v1.71c0,.38,0,.42-.42.42h-3.08c-.38,0-.41,0-.41-.42,0-.23.07-2.85.07-8.13V286.13c0-5.28-.07-7.91-.07-8.13,0-.38,0-.42.41-.42.23,0,1.41.07,4.75.07h7.22c3.72,0,4.83-.07,5.06-.07s.41,0,.41.42v3c0,.34,0,.38-.41.38s-1.34-.08-5.06-.08h-8.47Zm8.32,3.64h-8.32V296h8.32Z"/><path class="cls-1" d="M284.28,282.44c-3.38,0-4.52.08-4.71.08-.38,0-.42,0-.42-.42v-2.24c0-.42,0-.46.42-.46.19,0,1.33.08,4.71.08h2.24V279a14.52,14.52,0,0,0-.23-2.66c1.1,0,2.78.12,3.8.23.34,0,.53.19.53.34a1.36,1.36,0,0,1-.22.65,3.1,3.1,0,0,0-.19,1.44v.5h2c3.34,0,4.48-.08,4.71-.08.42,0,.46,0,.46.46v2.24c0,.38,0,.42-.46.42-.23,0-1.37-.08-4.71-.08Zm12.31,20.86c0,1.48.07,3.46.07,4.33,0,1.37-.34,2.09-1.1,2.55s-1.44.57-3.53.57c-1.14,0-1.25,0-1.37-.84a7.4,7.4,0,0,0-.72-2.35c1.22.07,1.9.07,2.58.07s.91-.3.91-.83v-8.21h-4.55c-.27,1.4-.61,2.85-1,4.18.61-.12,1.25-.23,1.9-.38-.23-.57-.42-1.1-.65-1.6s-.11-.42.23-.57l1.25-.57c.42-.19.42-.15.57.23a40.29,40.29,0,0,1,2,4.86c.11.46,0,.5-.42.69l-1.18.57c-.45.23-.53.23-.61-.23l-.34-1c-1.4.38-2.77.73-4.06,1a3.19,3.19,0,0,0-1.26.46.7.7,0,0,1-.41.19c-.16,0-.27-.19-.42-.5a25.45,25.45,0,0,1-.84-2.7c.38,0,.84,0,1.26,0,.38-1.45.72-3,1-4.6h-2.54v8.24c0,2.36.07,3.5.07,3.73s0,.38-.42.38H280.4c-.38,0-.42,0-.42-.38s.08-1.26.08-3.73V300c0-2.47-.08-3.57-.08-3.8,0-.38,0-.42.42-.42s1.37.08,4.56.08h1.33c.12-.69.23-1.37.31-2.13h-1.07c-3,0-4,.07-4.22.07s-.41,0-.41-.41.07-1.26.07-3.31v-3.19a18.19,18.19,0,0,0-.23-3.34c1.14,0,2.09.11,3.27.22.31,0,.46.16.46.35a1.61,1.61,0,0,1-.19.53c-.19.26-.23.76-.23,2.31v4.34h8.55v-4.45a17.94,17.94,0,0,0-.19-3.3c1.1,0,2.09.11,3.11.22.31,0,.46.16.46.35a1.2,1.2,0,0,1-.19.57,3.71,3.71,0,0,0-.19,1.67v2a29.8,29.8,0,0,0,4.79-9.31,14.06,14.06,0,0,0,.53-2.73c1.1.19,2.43.49,3.27.72.38.15.64.26.64.53s-.11.42-.41.72-.31.53-.69,1.56c-.34.87-.76,1.86-1.25,2.89H306c.46-1.18.8-2.36,1.14-3.54a16.18,16.18,0,0,0,.46-2.47,18.93,18.93,0,0,1,3.11.8c.34.15.65.27.65.53s-.12.42-.38.69-.38.45-.69,1.44-.57,1.71-.91,2.55h.53c2.55,0,3.31-.08,3.54-.08s.38,0,.38.42v2.66c0,.38,0,.42-.38.42s-1-.08-3.54-.08h-1v4.07c2.43,0,3.34-.08,3.57-.08.42,0,.45,0,.45.42v2.62c0,.38,0,.42-.45.42-.23,0-1.14,0-3.57-.08v4.22c2.43,0,3.34-.08,3.57-.08.42,0,.45,0,.45.42v2.62c0,.38,0,.42-.45.42-.23,0-1.14,0-3.57-.08V306h.11c3.34,0,4.52-.08,4.71-.08.38,0,.42,0,.42.46v2.66c0,.38,0,.41-.42.41-.19,0-1.37-.07-4.71-.07h-6.76v1.52c0,.38,0,.41-.42.41h-2.74c-.41,0-.45,0-.45-.41,0-.19.07-1.26.07-4.52V294.37c0-1.25.08-3.08.16-4.82-.27.45-.54.83-.76,1.17-.38.57-.65.8-.84.8s-.34-.15-.53-.49a6.34,6.34,0,0,0-1.18-1.48V290c0,2,.08,3.08.08,3.31s0,.41-.42.41-1.22-.07-4.14-.07H290c-.08.72-.19,1.44-.31,2.13h2c3.23,0,4.33-.08,4.56-.08.42,0,.45,0,.45.42,0,.23-.07,1.55-.07,4.14Zm-10.72-19.22c.27-.31.35-.31.69-.12.53.31,1.18.8,1.9,1.33l.49-.64a5.19,5.19,0,0,0,1-1.68,16.36,16.36,0,0,1,1.94,1.3c.22.15.34.22.34.41s0,.27-.27.34a1.41,1.41,0,0,0-.61.57c-.26.38-.64.8-1,1.3a17.53,17.53,0,0,1,1.44,1.4c.15.15.23.23.23.34s-.11.19-.27.38l-.87,1.14c-.34.42-.38.46-.68.12-.46-.53-1-1.07-1.52-1.6a17,17,0,0,1-1.87,1.71c-.34.27-.57.42-.76.42s-.34-.15-.53-.42a3.3,3.3,0,0,0-1.37-1.25,19.21,19.21,0,0,0,2.66-2.05c-.64-.54-1.29-1-1.86-1.41-.34-.27-.34-.19,0-.65Zm19.72,6v-4.07h-3.3v4.07Zm0,7.52v-4.22h-3.3v4.22Zm0,8.4v-5.1h-3.3V306Z"/><path class="cls-1" d="M331.62,282.1a24.78,24.78,0,0,0,.38-4.22,27.87,27.87,0,0,1,4.56,1.26.79.79,0,0,1,.61.76.78.78,0,0,1-.26.57,4.77,4.77,0,0,0-.76,1.44c-.5,1.56-.88,3-1.37,4.56a27.32,27.32,0,0,1,3-.15c3.53,0,5.43,2.47,5.43,7.33,0,4.1-.76,9.16-2.05,11.89a5.44,5.44,0,0,1-5.13,3.57,10.09,10.09,0,0,1-3.95-.57,1,1,0,0,1-.68-1.06,10.76,10.76,0,0,0-.73-3.53,10.2,10.2,0,0,0,4.37,1c1.26,0,1.83-.45,2.43-2a29.28,29.28,0,0,0,1.49-9.46c0-2.66-.5-3.5-2.17-3.5a25.57,25.57,0,0,0-3.19.27A104.83,104.83,0,0,1,326,308.09a.62.62,0,0,1-1,.34,17.34,17.34,0,0,1-2.62-1.67.77.77,0,0,1-.3-.57.72.72,0,0,1,.15-.42,79.67,79.67,0,0,0,6.95-14.89c-1.48.22-2.69.45-3.72.64a11,11,0,0,0-2.09.61.84.84,0,0,1-1.22-.49,34.43,34.43,0,0,1-1.17-3.92c1.67,0,3.34-.11,5-.26s3-.35,4.49-.57C331.09,284.72,331.36,283.39,331.62,282.1Zm15.05,2.55c.27-.16.46-.08.72.18a25.49,25.49,0,0,1,6.31,9.24.55.55,0,0,1-.15.76,15.54,15.54,0,0,1-2.85,1.9c-.38.19-.76.15-.88-.31a25.71,25.71,0,0,0-6.23-9.84A33.8,33.8,0,0,1,346.67,284.65Zm1-5.32c.19-.16.34-.12.57.07a17.67,17.67,0,0,1,3.61,4.07.39.39,0,0,1-.12.61l-1.59,1.17a.4.4,0,0,1-.65-.11,18.73,18.73,0,0,0-3.84-4.41Zm3.38-2.47c.23-.16.34-.12.57.07a16.2,16.2,0,0,1,3.61,3.92.43.43,0,0,1-.12.68l-1.52,1.18c-.3.23-.49.11-.64-.12a18.25,18.25,0,0,0-3.8-4.37Z"/><path class="cls-1" d="M370.38,302.69a5.86,5.86,0,0,0,3.16,3.16c1.33.53,3.68.72,7,.72,4.9,0,10.68-.31,16.34-.88a7.47,7.47,0,0,0-1,3c-.19,1.21-.19,1.21-1.41,1.29-4.82.26-9.34.34-13.29.34s-7.3-.23-8.86-1a10.09,10.09,0,0,1-3.95-3.45c-1.18,1.14-2.62,2.39-3.83,3.38a3.31,3.31,0,0,0-.76.76.66.66,0,0,1-.57.34c-.16,0-.38-.15-.54-.46a29.35,29.35,0,0,1-1.55-3.57,16.38,16.38,0,0,0,2.24-1.18,22.8,22.8,0,0,0,3.34-2.43v-8.43H364.8c-2.05,0-2.58.07-2.77.07-.42,0-.46,0-.46-.45V291c0-.38,0-.42.46-.42.19,0,.72.08,2.77.08h2.39c2,0,2.62-.08,2.85-.08s.42,0,.42.42-.08,1.29-.08,3.61Zm-5.43-25c.23-.15.34-.23.46-.23a.78.78,0,0,1,.38.19A33.4,33.4,0,0,1,371,283.7c.23.26.19.38-.22.72l-2.21,1.71a1.05,1.05,0,0,1-.49.22c-.12,0-.19-.07-.31-.26a32.21,32.21,0,0,0-5-6.23c-.3-.27-.23-.38.19-.69Zm14.13,13.49a31,31,0,0,1-.75,6.8,18.19,18.19,0,0,1-2.89,6c-.34.49-.53.72-.72.72s-.38-.23-.76-.65a10.8,10.8,0,0,0-2.25-1.9,12.77,12.77,0,0,0,3.16-6.23,37.46,37.46,0,0,0,.49-7.67v-2.85c0-2.21-.15-4-.34-6.08a26.35,26.35,0,0,1,3.27.87,43.77,43.77,0,0,0,10.22-2.58,13.53,13.53,0,0,0,2.32-1.14,17.14,17.14,0,0,1,2.69,2.81.86.86,0,0,1,.23.65c0,.22-.23.38-.57.41a7.92,7.92,0,0,0-1.6.27,61.59,61.59,0,0,1-12.46,3v3.95h11.36c3.38,0,4.52-.08,4.75-.08s.42,0,.42.42v2.93c0,.38,0,.42-.42.42s-1.37-.08-4.75-.08h-1.14v9.23c0,2.7.08,4,.08,4.22s0,.42-.42.42h-3.23c-.38,0-.42,0-.42-.42s.08-1.52.08-4.22v-9.23Z"/><path class="cls-1" d="M409.45,283c.34.15.61.42.61.69a3.29,3.29,0,0,1-.31,1.06,17.26,17.26,0,0,0-.34,3.72,47.78,47.78,0,0,0,.69,8.67c.53,3,1.52,5.58,3.11,5.58,1.22,0,2.17-1.33,3.65-5.28a14.59,14.59,0,0,0,2.43,2.93,1.15,1.15,0,0,1,.27,1.4c-1.45,3.88-3.8,5.93-6.46,5.93-3,0-6.08-3.5-7.11-9.92a68.62,68.62,0,0,1-.91-11.05,20.39,20.39,0,0,0-.46-5A16.5,16.5,0,0,1,409.45,283Zm17.63,2.4a1.05,1.05,0,0,1,.42-.16.62.62,0,0,1,.42.23,25.17,25.17,0,0,1,7.44,13c.12.49-.11.64-.42.83a12.41,12.41,0,0,1-3,1.52c-.46.15-.72,0-.8-.42a25.65,25.65,0,0,0-7.1-13.26A34.3,34.3,0,0,1,427.08,285.37Z"/><path class="cls-1" d="M4.05,117.79A26,26,0,0,0,.19,118a15.14,15.14,0,0,1,.89-4.12A15,15,0,0,1,5.32,108a46.31,46.31,0,0,1,5.06-3.71c3-2,3.9-3.2,3.9-5.13,0-2.18-1.8-3.55-4.65-3.55a4.87,4.87,0,0,0-4.31,2,6.51,6.51,0,0,0-1,3l-3.77-.51a9.18,9.18,0,0,1,2.12-4.87c1.49-1.75,3.87-2.66,6.87-2.66,5.26,0,8.52,2.56,8.52,6.68,0,2.4-.92,4.08-3.2,5.82-1,.73-1.42,1-4.24,2.94-3.55,2.38-5.13,4.19-5.95,6.66h9.43a32.4,32.4,0,0,0,4.31-.22V118a44.06,44.06,0,0,0-4.44-.19Z"/><path class="cls-1" d="M39.37,91.54a25.38,25.38,0,0,0-.19,3.08A34.19,34.19,0,0,0,40,102a26.37,26.37,0,0,0,4.69,8.87A29.8,29.8,0,0,0,49.09,115a20.35,20.35,0,0,0,3.14,2A9.81,9.81,0,0,0,50.1,120a30.62,30.62,0,0,1-8.17-7.73A25.89,25.89,0,0,1,37.76,103a25.37,25.37,0,0,1-2.35,6.64,21.55,21.55,0,0,1-4.75,6.27,26.5,26.5,0,0,1-5.29,4,8,8,0,0,0-2.15-2.7,21.29,21.29,0,0,0,7.35-5.79c3.8-4.66,5.48-10,5.48-17.26a19.58,19.58,0,0,0-.13-2.66Z"/><path class="cls-1" d="M63.61,92.94a34.66,34.66,0,0,0-1.74,7.72,74.81,74.81,0,0,0-.6,8.65v2.85h.06A21.12,21.12,0,0,1,63,107.28l2.19,1c-1.62,3.39-2.73,7.16-2.73,9.22,0,.12,0,.37,0,.69l-3.26.22a11.88,11.88,0,0,0-.16-1.39,51.73,51.73,0,0,1-.82-9.34,55.57,55.57,0,0,1,1.37-12.35,23.33,23.33,0,0,0,.44-2.82ZM71.94,106c-1.59,1.84-2.28,3.23-2.28,4.63,0,2,1.87,3,5.44,3a21.16,21.16,0,0,0,7.44-1.17l.29,3.39c-.41.06-.51.06-1.2.19a37.48,37.48,0,0,1-6.53.6c-3.79,0-6.27-.85-7.59-2.59a5.11,5.11,0,0,1-1-3.11c0-1.9.92-3.89,2.85-6.2ZM67.19,96a21.71,21.71,0,0,0,5.38.5,32.89,32.89,0,0,0,8.87-.89l.16,3.23c-.23,0-.42,0-2.22.26a55.63,55.63,0,0,1-6.72.41A33.67,33.67,0,0,1,68,99.24c-.44,0-.53-.07-.88-.1Z"/><path class="cls-1" d="M91.24,92.84a14.88,14.88,0,0,0,2.94.19h2.54a20.2,20.2,0,0,0,3-.16c-.18,1.93-.25,3.42-.25,5.26v15.74a25.49,25.49,0,0,0,.25,3.92H95.61a24,24,0,0,0,.25-3.92V96.07H94.28a23.86,23.86,0,0,0-3,.19Z"/><path class="cls-1" d="M127.22,91.54a25.38,25.38,0,0,0-.19,3.08,33.53,33.53,0,0,0,.86,7.34,26.16,26.16,0,0,0,4.68,8.87,29.8,29.8,0,0,0,4.37,4.21,21.39,21.39,0,0,0,3.14,2A9.61,9.61,0,0,0,138,120a30.47,30.47,0,0,1-8.17-7.73,25.73,25.73,0,0,1-4.18-9.24,24.67,24.67,0,0,1-2.35,6.64,21.55,21.55,0,0,1-4.75,6.27,26.71,26.71,0,0,1-5.28,4,8.19,8.19,0,0,0-2.16-2.7,21.29,21.29,0,0,0,7.35-5.79c3.8-4.66,5.48-10,5.48-17.26a19.58,19.58,0,0,0-.13-2.66Z"/><path class="cls-1" d="M147.79,95.63a19.93,19.93,0,0,0-.26-3.58H151a20.48,20.48,0,0,0-.17,3v.6l.17,15.51a62.13,62.13,0,0,0,8.48-4.4l.6,2.79a80.5,80.5,0,0,1-12.41,6.14c-1,.45-1.33.57-2.09.92l-.89-3.23a19.24,19.24,0,0,0,3.3-1ZM170.52,92c-.06.47-.06.63-.28,3.86a45.24,45.24,0,0,1-1.3,8,23.17,23.17,0,0,1-2.41,5.79,18.86,18.86,0,0,0,7.25,7.29,12.44,12.44,0,0,0-1.89,3,24.76,24.76,0,0,1-7.1-7.66c-2.59,3.39-6.08,5.89-11,7.91a8.3,8.3,0,0,0-1.77-2.62,27.48,27.48,0,0,0,6.27-3.17,18.91,18.91,0,0,0,7.85-11.3,34.89,34.89,0,0,0,1.11-9.22,16.27,16.27,0,0,0-.09-1.86Zm-13.86,2a46.18,46.18,0,0,1,6.2,7.7l-2.69,1.86a36.39,36.39,0,0,0-6-7.94Z"/><path class="cls-1" d="M192.87,115.92h9.62a34.35,34.35,0,0,0,4-.19V119a31.67,31.67,0,0,0-4-.22H182a35.42,35.42,0,0,0-4.11.22v-3.23a35.78,35.78,0,0,0,4.11.19h7.7V95.09a25.11,25.11,0,0,0-.22-3.52h3.58a24,24,0,0,0-.22,3.52V101h7.69a29.55,29.55,0,0,0,3.51-.19V104a28.69,28.69,0,0,0-3.51-.19h-7.69Z"/><path class="cls-1" d="M211.15,99.93c1.14,0,4.18-.31,6.87-.69a48.34,48.34,0,0,0,.86-6.49,2.9,2.9,0,0,0,0-.54l3.49.35c-.1.41-.16.63-.22,1-.13.63-.13.63-.22,1.14-.1.7-.1.7-.54,3.07-.13.7-.13.79-.23,1.21.86-.07,1.36-.1,2.06-.1a6,6,0,0,1,4.47,1.52c1.1,1.14,1.52,2.63,1.52,5.41,0,5.26-.89,9.53-2.31,11.31a3.81,3.81,0,0,1-3.36,1.42,14.58,14.58,0,0,1-4.81-1c0-.54.06-1,.06-1.21a14,14,0,0,0-.22-2.18,13.07,13.07,0,0,0,4.62,1.33c1,0,1.58-.7,2.09-2.47a29.74,29.74,0,0,0,.82-7.44c0-2.94-.85-3.93-3.48-3.93a11.86,11.86,0,0,0-2,.16,62.41,62.41,0,0,1-4.49,13c-.22.5-.95,1.89-2.09,4.17l-3.07-1.71a32.24,32.24,0,0,0,3.29-5.85,55.89,55.89,0,0,0,3.26-9.41,48.2,48.2,0,0,0-6,1.08Zm21.22-2.88A30.06,30.06,0,0,1,239,108.93l-3,1.55a26.92,26.92,0,0,0-2.59-6.87,22.46,22.46,0,0,0-3.68-5.23Zm1.13-4.59a20.39,20.39,0,0,1,3.11,4.18l-2.06,1.14a21.65,21.65,0,0,0-3.1-4.24Zm3.33-1.55a18.16,18.16,0,0,1,3,4l-2,1.17a20,20,0,0,0-3-4.08Z"/><path class="cls-1" d="M6.65,146.68a18.47,18.47,0,0,0-3,.16v-1.39H.76a14.92,14.92,0,0,0,.13-2.28V141a17.29,17.29,0,0,0-.13-2.29,32.93,32.93,0,0,0,3.39.13h8.42v-.92a9.81,9.81,0,0,0-.19-2h3.33a9.4,9.4,0,0,0-.19,2v.92h8.89a32.45,32.45,0,0,0,3.39-.13,17.88,17.88,0,0,0-.12,2.25v2.19a17.06,17.06,0,0,0,.12,2.28H24.92v-4.12H3.64v2.85a18.14,18.14,0,0,0,3,.16h6a17.33,17.33,0,0,0-.16-2.25h3.13a16,16,0,0,0-.15,2.25h6.42a17.63,17.63,0,0,0,3-.16v2.66a18.58,18.58,0,0,0-3-.16H15.45c0,.92,0,1-.09,2.15h6.05a20.85,20.85,0,0,0,2.78-.12v2.56a20.74,20.74,0,0,0-2.78-.13H15.2a19.26,19.26,0,0,1-.35,2.29H25.08a22,22,0,0,0,3.17-.16v2.82a24.62,24.62,0,0,0-3.27-.2H16.34a12.86,12.86,0,0,0,4.4,3.74,25.05,25.05,0,0,0,8,2.47A11.11,11.11,0,0,0,27.26,165c-7-1.77-10.45-3.86-13.52-8.26A11.75,11.75,0,0,1,9,162a20.29,20.29,0,0,1-7.53,2.88A9.38,9.38,0,0,0,0,162.16a19,19,0,0,0,6.84-2.08,9.82,9.82,0,0,0,4.31-4.19H3.71a24.88,24.88,0,0,0-3.23.2v-2.82a20.36,20.36,0,0,0,3.07.16H12a16.58,16.58,0,0,0,.38-2.29H6.87a21.26,21.26,0,0,0-2.81.13v-2.56a21.28,21.28,0,0,0,2.81.12h5.67c.06-.91.06-1.1.1-2.15Z"/><path class="cls-1" d="M62,141.49c-.79-.09-1.2-.09-2.47-.13a14.54,14.54,0,0,1-3.39,5.26,21.34,21.34,0,0,0,6.56,2.18,8.5,8.5,0,0,0-1.24,2.73,22.47,22.47,0,0,1-7.28-3.2,25.35,25.35,0,0,1-7,3.35,7.21,7.21,0,0,0-1.07-1.87,35.58,35.58,0,0,1-1.87,4.37,6.91,6.91,0,0,0-2-1.39,15.48,15.48,0,0,0,1.87-4.08h-2.4l.15,13.49c0,1.89-.76,2.5-3.26,2.5a25.21,25.21,0,0,1-2.88-.13,1.14,1.14,0,0,0,0-.28,7.42,7.42,0,0,0-.57-2.32,17.82,17.82,0,0,0,3.11.32c.66,0,.88-.19.88-.7l0-9.11a22.53,22.53,0,0,1-5,7.63,8.2,8.2,0,0,0-1.46-2.76,19.47,19.47,0,0,0,5.79-8.64H35.86a15.23,15.23,0,0,0-2.72.16v-2.82a18.19,18.19,0,0,0,2.88.16h3.64a22.3,22.3,0,0,0-4.47-4l1.71-1.59c1.49,1.15,2,1.56,2.86,2.32a14.9,14.9,0,0,0,2.94-3.26h-6a16.73,16.73,0,0,0-2.75.16v-2.79a18,18,0,0,0,3,.16h5.51a16.14,16.14,0,0,0,2.67-.1l1.42,1.55c-.16.19-.41.54-.7.89a29.13,29.13,0,0,1-4.4,5l.79.85-.75.8h2a20.66,20.66,0,0,0,2.28-.1l1.14,1.39a13.74,13.74,0,0,0-.63,1.74,21,21,0,0,0,5.92-2.46,14.36,14.36,0,0,1-3-3.68,26.66,26.66,0,0,1-2.56,3,7.84,7.84,0,0,0-2-1.77,17.27,17.27,0,0,0,4.81-6.43,9.54,9.54,0,0,0,.67-2.09l2.72.57c-.09.22-.25.63-.47,1.11s-.38.91-.64,1.48h7a28.36,28.36,0,0,0,3.26-.15ZM58.4,153.27a14.61,14.61,0,0,0,2.51-.13c-.07.67-.07.67-.1,1.27-.73,9-1.27,10.1-4.75,10.1a21.83,21.83,0,0,1-3.42-.29,8.07,8.07,0,0,0-.6-2.75,21.08,21.08,0,0,0,3.74.47c1.55,0,1.61-.19,2.18-6.17H53.18c-1.33,4.37-3.9,7.06-8.83,9.21a7.7,7.7,0,0,0-1.68-2.34A14.75,14.75,0,0,0,46,161a9.3,9.3,0,0,0,4.34-5.25H47.54a19.47,19.47,0,0,0-2.66.12v-2.75a18.93,18.93,0,0,0,2.82.13H51a16.46,16.46,0,0,0,.22-2.63,1.64,1.64,0,0,0,0-.44l3,.06c-.12.66-.12.7-.22,1.36-.06.51-.12.86-.25,1.65ZM51,141.36a12.41,12.41,0,0,0,3.14,3.87,10.42,10.42,0,0,0,2.59-3.87Z"/><path class="cls-1" d="M81,145.86a20.35,20.35,0,0,1-2,1.58,13.65,13.65,0,0,1,2.91,4.43,19,19,0,0,1,1.83,8c0,2.08-.44,3.48-1.33,4.2-.63.51-1.58.74-3.29.74-.89,0-2.18-.07-3.51-.2a8.62,8.62,0,0,0-.76-2.88,20.71,20.71,0,0,0,4,.48c1.74,0,2.12-.6,2.12-3.33a13.59,13.59,0,0,0-.1-1.64,43.58,43.58,0,0,1-12.63,6.49,11.87,11.87,0,0,0-1.68-2.44,38.22,38.22,0,0,0,13.68-6.65,15.79,15.79,0,0,0-.82-2.12,38.43,38.43,0,0,1-11.08,5.13,7.57,7.57,0,0,0-1.59-2.35,37.45,37.45,0,0,0,11.52-4.84,12.92,12.92,0,0,0-1.39-1.71A33.76,33.76,0,0,1,69,151.91a8.12,8.12,0,0,0-1.52-2.41c4.56-.95,7.53-2,10-3.64H74.29a29.59,29.59,0,0,0-3.11.16v-2.69a20.57,20.57,0,0,0,3.11.15H87.43a19.15,19.15,0,0,0,3.1-.15V146a29.25,29.25,0,0,0-3.1-.16H84.74a23.56,23.56,0,0,0,1.67,5.25,19.23,19.23,0,0,0,4.44-4.27l2.5,2-.48.38c-.32.26-.5.41-1.36,1.21a37.32,37.32,0,0,1-3.86,3.1,20.47,20.47,0,0,0,7.82,7.22,16.66,16.66,0,0,0-2.12,2.53A27.14,27.14,0,0,1,88,158.56c-2.79-3.3-4.62-7.32-5.86-12.7Zm-2-8a9.43,9.43,0,0,0-.19-1.93H82.2a9.64,9.64,0,0,0-.19,1.9v.82h9a32.6,32.6,0,0,0,3.38-.13,14,14,0,0,0-.12,2.15V143a15.61,15.61,0,0,0,.12,2.21H91.54v-4H70.2v4H67.32a14.44,14.44,0,0,0,.13-2.21v-2.29a13.94,13.94,0,0,0-.13-2.15,32.93,32.93,0,0,0,3.39.13h8.36Z"/><path class="cls-1" d="M102.93,146.75a23.36,23.36,0,0,0-2.85.15v-2.59a17.22,17.22,0,0,0,2.91.19h3v-2.95h-2.12a17.16,17.16,0,0,0-2.6.13v-2.57a16.8,16.8,0,0,0,2.63.16H106v-1a14.78,14.78,0,0,0-.16-2.28h3a10.84,10.84,0,0,0-.16,2.28v1H110a10.66,10.66,0,0,0,2-.12v2.4a16.88,16.88,0,0,0,2.35-4.27l2.5,1.2c-.26.38-.26.38-.92,1.52a31.64,31.64,0,0,1-3.26,4.5h.44a13.84,13.84,0,0,0,2-.1v2.47a11.31,11.31,0,0,0-2-.12h-2.53a32.15,32.15,0,0,1-3,2.69h2.85a13.69,13.69,0,0,0,2-.1l1.15,1.36a1.66,1.66,0,0,0-.26.22c-.12.13-.44.48-1,1.18a28.4,28.4,0,0,1-2.69,2.43v.7c2.08-.28,3-.41,5.41-.88v2.4c-2.5.51-3.42.67-5.41.92V162c0,1.3-.29,1.87-1,2.16a8.86,8.86,0,0,1-2.82.31c-.63,0-1.14,0-2.25-.09a9,9,0,0,0-.57-2.63,20,20,0,0,0,3.42.25c.51,0,.61-.09.61-.66V158c-2.16.23-2.16.23-5,.45a13.68,13.68,0,0,0-1.61.22l-.41-2.72c.38,0,.79,0,1,0,1.11,0,3.45-.16,6-.44a8.89,8.89,0,0,0-.13-2h.76a12,12,0,0,0,2.12-2h-5.1a33.38,33.38,0,0,1-3.45,2,7.3,7.3,0,0,0-1.71-2,33.42,33.42,0,0,0,7.63-4.78Zm6.55-2.25a23.64,23.64,0,0,0,2.41-2.85,12,12,0,0,0-1.71-.1h-1.52v2.95Zm18.93-.38a15.2,15.2,0,0,0-2.08-.16,31,31,0,0,1-1.11,6.71,23.25,23.25,0,0,1-2.34,5.64,19.48,19.48,0,0,0,2.5,2.94,19.16,19.16,0,0,0,3.73,2.94,8.75,8.75,0,0,0-2,2.63,25.67,25.67,0,0,1-5.89-6.14c-1.9,2.31-3.64,3.74-7.54,6.21a7.83,7.83,0,0,0-2-2.5c4.46-2.47,6-3.68,8-6.3a29,29,0,0,1-2.57-7.13,23.42,23.42,0,0,1-2,2.85,7.25,7.25,0,0,0-1.77-2.22c1.9-2.08,3.23-4.81,4.43-8.92a23.85,23.85,0,0,0,1-4.85l2.88.63c-.16.54-.16.54-.51,1.94-.12.6-.6,2.24-.85,3.1h5a17.6,17.6,0,0,0,3.1-.19Zm-9-.16c-.31.82-.38,1-.63,1.58a26.12,26.12,0,0,0,2.5,8,23.36,23.36,0,0,0,2-6,28.46,28.46,0,0,0,.42-3.61Z"/><path class="cls-1" d="M138.6,159.6a33.16,33.16,0,0,0-3.55.13,22,22,0,0,0,.13-3.33v-7.72a29.84,29.84,0,0,0-.13-3.42c.95.09,2,.12,3.55.12h16.46c1.62,0,2.54,0,3.55-.12a27.5,27.5,0,0,0-.13,3.42v7.72c0,1.17,0,1.87,0,2a6.24,6.24,0,0,0,.1,1.33,32.81,32.81,0,0,0-3.55-.13h-2.78a23.75,23.75,0,0,0,9.34,3.16,9.4,9.4,0,0,0-1.71,2.61c-4.75-1.15-6.81-2-10.17-4.31l1.81-1.46H142l1.93,1.55a25.66,25.66,0,0,1-5.29,2.76,40.92,40.92,0,0,1-4.85,1.42,9.13,9.13,0,0,0-1.71-2.66,22.71,22.71,0,0,0,9.22-3.07Zm18.71-18a15.73,15.73,0,0,0,.13,2.32c-1.08-.07-2-.1-3.49-.1H139.77c-1.42,0-2.47,0-3.51.1a18.72,18.72,0,0,0,.12-2.32v-2.28a21,21,0,0,0-.12-2.37,28.1,28.1,0,0,0,3.6.16h14a28.15,28.15,0,0,0,3.58-.16,17,17,0,0,0-.13,2.37ZM138,149.47h17.67v-1.81H138Zm0,3.89h17.67v-1.8H138Zm0,4h17.67v-1.87H138Zm1.26-15.74H154.4v-2.21H139.26Z"/><path class="cls-2" d="M359.19,92.38H317.53L303,125.86a39.82,39.82,0,0,1,9.49-1.12c12.83,0,21.76,4.65,26.78,9.49,9.49,8.93,10.6,20.64,10.6,27.53,0,15.43-5.39,28.08-13.76,36.45-10.79,11-24.18,12.84-35,12.84-8.93,0-15.81-1.68-22.69-6.14a41.3,41.3,0,0,1-13.21-14.32l7.63-3a31.1,31.1,0,0,0,11,11.53c6,3.72,13,4.47,19.35,4.47,10.41,0,19.16-2.79,27-10.79,6.32-6.7,11-16,11-29.39,0-7.07-1.3-15.62-8.18-22.51-4.09-4.27-11.16-8.74-22.32-8.74a40,40,0,0,0-20.46,5.4l22.5-52.64h47.43Z"/><path class="cls-2" d="M373.88,178.87c.56,6.88,3.54,13.95,7.45,18,5.76,6,13.39,6.7,17.85,6.7,8.74,0,15.44-2.61,21-8.75s8.37-15.25,8.37-23.25c0-6.88-2.42-13.76-7.07-17.85-4.28-3.91-11.16-5.77-17.48-5.4l.93-7.44c8.93,0,16.74-3.53,21.39-8,4.84-4.64,7.81-11.9,7.81-20.08,0-8.75-3.72-13.77-6.32-16.19-3.54-3.34-8.93-6-16.56-6-9.86,0-15.44,4.47-18,7.26-3.54,3.9-6.32,10.41-7.25,16.55h-7.82c.93-8.18,4.65-16.74,10-22.13,3.9-3.91,11.34-9.12,24-9.12,11.53,0,18.79,4.65,22.69,8.56,4.28,4.28,8,11,8,20.46,0,7.44-2.23,15.06-6.51,20.46s-11,9.49-16.92,11.53a25,25,0,0,1,13.2,10,29.43,29.43,0,0,1,4.65,16.36c0,10.79-3.72,21.58-10.6,29C418,209,407,211.05,398.62,211.05c-7.62,0-16.18-1.68-23.06-8.75-5.95-6.13-9.12-15.43-9.86-23.43Z"/><path class="cls-2" d="M449,201.71a5.54,5.54,0,0,1,3.64-1.43,4.91,4.91,0,0,1,3,1,3.83,3.83,0,0,1,1.31,3.12,5.35,5.35,0,0,1-1.57,3.91,5.5,5.5,0,0,1-3.9,1.56,4.52,4.52,0,0,1-2.86-1,4.06,4.06,0,0,1-1.31-3.12,5.46,5.46,0,0,1,1.7-4"/><path class="cls-2" d="M533.77,88.1,501.4,127.16a31.26,31.26,0,0,1,14.33-3c12.46,0,23.06,4.47,29.94,11.16S557,152.08,557,163.62c0,13.2-5.58,26.78-13.58,35-10.23,10.42-23.06,12.47-33.29,12.47-11.54,0-21.95-2.79-30.51-11.35-5.39-5.39-11.72-14.69-11.72-29.58a45.34,45.34,0,0,1,5.58-22.5c4.1-7.44,10.23-14.14,18.23-23.25L528,83.26Zm3,105.65c7.81-7.81,11.53-19.16,11.53-29.39,0-11.9-5-19.35-9.67-23.81-5.21-4.84-13.4-8.93-25.12-8.93-10,0-18.22,2.79-25.29,9.49-5.21,4.83-11.53,13.76-11.53,28.46,0,9.11,2.41,17.67,9.48,24.74,6.51,6.51,14.88,9.3,24.37,9.3,6.51,0,17.3-1.12,26.23-9.86"/><path class="cls-2" d="M592.73,161.9a9.28,9.28,0,0,1,2.68,6.92,12,12,0,0,1-3.35,8.71,11,11,0,0,1-8.19,3,9.47,9.47,0,0,1-7.29-2.68,9.94,9.94,0,0,1-3-7.22,12.11,12.11,0,0,1,3.27-8.33,11.37,11.37,0,0,1,8.19-3.35,10.62,10.62,0,0,1,7.66,3m19.34-3.49,2.76,1.64L579.71,210,577,208.26Zm-23.29,16.22a7.84,7.84,0,0,0,2.09-5.51,6.1,6.1,0,0,0-1.86-4.61,5.87,5.87,0,0,0-4.24-1.49,6.22,6.22,0,0,0-4.84,2.08,7.71,7.71,0,0,0-1.86,5.14,6.09,6.09,0,0,0,1.79,4.54,6.25,6.25,0,0,0,4.46,1.63,6,6,0,0,0,4.46-1.78m26.79,16.29a9.28,9.28,0,0,1,2.68,6.92,12,12,0,0,1-3.35,8.71,10.94,10.94,0,0,1-8.18,3,9.44,9.44,0,0,1-7.3-2.68,9.67,9.67,0,0,1-3-7.21,12.15,12.15,0,0,1,3.27-8.34,11.42,11.42,0,0,1,8.19-3.34,10.62,10.62,0,0,1,7.66,3m-3.94,12.72a7.84,7.84,0,0,0,2.08-5.5,6.06,6.06,0,0,0-1.86-4.61,5.87,5.87,0,0,0-4.24-1.49,6.22,6.22,0,0,0-4.84,2.08,7.67,7.67,0,0,0-1.86,5.13,6.08,6.08,0,0,0,1.79,4.54,6.24,6.24,0,0,0,4.46,1.64,6,6,0,0,0,4.47-1.79"/><polygon class="cls-2" points="379.41 356.27 304.46 356.27 305.38 348.83 395.22 348.83 297.39 474.94 291.43 470.29 379.41 356.27"/><path class="cls-2" d="M404.46,420a52.08,52.08,0,0,0-1.38,5.82,62.66,62.66,0,0,0-.83,13.92,40.73,40.73,0,0,0,5.91,16.8,43,43,0,0,0,6.88,8,30.33,30.33,0,0,0,5.26,3.84,23.93,23.93,0,0,0-5,5.52c-6.32-5-9.66-8.82-12.89-14.64-2.77-5-4.2-10.19-4.83-17.51a57.77,57.77,0,0,1-6.66,12.6,54,54,0,0,1-11.1,11.87,64.9,64.9,0,0,1-11.36,7.62,12.19,12.19,0,0,0-3.18-5.1c7.29-3.6,11.12-6.24,15.85-11,8.76-8.81,13.71-18.89,16.15-32.69a38.73,38.73,0,0,0,.64-5Z"/><path class="cls-1" d="M3.23,362.94a22.51,22.51,0,0,0-3.23.19v-2.76a21.66,21.66,0,0,0,3.29.19h8.93a13.56,13.56,0,0,0-.19-2.62H15.2a15.2,15.2,0,0,0-.19,2.62h9.56a22.28,22.28,0,0,0,3.32-.19v2.76a23.86,23.86,0,0,0-3.26-.19H15v1.83h7.25a24.18,24.18,0,0,0,2.88-.12,20.09,20.09,0,0,0-.13,2.44v6.08a20,20,0,0,0,.13,2.43,25.28,25.28,0,0,0-2.88-.12h-.45v1.77H24.6a22.52,22.52,0,0,0,3.33-.19v2.79a25.27,25.27,0,0,0-3.27-.19H21.81v4.56c0,1.14-.28,1.74-1,2.12a8.23,8.23,0,0,1-3.64.47c-.57,0-1.14,0-2.22-.06a7.24,7.24,0,0,0-.82-2.72,25,25,0,0,0,3.58.25c1.17,0,1.36-.13,1.36-.76v-3.86H3.23a25.07,25.07,0,0,0-3.23.19v-2.79a21.66,21.66,0,0,0,3.29.19H19v-1.77H5.57a25,25,0,0,0-2.88.12,19.17,19.17,0,0,0,.13-2.43v-6.08a19.63,19.63,0,0,0-.13-2.44,24.18,24.18,0,0,0,2.88.12h6.65v-1.83ZM5.57,369h6.65v-2H5.57Zm0,4.27h6.65v-2.12H5.57Zm4.72,12.67a21.42,21.42,0,0,0-4.53-4.15l2.09-1.71A21.86,21.86,0,0,1,12.51,384ZM15,369h7.25v-2H15Zm0,4.27h7.25v-2.12H15Z"/><path class="cls-1" d="M36.21,373.58c0-1,0-1.59.12-3.74a24.1,24.1,0,0,1-2.85,3.93,13.89,13.89,0,0,0-1.42-3,25.71,25.71,0,0,0,5.48-8.29A19.75,19.75,0,0,0,39,357.84l3,1c-.19.51-.19.51-.41,1.14A37.13,37.13,0,0,1,39,365.88V383a30.24,30.24,0,0,0,.22,3.86H36a27.56,27.56,0,0,0,.23-3.92Zm13.23-9.15c-4.56.88-4.56.88-6.84,1.2a8.92,8.92,0,0,0-1.26-2.72,56,56,0,0,0,12.34-2.31,21.42,21.42,0,0,0,4.66-2l2,2.5-1.74.66a54.77,54.77,0,0,1-6.27,2v7.35h6a22.26,22.26,0,0,0,3.45-.22V374a25.34,25.34,0,0,0-3.45-.19h-6v9h4.75a26,26,0,0,0,3.55-.19v3a23.17,23.17,0,0,0-3.55-.22H45.2a23.26,23.26,0,0,0-3.55.22v-3a25.65,25.65,0,0,0,3.55.19h4.24v-9H44a25.42,25.42,0,0,0-3.48.19v-3.07a25.72,25.72,0,0,0,3.48.19h5.41Z"/><path class="cls-1" d="M69.31,368.8a23.18,23.18,0,0,0-2.84.15v-2.59a18.25,18.25,0,0,0,2.91.19h3V363.6H70.26a18.44,18.44,0,0,0-2.59.13v-2.57a16.71,16.71,0,0,0,2.63.16h2.08v-1a16.3,16.3,0,0,0-.15-2.28h3a11.69,11.69,0,0,0-.15,2.28v1h1.33a10.8,10.8,0,0,0,2-.12v2.4a16.5,16.5,0,0,0,2.34-4.27l2.5,1.2c-.25.38-.25.38-.92,1.52a30.13,30.13,0,0,1-3.26,4.5h.45a12.33,12.33,0,0,0,2-.1v2.47a12.31,12.31,0,0,0-2-.12H76.91a29.83,29.83,0,0,1-3,2.69h2.86a12.48,12.48,0,0,0,2-.1l1.14,1.36a1.14,1.14,0,0,0-.25.23c-.13.12-.44.47-1,1.17a26.12,26.12,0,0,1-2.69,2.43v.7c2.09-.28,3-.41,5.42-.89v2.41c-2.5.51-3.42.66-5.42.92V384c0,1.3-.28,1.87-1,2.16a8.8,8.8,0,0,1-2.82.32c-.63,0-1.14,0-2.25-.1a9,9,0,0,0-.57-2.63,20,20,0,0,0,3.42.25c.51,0,.6-.09.6-.66V380c-2.15.22-2.15.22-5,.44a15.38,15.38,0,0,0-1.61.22L66.28,378c.37,0,.79,0,1,0,1.1,0,3.45-.16,6-.44a9.13,9.13,0,0,0-.12-2h.76a12,12,0,0,0,2.12-2h-5.1a33.38,33.38,0,0,1-3.45,2,7.3,7.3,0,0,0-1.71-2,33.42,33.42,0,0,0,7.63-4.78Zm6.56-2.25a22.8,22.8,0,0,0,2.4-2.85,13.58,13.58,0,0,0-1.71-.1H75.05v2.95Zm18.93-.38a15.23,15.23,0,0,0-2.09-.16,29.81,29.81,0,0,1-1.11,6.71,22.86,22.86,0,0,1-2.34,5.64,20.72,20.72,0,0,0,2.5,2.94,20,20,0,0,0,3.74,2.95,8.57,8.57,0,0,0-2,2.63,26.06,26.06,0,0,1-5.88-6.15c-1.9,2.31-3.65,3.74-7.54,6.21a7.72,7.72,0,0,0-2-2.5c4.47-2.47,6-3.68,8-6.3A28.57,28.57,0,0,1,83.5,371a25.51,25.51,0,0,1-2,2.85,7.08,7.08,0,0,0-1.78-2.21c1.9-2.1,3.23-4.82,4.44-8.93a24.56,24.56,0,0,0,1-4.85l2.88.64c-.16.53-.16.53-.51,1.93-.13.6-.6,2.24-.86,3.1h5a17.68,17.68,0,0,0,3.1-.19Zm-9-.16c-.31.82-.38,1-.63,1.58a26.12,26.12,0,0,0,2.5,8,23.23,23.23,0,0,0,2-5.95,27,27,0,0,0,.41-3.61Z"/><path class="cls-1" d="M105,381.65a33,33,0,0,0-3.54.13,24.72,24.72,0,0,0,.12-3.33v-7.72a33,33,0,0,0-.12-3.42c1,.09,2,.13,3.54.13h16.47c1.61,0,2.53,0,3.54-.13a30.33,30.33,0,0,0-.12,3.42v7.72c0,1.17,0,1.87,0,2a7,7,0,0,0,.09,1.33,32.6,32.6,0,0,0-3.54-.13h-2.79a24,24,0,0,0,9.34,3.17,9.34,9.34,0,0,0-1.71,2.59c-4.75-1.14-6.81-2-10.16-4.3l1.8-1.46h-9.59l1.93,1.55A25.66,25.66,0,0,1,105,386a40.6,40.6,0,0,1-4.84,1.42,9.56,9.56,0,0,0-1.71-2.66,22.66,22.66,0,0,0,9.21-3.07Zm18.71-18a17,17,0,0,0,.13,2.31c-1.07-.06-2-.09-3.48-.09H106.15c-1.42,0-2.46,0-3.51.09a16.72,16.72,0,0,0,.12-2.31v-2.28a18.91,18.91,0,0,0-.12-2.37,28.38,28.38,0,0,0,3.61.16h14a28.05,28.05,0,0,0,3.58-.16,18.68,18.68,0,0,0-.13,2.37Zm-19.31,7.92h17.67v-1.81H104.38Zm0,3.89h17.67v-1.8H104.38Zm0,4h17.67V377.5H104.38Zm1.27-15.74h15.13v-2.21H105.65Z"/><path class="cls-1" d="M135.05,359.77A14.88,14.88,0,0,0,138,360h2.54a20.29,20.29,0,0,0,3-.16,49.85,49.85,0,0,0-.25,5.26v15.73a24.26,24.26,0,0,0,.25,3.93h-4.08a24,24,0,0,0,.25-3.93V363h-1.58a23.86,23.86,0,0,0-3,.19Z"/><path class="cls-1" d="M171,358.47a25.38,25.38,0,0,0-.19,3.08,33.61,33.61,0,0,0,.86,7.34,26.16,26.16,0,0,0,4.68,8.87,29.8,29.8,0,0,0,4.37,4.21,21.39,21.39,0,0,0,3.14,2,9.61,9.61,0,0,0-2.12,2.92,30.47,30.47,0,0,1-8.17-7.73,25.9,25.9,0,0,1-4.18-9.24,24.67,24.67,0,0,1-2.35,6.64,21.55,21.55,0,0,1-4.75,6.27,26,26,0,0,1-5.28,4,8.36,8.36,0,0,0-2.15-2.69,21.34,21.34,0,0,0,7.34-5.79c3.8-4.66,5.48-10,5.48-17.26a19.58,19.58,0,0,0-.13-2.66Z"/><path class="cls-1" d="M1.11,407.34a27.23,27.23,0,0,0,5.95.48h.7c.06-.7.06-.7.15-2.09,0-.38.07-1.46.07-1.81a3.41,3.41,0,0,0,0-.5l3.32.19a19.53,19.53,0,0,0-.6,4.11,53.21,53.21,0,0,0,12-1.74l.16,3.07c-.44,0-.6.07-1.2.16a95.78,95.78,0,0,1-11.18,1.14c-.16,2.34-.16,2.34-.19,3.55a17.89,17.89,0,0,1,4.18-.48c.57,0,.95,0,1.77,0a10.56,10.56,0,0,0,.7-2.56l3,.85c-.13.29-.13.29-.48,1.18-.22.66-.28.76-.41,1.14a8.19,8.19,0,0,1,3.36,1.48,6.91,6.91,0,0,1,3.16,6c0,3.32-1.8,6-5.25,7.69A17.51,17.51,0,0,1,13.87,431a8.77,8.77,0,0,0-1.43-3,16,16,0,0,0,4.66-.73c3.41-1.17,5.32-3.26,5.32-5.89,0-2.28-1.52-4-4.28-4.85a27.43,27.43,0,0,1-6.33,9.5c-2.53,2.44-4.91,3.64-7.22,3.64-2.63,0-4.53-2.18-4.53-5.22a9.75,9.75,0,0,1,3.1-6.93,12.66,12.66,0,0,1,4.31-2.82c0-1.9,0-1.9.16-4.22h-1c-.6,0-1.17,0-2.06-.06l-2.82-.09a5.62,5.62,0,0,0-.63,0Zm3.55,12.6A6.75,6.75,0,0,0,3,424.16c0,1.52.79,2.53,2,2.53a4.92,4.92,0,0,0,3.13-1.33,40.9,40.9,0,0,1-.59-7.76,9.57,9.57,0,0,0-2.85,2.34m5.88,2.79c0,.25,0,.25.06.41a.66.66,0,0,0,0,.29l.51-.64A26.07,26.07,0,0,0,15.36,416a3.57,3.57,0,0,0-.83-.07,12.1,12.1,0,0,0-4.27.7,56.65,56.65,0,0,0,.28,6.08"/><path class="cls-1" d="M31.36,408.77a18.81,18.81,0,0,0,3.9.28c.69,0,1.17,0,1.87,0a34.93,34.93,0,0,0,.66-5.09,2.77,2.77,0,0,0,0-.45l3.51.32a17.89,17.89,0,0,0-.6,3c-.16.95-.19,1.26-.35,2.08a26.4,26.4,0,0,0,5.51-1l.16,3c-.25,0-.25,0-1,.16a41.33,41.33,0,0,1-5.26.7c-.37,2.15-1.23,5.63-2.05,8.51a94.25,94.25,0,0,1-3.58,10.17l-3.33-1.33a67,67,0,0,0,5.8-17.23c-.29,0-1.9,0-2.57,0a8.83,8.83,0,0,1-.91,0c-.48,0-1,0-1.46,0h-.35Zm15.11,12a8.5,8.5,0,0,0-1.3,1.83,4.33,4.33,0,0,0-.42,1.68c0,1.65,1.78,2.57,5.07,2.57a23.35,23.35,0,0,0,7.09-1.14l.26,3.29c-.51.1-.7.1-1.49.22a32.31,32.31,0,0,1-5.76.54,12.38,12.38,0,0,1-6.11-1.2,4.34,4.34,0,0,1-2.22-3.83c0-1.52.57-2.79,2.28-5.07ZM56,416.08a32.12,32.12,0,0,0-3.9-.19,33.58,33.58,0,0,0-8.17.95l-.25-2.94a38.13,38.13,0,0,1,9-1l3.26,0Z"/><path class="cls-1" d="M69.31,403.73c-.41,1.08-.5,1.65-1.23,6.65-.25,1.77-.35,2.63-.42,3.55h.1c.07-.22.07-.22.22-.79a11.61,11.61,0,0,1,1.9-4.18c1.74-2.38,3.77-3.55,6.14-3.55a6.32,6.32,0,0,1,5.35,2.82c1.49,2.09,2.13,4.53,2.13,8.17,0,5.92-2.73,10.38-7.83,12.76a26.58,26.58,0,0,1-6,1.8,9.77,9.77,0,0,0-1.65-3.1A17.72,17.72,0,0,0,74.82,426c3.71-2,5.38-5.1,5.38-10,0-4.74-1.61-7.44-4.46-7.44A4.88,4.88,0,0,0,72,410.35a15.92,15.92,0,0,0-4,10.29c0,.09,0,.09,0,.73l-3.2.06a1.7,1.7,0,0,0,0-.34v-.64c0-.82-.09-3.23-.09-3.77a72.75,72.75,0,0,1,.47-8.1l.51-4a7.93,7.93,0,0,0,.09-1.08Z"/><path class="cls-1" d="M103,421.62c-1.83,4.18-3.76,6-6.23,6-3.36,0-5.83-3.52-5.83-8.33a13.29,13.29,0,0,1,3.42-9A13.87,13.87,0,0,1,105,406c7.37,0,12.22,4.53,12.22,11.37a11.94,11.94,0,0,1-7.54,11.49,23.35,23.35,0,0,1-4.87,1.36,8.26,8.26,0,0,0-1.62-3.1,21.35,21.35,0,0,0,5.26-1.3,9.2,9.2,0,0,0,5.51-8.61,8,8,0,0,0-4.34-7.41,7.51,7.51,0,0,0-3.39-.89A46.29,46.29,0,0,1,103,421.62m-4.33-11.21A10.75,10.75,0,0,0,94,419.34c0,2.76,1.2,4.94,2.72,4.94,1.14,0,2.32-1.39,3.55-4.27A43.34,43.34,0,0,0,103,408.89a8.87,8.87,0,0,0-4.33,1.52"/><path class="cls-1" d="M138.08,429c0,2.28-.72,2.76-4.18,2.76-.75,0-2.37-.07-3.48-.13a9.18,9.18,0,0,0-.89-2.82,30.94,30.94,0,0,0,4,.32c1.42,0,1.64-.1,1.64-.76v-5.35h-9a26.51,26.51,0,0,0-3.64.19v-2.95a28.28,28.28,0,0,0,3.61.19h9v-.34a17.27,17.27,0,0,0-.09-1.81h1.36a22.15,22.15,0,0,0,4.56-3h-9.94a30.68,30.68,0,0,0-3.11.15v-2.72a22.74,22.74,0,0,0,3.17.16H142a13.68,13.68,0,0,0,2.37-.13l1.53,1.65c-.45.41-.77.63-.86.73a38,38,0,0,1-7,4.84v.44h8.74a28.4,28.4,0,0,0,3.68-.19v2.95a27.56,27.56,0,0,0-3.71-.19h-8.71Zm-9.65-21.09a19.91,19.91,0,0,0-2.63-3.76l2.69-.83a28.75,28.75,0,0,1,3,4.59h3.86a19.13,19.13,0,0,0-2.09-4.21l2.79-.76a28.67,28.67,0,0,1,2.24,5h3a16.5,16.5,0,0,0,2.85-4.87L147,404a33,33,0,0,1-2.63,3.95h1.84c2,0,2.63,0,3.8-.12a21,21,0,0,0-.13,2.62v2.7a19.54,19.54,0,0,0,.16,2.34h-2.91v-5.1H125.83v5.1h-2.91a17.93,17.93,0,0,0,.16-2.34v-2.7a19.22,19.22,0,0,0-.13-2.62,32.6,32.6,0,0,0,3.7.12Z"/><path class="cls-1" d="M162,412a28.35,28.35,0,0,1-4.31,6.62,9.32,9.32,0,0,0-2.34-2.06,24.74,24.74,0,0,0,5.51-9.47,12.3,12.3,0,0,0,.66-2.94l3.14.79c-.38,1-.38,1-.61,1.8-.15.48-.47,1.36-.94,2.63h5.7v-2.78a23.89,23.89,0,0,0-.23-3.61H172a29.29,29.29,0,0,0-.19,3.61v2.78h7.06a37.73,37.73,0,0,0,4-.19v3a38.64,38.64,0,0,0-4-.19h-7.13v6.21h5.83a30.32,30.32,0,0,0,3.7-.19v3a30.74,30.74,0,0,0-3.67-.19h-5.86v7.32h8.11a32.26,32.26,0,0,0,4.12-.22v3.1a32.08,32.08,0,0,0-4.06-.22H160.24a34.74,34.74,0,0,0-4.22.22V428a33.7,33.7,0,0,0,4.12.22h8.65v-7.32h-5.23a29.59,29.59,0,0,0-3.64.19v-3a27.27,27.27,0,0,0,3.61.19h5.26V412Z"/><path class="cls-1" d="M202.08,409.05a16.25,16.25,0,0,0,2.09-.09v2.47a15.08,15.08,0,0,0-2.09-.1h-2.56a10.79,10.79,0,0,0,3.26,2.47,9,9,0,0,0-1.59,2.16A12.23,12.23,0,0,1,198,412.6c.06.63.09,1.11.09,1.39v1.43a7,7,0,0,0,.1,1.23H195.4a7.81,7.81,0,0,0,.13-1.14v-1.42c0-.35,0-.89.06-1.46a18.39,18.39,0,0,1-5.48,5.35,8.83,8.83,0,0,0-1.77-2.15,15.36,15.36,0,0,0,5.51-4.5h-2.28a13.88,13.88,0,0,0-2.57.16V408.9a14.94,14.94,0,0,0,2.6.15h3.93v-3.92a11,11,0,0,0-.16-2.12h2.88a12,12,0,0,0-.13,2.08v4ZM200.81,430a18.46,18.46,0,0,0-3.16-2c-2.09,1.86-3.87,2.78-7.6,4a12.22,12.22,0,0,0-1.39-2.44,17.3,17.3,0,0,0,6.55-2.75c-1.46-.66-2.34-1-4.75-1.9a26.1,26.1,0,0,0,2.12-3.26h-1.33a11.56,11.56,0,0,0-2.37.16V419a12.09,12.09,0,0,0,2.37.15h2.57a19.24,19.24,0,0,0,.88-2.34l2.76.57c-.38.92-.48,1.21-.76,1.77H202a11.52,11.52,0,0,0,2.32-.15v2.69a12.2,12.2,0,0,0-2.44-.16h-.22a12.84,12.84,0,0,1-2.16,4.4,19.13,19.13,0,0,1,2.88,1.58Zm-8.74-26.53a16.81,16.81,0,0,1,2.28,4.15l-2.31.91a16.48,16.48,0,0,0-2.21-4.18Zm3.36,18.11c-.41.7-.63,1.08-1.3,2.12,1.49.54,2,.76,3,1.2a8.63,8.63,0,0,0,1.71-3.32Zm8.42-17.19a28.68,28.68,0,0,1-2.53,4.4l-2.28-1a15.23,15.23,0,0,0,2.41-4.37Zm13.93,7a16.24,16.24,0,0,0-2.43-.12,31.06,31.06,0,0,1-1,6.9,23.8,23.8,0,0,1-2.35,5.57,17.9,17.9,0,0,0,6.43,5.38,12.39,12.39,0,0,0-1.62,2.79,22.24,22.24,0,0,1-6.52-5.76A24.38,24.38,0,0,1,203,432a8.63,8.63,0,0,0-1.74-2.51,19.83,19.83,0,0,0,7.47-5.72,23.45,23.45,0,0,1-2.91-8.14,22.11,22.11,0,0,1-1.78,2.63,7.8,7.8,0,0,0-2-1.87,24,24,0,0,0,4.59-9.76,19.55,19.55,0,0,0,.63-3.73l3,.6c-.13.41-.13.41-.41,1.55-.42,1.71-.67,2.57-1,3.64h5.95a14.22,14.22,0,0,0,3-.19Zm-9.84-.12a8.27,8.27,0,0,1-.38.91,26.31,26.31,0,0,0,2.82,9c1.45-2.82,2.09-5.61,2.28-9.91Z"/></g></g></svg>